<?xml version="1.0" encoding="UTF-8"?>
<svg width="11px" height="13px" viewBox="0 0 11 13" version="1.1" xmlns="http://www.w3.org/2000/svg" xmlns:xlink="http://www.w3.org/1999/xlink">
    <!-- Generator: Sketch 42 (36781) - http://www.bohemiancoding.com/sketch -->
    <title>MyAccount</title>
    <desc>Created with Sketch.</desc>
    <defs>
        <polygon id="path-1" points="10.8275 6 0 6 0 0.9941 10.8275 0.9941 10.8275 6"></polygon>
        <polygon id="path-3" points="0.8153 0.637 8.0123 0.637 8.0123 7.7855 0.8153 7.7855 0.8153 0.637"></polygon>
    </defs>
    <g id="Main" stroke="none" stroke-width="1" fill="none" fill-rule="evenodd">
        <g id="Home-1" transform="translate(-1132.000000, -10.000000)">
            <g id="Super-Nav" transform="translate(-50.000000, 0.000000)">
                <g id="My-Account" transform="translate(1181.666667, 0.000000)">
                    <g id="MyAccount" transform="translate(0.333333, 9.000000)">
                        <g id="Group-3" transform="translate(0.000000, 7.363300)">
                            <mask id="mask-2" fill="white">
                                <use xlink:href="#path-1"></use>
                            </mask>
                            <g id="Clip-2"></g>
                            <path d="M1.4705,6.0001 C1.6715,4.0101 3.3525,2.4441 5.4145,2.4441 C7.4765,2.4441 9.1565,4.0101 9.3575,6.0001 L10.8275,6.0001 C10.6255,3.2071 8.2785,0.9941 5.4145,0.9941 C2.5505,0.9941 0.2015,3.2071 -0.0005,6.0001 L1.4705,6.0001 Z" id="Fill-1" fill="#58595B" mask="url(#mask-2)"></path>
                        </g>
                        <g id="Group-6" transform="translate(1.000000, 0.363300)">
                            <mask id="mask-4" fill="white">
                                <use xlink:href="#path-3"></use>
                            </mask>
                            <g id="Clip-5"></g>
                            <path d="M4.4143,2.0875 C5.5973,2.0875 6.5613,3.0405 6.5613,4.2115 C6.5613,5.3815 5.5973,6.3345 4.4143,6.3345 C3.2293,6.3345 2.2663,5.3815 2.2663,4.2115 C2.2663,3.0405 3.2293,2.0875 4.4143,2.0875 M4.4143,7.7855 C6.3983,7.7855 8.0123,6.1815 8.0123,4.2115 C8.0123,2.2405 6.3983,0.6365 4.4143,0.6365 C2.4293,0.6365 0.8153,2.2405 0.8153,4.2115 C0.8153,6.1815 2.4293,7.7855 4.4143,7.7855" id="Fill-4" fill="#58595B" mask="url(#mask-4)"></path>
                        </g>
                    </g>
                </g>
            </g>
        </g>
    </g>
</svg>
