<?xml version="1.0" encoding="UTF-8"?>
<svg width="16px" height="15px" viewBox="0 0 16 15" version="1.1" xmlns="http://www.w3.org/2000/svg" xmlns:xlink="http://www.w3.org/1999/xlink">
    <!-- Generator: Sketch 42 (36781) - http://www.bohemiancoding.com/sketch -->
    <title>Fill 1</title>
    <desc>Created with Sketch.</desc>
    <defs></defs>
    <g id="Main" stroke="none" stroke-width="1" fill="none" fill-rule="evenodd">
        <g id="Home-1" transform="translate(-1009.000000, -306.000000)" fill="#FFFFFF">
            <g id="Page-1" transform="translate(1009.000000, 306.000000)">
                <path d="M15.1,1.6001 L2.8,1.6001 L2.7,0.6001 C2.6,0.2001 2.3,0.0001 2,0.0001 L0.7,0.0001 C0.3,0.0001 0,0.3001 0,0.7001 C0,1.1001 0.3,1.4001 0.7,1.4001 L1.4,1.4001 L3.1,10.8001 C3.2,11.1001 3.4,11.3001 3.8,11.3001 L13.9,11.3001 C14.3,11.3001 14.6,11.0001 14.6,10.6001 C14.6,10.2001 14.3,9.9001 13.9,9.9001 L4.4,9.9001 L4.2,8.2551 L14.2,8.2551 C14.5,8.2551 14.8,8.0551 14.9,7.6551 L15.8,2.3001 C15.8,2.1001 15.8,1.9001 15.6,1.8001 C15.5,1.6001 15.3,1.6001 15.1,1.6001 L15.1,1.6001 Z M13.6,6.9551 L4,6.9551 L3.1,2.9001 L14.3,2.9001 L13.6,6.9551 Z M12.8,11.6001 C11.9,11.6001 11.3,12.3001 11.3,13.1001 C11.3,14.0001 12,14.6001 12.8,14.6001 C13.7,14.6001 14.3,13.9001 14.3,13.1001 C14.3,12.3001 13.6,11.6001 12.8,11.6001 L12.8,11.6001 Z M5.4,11.6001 C4.5,11.6001 3.9,12.3001 3.9,13.1001 C3.9,14.0001 4.6,14.6001 5.4,14.6001 C6.2,14.6001 6.9,13.9001 6.9,13.1001 C6.9,12.3001 6.2,11.6001 5.4,11.6001 L5.4,11.6001 Z" id="Fill-1"></path>
            </g>
        </g>
    </g>
</svg>
