<?xml version="1.0" encoding="UTF-8"?>
<svg width="13px" height="13px" viewBox="0 0 13 13" version="1.1" xmlns="http://www.w3.org/2000/svg" xmlns:xlink="http://www.w3.org/1999/xlink">
    <!-- Generator: Sketch 42 (36781) - http://www.bohemiancoding.com/sketch -->
    <title>Fill 1</title>
    <desc>Created with Sketch.</desc>
    <defs></defs>
    <g id="Main" stroke="none" stroke-width="1" fill="none" fill-rule="evenodd">
        <g id="Home-1" transform="translate(-1345.000000, -10.000000)" fill="#58595B">
            <g id="Super-Nav" transform="translate(-50.000000, 0.000000)">
                <g id="Cart" transform="translate(1388.000000, 0.000000)">
                    <path d="M12.683,21.182 C12.683,21.815 12.167,22.33 11.535,22.33 C10.902,22.33 10.386,21.815 10.386,21.182 C10.386,20.548 10.902,20.034 11.535,20.034 C12.167,20.034 12.683,20.548 12.683,21.182 L12.683,21.182 Z M18.272,21.182 C18.272,21.815 17.756,22.33 17.122,22.33 C16.49,22.33 15.974,21.815 15.974,21.182 C15.974,20.548 16.49,20.034 17.122,20.034 C17.756,20.034 18.272,20.548 18.272,21.182 L18.272,21.182 Z M17.879,15.086 L10.062,15.086 L9.621,12.659 L18.433,12.659 L17.879,15.086 Z M19.533,11.724 C19.424,11.597 19.266,11.524 19.1,11.524 L9.415,11.524 L9.223,10.466 C9.174,10.197 8.939,10 8.664,10 L7.568,10 C7.254,10 7,10.254 7,10.568 C7,10.881 7.254,11.135 7.568,11.135 L8.191,11.135 L9.645,19.143 C9.694,19.412 9.929,19.609 10.204,19.609 L18.09,19.609 C18.404,19.609 18.658,19.355 18.658,19.041 C18.658,18.728 18.404,18.474 18.09,18.474 L10.677,18.474 L10.268,16.221 L18.363,16.221 C18.641,16.221 18.878,16.018 18.923,15.744 L19.661,12.182 C19.687,12.018 19.64,11.85 19.533,11.724 L19.533,11.724 Z" id="Fill-1"></path>
                </g>
            </g>
        </g>
    </g>
</svg>
