<svg xmlns="http://www.w3.org/2000/svg" viewBox="0 0 17 16"><title>cart-icon-mobile_black</title><path d="M5.8,13.8a.2.2,0,1,1,0-.4c.1,0,.2,0,.2.1s-.1.3-.2.3Zm0-1.8a1.5,1.5,0,0,0,0,3,1.5,1.5,0,1,0,0-3Zm7.4,1.8a.2.2,0,1,1,.2-.2.22.22,0,0,1-.2.2Zm0-1.8a1.5,1.5,0,1,0,1.5,1.5A1.54,1.54,0,0,0,13.2,12ZM14,8.2H4.4L3.5,3.3H14.7ZM15.5,2H3.2L3.1,1A.73.73,0,0,0,2.4.4H1.1a.68.68,0,0,0-.7.7.68.68,0,0,0,.7.7h.7l1.7,9.4a.67.67,0,0,0,.7.5H14.3a.7.7,0,0,0,0-1.4H4.8l-.2-.8h10a.73.73,0,0,0,.7-.6l.9-6.2c0-.2,0-.4-.2-.5s-.3-.2-.5-.2Z" style="fill:#191919"/></svg>
