<?xml version="1.0" encoding="UTF-8" standalone="no"?>
<svg width="17px" height="16px" viewBox="0 0 17 16" version="1.1" xmlns="http://www.w3.org/2000/svg" xmlns:xlink="http://www.w3.org/1999/xlink">
    <!-- Generator: sketchtool 41.2 (35397) - http://www.bohemiancoding.com/sketch -->
    <title>1B58A5B1-92B4-475F-803F-61B641C23AB3</title>
    <desc>Created with sketchtool.</desc>
    <defs></defs>
    <g id="Main" stroke="none" stroke-width="1" fill="none" fill-rule="evenodd">
        <g id="Nav-Main---Stoves-Active" transform="translate(-1213.000000, -9.000000)" fill="#5D5D5D">
            <g id="Super-Nav">
                <g id="Cart" transform="translate(1191.000000, 7.000000)">
                    <g id="Cart-Icon" transform="translate(22.000000, 2.000000)">
                        <path d="M5.7769156,13.7567235 C5.6598212,13.7567235 5.56441914,13.6615428 5.56441914,13.5444484 C5.56441914,13.427354 5.6598212,13.3321733 5.7769156,13.3321733 C5.89401001,13.3321733 5.98941207,13.427354 5.98941207,13.5444484 C5.98941207,13.6615428 5.89401001,13.7567235 5.7769156,13.7567235 L5.7769156,13.7567235 Z M5.7769156,11.999422 C4.92493759,11.999422 4.23188923,12.6924704 4.23188923,13.5444484 C4.23188923,14.3964264 4.92493759,15.0894748 5.7769156,15.0894748 C6.62889362,15.0894748 7.32194198,14.3964264 7.32194198,13.5444484 C7.32194198,12.6924704 6.62889362,11.999422 5.7769156,11.999422 L5.7769156,11.999422 Z M13.1640453,13.7567235 C13.0467295,13.7567235 12.9515488,13.6615428 12.9515488,13.5444484 C12.9515488,13.427354 13.0467295,13.3321733 13.1640453,13.3321733 C13.2811397,13.3321733 13.3763204,13.427354 13.3763204,13.5444484 C13.3763204,13.6615428 13.2811397,13.7567235 13.1640453,13.7567235 L13.1640453,13.7567235 Z M13.1640453,11.999422 C12.3118459,11.999422 11.6187976,12.6924704 11.6187976,13.5444484 C11.6187976,14.3964264 12.3118459,15.0894748 13.1640453,15.0894748 C14.0160233,15.0894748 14.7090717,14.3964264 14.7090717,13.5444484 C14.7090717,12.6924704 14.0160233,11.999422 13.1640453,11.999422 L13.1640453,11.999422 Z M14.0394865,8.20060502 L4.37753784,8.20060502 L3.48704485,3.29769181 L14.7194752,3.29769181 L14.0394865,8.20060502 Z M15.4849051,1.96494054 L3.24510877,1.96494054 L3.06315867,0.963108253 C3.0053862,0.64635571 2.72958349,0.415929856 2.40751854,0.415929856 L1.11970142,0.415929856 C0.751816919,0.415929856 0.453436466,0.714310309 0.453436466,1.08219481 C0.453436466,1.45030067 0.751816919,1.74868112 1.11970142,1.74868112 L1.85126477,1.74868112 L3.55854105,11.1503216 C3.61631353,11.4670741 3.89211623,11.6975 4.21418119,11.6975 L14.300016,11.6975 C14.6681218,11.6975 14.9665023,11.3991195 14.9665023,11.031235 C14.9665023,10.6631292 14.6681218,10.3647487 14.300016,10.3647487 L4.7706563,10.3647487 L4.61947392,9.53335629 L14.6196461,9.53335629 C14.9523359,9.53335629 15.2338937,9.28809995 15.2797132,8.95850908 L16.1447509,2.7228446 C16.171313,2.53204048 16.1139832,2.33902286 15.9873707,2.19381694 C15.8607582,2.04838968 15.67748,1.96494054 15.4849051,1.96494054 L15.4849051,1.96494054 Z" id="Cart"></path>
                    </g>
                </g>
            </g>
        </g>
    </g>
</svg>
