<svg xmlns="http://www.w3.org/2000/svg" viewBox="0 0 432 294"><defs><style>.a{fill:#252728;}</style></defs><title>category-stoves</title><path class="a" d="M283.62,106.9c-1.44,7.42.14,14.6,4.34,19.69a20.32,20.32,0,0,0,15.7,7.27H304c8.91,0,18.22-5,24.29-13.09a1.25,1.25,0,0,0-2-1.5c-5.6,7.46-14.14,12.1-22.29,12.1-.26,0-.52,0-.78,0a4.84,4.84,0,0,1-3.12-1.88,15.81,15.81,0,0,1-2.87-7.76,54.29,54.29,0,0,0,13.27-8.31c12.59-10.54,18.52-23.7,13.49-29.94-2-2.5-5.52-3.52-10-3l-.11,0h-.48C299.75,80.69,286.42,92.46,283.62,106.9Zm27.5-23.33c5.12-1.38,9.09-.89,11,1.44,4,5-2,17.12-13.15,26.46A52.5,52.5,0,0,1,297,119.08a47.72,47.72,0,0,1,.89-11.7C300.12,96,305.77,86.14,311.12,83.57Zm-5.07.72c-4.64,4.62-8.71,12.93-10.59,22.62-1.92,9.88-1,18.73,2.25,23.45a17.12,17.12,0,0,1-7.82-5.35c-3.72-4.52-5.11-10.94-3.82-17.63A31.5,31.5,0,0,1,306,84.29Zm-61.8,31.84,17.9-30.9A11.89,11.89,0,0,1,272.64,79h19.1a1.25,1.25,0,0,1,0,2.5h-19.1a9.41,9.41,0,0,0-8.31,4.93l-17.92,30.94a1.25,1.25,0,1,1-2.16-1.25Zm-17.61-33.5A1.25,1.25,0,1,1,229,81.7l19.58,49,27.71-47.3a1.25,1.25,0,1,1,2.16,1.26l-29,49.5a1.25,1.25,0,0,1-1.08.62h-.09a1.25,1.25,0,0,1-1.07-.78Zm-100.56-1.3a1.25,1.25,0,0,0,1.25,1.25h18.73l-8.84,37.9a12,12,0,0,0,2.32,10.15,11.55,11.55,0,0,0,9.13,4.09h9.09a1.25,1.25,0,0,0,0-2.5h-9.07a9.11,9.11,0,0,1-7.21-3.18,9.56,9.56,0,0,1-1.8-8l9-38.42h9.69l-10.45,45.58a1.25,1.25,0,1,0,2.44.56l10.57-46.14h17.95a1.25,1.25,0,0,0,0-2.5H161.46l8.4-36.67a1.25,1.25,0,0,0-1.21-1.53l-12.09-.06h0a1.25,1.25,0,0,0-1.22,1l-8.69,37.29H127.33A1.25,1.25,0,0,0,126.08,81.33Zm31.47-37,9.53,0L158.9,80.08h-9.68Zm153,112.32a1.25,1.25,0,0,1-1.25,1.25h-186a1.25,1.25,0,0,1,0-2.5h186A1.25,1.25,0,0,1,310.55,156.64ZM360.5,114.2a26,26,0,0,1,5.69,24.8A28.43,28.43,0,0,1,357,152.45l-.09.07-.76.53a39.22,39.22,0,0,1-7.3,4.1,31.53,31.53,0,0,1-8,2.26c-.33,0-.64.06-1,.07l-.49,0c-.86.07-1.73.1-2.6.1A29.28,29.28,0,0,1,324.17,157a26.87,26.87,0,0,1-10-8.77,1.25,1.25,0,0,1,2.05-1.43,24.36,24.36,0,0,0,9,8A27.83,27.83,0,0,0,339.16,157l.57,0c.24,0,.48,0,.74-.05a29.07,29.07,0,0,0,7.38-2.09,36.76,36.76,0,0,0,6.84-3.85l.71-.5a26,26,0,0,0,8.4-12.24,23.5,23.5,0,0,0-5.17-22.4l-18.1-20.29a1.25,1.25,0,0,1,1.87-1.66Zm15.9-22.53,0-.12-.25-.68A15.81,15.81,0,0,0,372,85l-.19-.17,0,0a20.78,20.78,0,0,0-14.5-5.43,24.77,24.77,0,0,0-9.46,1.88A18.39,18.39,0,0,0,344.59,83a27,27,0,0,0-5.69,5,18.53,18.53,0,0,0,.7,24.28l19.33,21.37a1.25,1.25,0,1,0,1.85-1.68l-19.33-21.37a16,16,0,0,1-.64-21A24.64,24.64,0,0,1,346,85.11a15.85,15.85,0,0,1,2.83-1.52,22.36,22.36,0,0,1,8.58-1.69,21.24,21.24,0,0,1,3.1.23,28.79,28.79,0,0,1,1.21,10,13.25,13.25,0,0,0,.18,2.95l0,.11a7.65,7.65,0,0,0,7.36,5.72,7.41,7.41,0,0,0,1.74-.21,7.29,7.29,0,0,0,4.57-3.35A7.39,7.39,0,0,0,376.4,91.67Zm-3,4.4a4.8,4.8,0,0,1-3,2.21,5.1,5.1,0,0,1-6.08-3.65,10.74,10.74,0,0,1-.14-2.34,31.47,31.47,0,0,0-.87-9.32,19.09,19.09,0,0,1,7.25,4.14,17.64,17.64,0,0,1,1.8,2.11l0,0a12.67,12.67,0,0,1,1.35,2.51l.22.59A4.9,4.9,0,0,1,373.44,96.07Zm-250.09,33c-2.91,16.61-18.07,28.66-36,28.66-20.07,0-36.4-14.94-36.4-33.3a1.25,1.25,0,0,1,2.5,0c0,17,15.21,30.8,33.9,30.8,16.76,0,30.89-11.18,33.59-26.59a10.61,10.61,0,0,0,.12-1.23,21.6,21.6,0,0,0-5.39-15.31L77.86,68.65A1.25,1.25,0,0,1,79.75,67l37.77,43.45a24.09,24.09,0,0,1,6,17.07A13,13,0,0,1,123.36,129.07Zm-6.83,2.08a1.25,1.25,0,1,0,1.88-1.65L79.91,85.56a19.94,19.94,0,0,1-5.09-13v-.1c0-16,13.79-29,30.74-29a31.81,31.81,0,0,1,12.1,2.36,28.74,28.74,0,0,1,.75,10.33,13.24,13.24,0,0,0,0,3s0,.07,0,.11a7.64,7.64,0,0,0,7.44,6.11,7.43,7.43,0,0,0,1.35-.12,7.28,7.28,0,0,0,4.74-3.1,7.39,7.39,0,0,0,1.12-5.64l0-.12-.22-.69c-2.35-7-8.76-10-12-11.1-.65-.32-1.31-.63-2-.91a34.29,34.29,0,0,0-13.37-2.67c-18.33,0-33.24,14.15-33.24,31.53v.11A22.45,22.45,0,0,0,78,87.2Zm4.24-84c2.92,1.14,7.87,3.81,9.7,9.25l.19.6a4.9,4.9,0,0,1-.75,3.69,4.8,4.8,0,0,1-3.13,2,5.1,5.1,0,0,1-5.87-4,10.68,10.68,0,0,1,0-2.34,31.48,31.48,0,0,0-.38-9.33A1.29,1.29,0,0,0,120.77,47.13ZM234.15,238.26c-.17-1.29-.35-2.82-.51-4.21s-.3-2.57-1.43-2.57-1.27,1.21-1.44,2.48a12.84,12.84,0,0,1-1.61,5.4,4.18,4.18,0,0,1-3.4,1.7,4.1,4.1,0,0,1-3.25-1.5,4.26,4.26,0,0,1-.57-3.79c3.84-15.07.36-28.83-8.48-33.44a1.14,1.14,0,0,0-1.45.41c-.34.58-.1,1,.4,1.93.11.2.28.51.31.57,1.76,5.52,1.36,11.78-1.16,18.1a72.53,72.53,0,0,1-3.5,7.13c-4.46,8.32-9.51,17.76-1.71,26.47a14.73,14.73,0,0,0,1.28,1.27,16.77,16.77,0,0,0,10.62,4h.46a16.06,16.06,0,0,0,12.84-5.92c3.24-4.15,3.52-9.27,3.19-12.85C234.72,243.25,234.34,239.69,234.15,238.26Zm-4.29,16.68A14.06,14.06,0,0,1,218.3,260a14.63,14.63,0,0,1-9.27-3.45,12.63,12.63,0,0,1-1.1-1.08c-6.8-7.59-2.32-15.95,2-24a73.9,73.9,0,0,0,3.61-7.35,29.45,29.45,0,0,0,1.67-17.91c5.05,4.8,8.23,15,4.65,29a6.4,6.4,0,0,0,1,5.63,6.26,6.26,0,0,0,4.94,2.33h0a6.3,6.3,0,0,0,5.13-2.57,8.36,8.36,0,0,0,1.12-2.29l0,.2c.18,1.41.57,5.06.58,5.08C232.9,246.79,232.67,251.34,229.86,254.93ZM177.18,127.47a20.31,20.31,0,0,0,15.7,7.27h.39c13.89,0,27.49-11.88,30.33-26.49,1.44-7.42-.14-14.6-4.34-19.69a20.38,20.38,0,0,0-16.09-7.28h-.48c-13.72.27-27,12-29.85,26.48C171.4,115.19,173,122.37,177.18,127.47Zm40.15-37.32c3.72,4.52,5.11,10.94,3.82,17.63a31.45,31.45,0,0,1-20.64,23.32c4.74-4.57,8.91-13,10.82-22.84,1.95-10,1-19-2.38-23.63A17.17,17.17,0,0,1,217.33,90.15Zm-14.56-6.36H203a4.7,4.7,0,0,1,3.61,1.91c3.21,3.89,4.09,12.56,2.24,22.08-2.56,13.19-9.74,24.34-15.72,24.46l-.66,0a4.84,4.84,0,0,1-3.12-1.88c-3.21-3.89-4.09-12.56-2.24-22.08C189.68,95.13,196.8,84,202.76,83.79Zm-27.47,24.46a31.5,31.5,0,0,1,20-23.09c-4.64,4.62-8.71,12.93-10.59,22.62-1.92,9.88-1,18.73,2.25,23.45a17.13,17.13,0,0,1-7.82-5.35C175.38,121.36,174,114.93,175.29,108.25Z"/></svg>
