<?xml version="1.0" encoding="UTF-8"?>
<svg width="16px" height="13px" viewBox="0 0 16 13" version="1.1" xmlns="http://www.w3.org/2000/svg" xmlns:xlink="http://www.w3.org/1999/xlink">
    <!-- Generator: Sketch 42 (36781) - http://www.bohemiancoding.com/sketch -->
    <title>Fill 1</title>
    <desc>Created with Sketch.</desc>
    <defs></defs>
    <g id="Main" stroke="none" stroke-width="1" fill="none" fill-rule="evenodd">
        <g id="Home-1" transform="translate(-994.000000, -9.000000)" fill="#58595B">
            <g id="Super-Nav" transform="translate(-50.000000, 0.000000)">
                <g id="Cart" transform="translate(1044.000000, 0.000000)">
                    <path d="M3.8801,16.3533 C3.8801,16.6103 3.6721,16.8183 3.4151,16.8183 L1.6861,16.8183 C1.4301,16.8183 1.2221,16.6103 1.2221,16.3533 C1.2221,16.0963 1.4301,15.8883 1.6861,15.8883 L3.4151,15.8883 C3.6721,15.8883 3.8801,16.0963 3.8801,16.3533 L3.8801,16.3533 Z M3.8801,18.4873 C3.8801,18.7443 3.6721,18.9523 3.4151,18.9523 L0.4641,18.9523 C0.2081,18.9523 0.000100000001,18.7443 0.000100000001,18.4873 C0.000100000001,18.2313 0.2081,18.0233 0.4641,18.0233 L3.4151,18.0233 C3.6721,18.0233 3.8801,18.2313 3.8801,18.4873 L3.8801,18.4873 Z M3.8801,13.9613 C3.8801,14.2183 3.6721,14.4253 3.4151,14.4253 L0.4641,14.4253 C0.2081,14.4253 0.000100000001,14.2183 0.000100000001,13.9613 C0.000100000001,13.7043 0.2081,13.4973 0.4641,13.4973 L3.4151,13.4973 C3.6721,13.4973 3.8801,13.7043 3.8801,13.9613 L3.8801,13.9613 Z M8.4231,17.0093 C8.4951,17.0513 8.5191,17.1443 8.4771,17.2163 C8.4491,17.2643 8.3991,17.2913 8.3471,17.2913 C8.3201,17.2913 8.2941,17.2853 8.2711,17.2703 L6.3411,16.1403 C6.2681,16.0983 6.2451,16.0043 6.2861,15.9333 C6.3281,15.8603 6.4221,15.8363 6.4931,15.8783 L8.4231,17.0093 Z M8.6601,16.4353 C8.6311,16.4833 8.5811,16.5103 8.5291,16.5103 C8.5031,16.5103 8.4761,16.5033 8.4531,16.4893 L6.5241,15.3593 C6.4521,15.3173 6.4281,15.2243 6.4701,15.1513 C6.5111,15.0783 6.6071,15.0563 6.6761,15.0983 L8.6051,16.2283 C8.6781,16.2703 8.7011,16.3633 8.6601,16.4353 L8.6601,16.4353 Z M13.5131,16.0183 C13.5581,16.0883 13.5381,16.1823 13.4691,16.2283 L12.3271,16.9703 C12.3021,16.9863 12.2731,16.9953 12.2441,16.9953 C12.1951,16.9953 12.1471,16.9703 12.1171,16.9253 C12.0721,16.8553 12.0921,16.7623 12.1621,16.7163 L13.3031,15.9743 C13.3731,15.9303 13.4681,15.9493 13.5131,16.0183 L13.5131,16.0183 Z M13.9261,14.9533 L11.4001,16.5953 C11.3741,16.6123 11.3451,16.6203 11.3171,16.6203 C11.2681,16.6203 11.2191,16.5953 11.1901,16.5513 C11.1451,16.4813 11.1641,16.3873 11.2351,16.3413 L13.7611,14.6993 C13.8311,14.6543 13.9251,14.6743 13.9701,14.7433 C14.0161,14.8133 13.9951,14.9073 13.9261,14.9533 L13.9261,14.9533 Z M8.0491,11.3783 L11.9571,13.9183 L10.1421,15.0983 L6.2341,12.5583 L8.0491,11.3783 Z M10.1421,10.0183 L14.0501,12.5583 L12.2351,13.7383 L8.3271,11.1983 L10.1421,10.0183 Z M10.6071,15.9043 L14.4381,13.4143 L14.4381,17.9403 L10.6071,20.4303 L10.6071,15.9043 Z M5.8461,13.4143 L9.6781,15.9043 L9.6781,20.4303 L5.8461,17.9403 L5.8461,13.4143 Z M15.3571,18.2403 C15.3591,18.2233 15.3661,18.2093 15.3661,18.1923 L15.3661,12.5583 C15.3661,12.4843 15.3451,12.4163 15.3151,12.3543 C15.3061,12.3363 15.2931,12.3233 15.2811,12.3063 C15.2531,12.2633 15.2201,12.2273 15.1801,12.1963 C15.1701,12.1883 15.1651,12.1753 15.1541,12.1683 L10.3951,9.0753 C10.2401,8.9753 10.0431,8.9753 9.8891,9.0753 L5.1291,12.1683 C5.1181,12.1753 5.1141,12.1883 5.1041,12.1963 C5.0641,12.2273 5.0301,12.2633 5.0021,12.3063 C4.9911,12.3233 4.9781,12.3363 4.9691,12.3543 C4.9391,12.4163 4.9181,12.4843 4.9181,12.5583 L4.9181,18.1923 C4.9181,18.2093 4.9251,18.2233 4.9271,18.2403 C4.9301,18.2713 4.9361,18.3003 4.9451,18.3303 C4.9541,18.3593 4.9651,18.3853 4.9801,18.4123 C4.9941,18.4373 5.0091,18.4593 5.0271,18.4833 C5.0481,18.5073 5.0701,18.5293 5.0961,18.5493 C5.1081,18.5593 5.1151,18.5733 5.1291,18.5823 L9.8891,21.6763 C9.8971,21.6813 9.9071,21.6793 9.9161,21.6843 C9.9841,21.7223 10.0581,21.7503 10.1421,21.7503 C10.2261,21.7503 10.3001,21.7223 10.3671,21.6843 C10.3761,21.6793 10.3871,21.6813 10.3951,21.6763 L15.1541,18.5823 C15.1681,18.5733 15.1761,18.5593 15.1891,18.5493 C15.2131,18.5293 15.2351,18.5073 15.2561,18.4833 C15.2751,18.4593 15.2901,18.4373 15.3041,18.4123 C15.3181,18.3853 15.3291,18.3593 15.3381,18.3303 C15.3481,18.3003 15.3541,18.2713 15.3571,18.2403 L15.3571,18.2403 Z" id="Fill-1"></path>
                </g>
            </g>
        </g>
    </g>
</svg>
