<svg version="1.1" xmlns="http://www.w3.org/2000/svg" xmlns:xlink="http://www.w3.org/1999/xlink" viewBox="0 0 55 63">
  <style type="text/css">
    .st0{fill:#58595B;}
  </style>
	<path class="st0" d="M2.7,60.8c0.8-12.9,11.6-23.3,24.8-23.3c13.1,0,24,10.4,24.7,23.3l2.7,2.2c0.1-0.2,0.1-0.4,0.1-0.6
		c0-0.1,0-0.2,0-0.2C54.9,47,42.6,34.8,27.5,34.8C12.4,34.8,0,47.2,0,62.4c0,0.2,0.1,0.4,0.1,0.6L2.7,60.8z"/>
	<path class="st0" d="M27.5,32.3c8.9,0,16.1-7.2,16.1-16.1S36.4,0,27.5,0S11.4,7.2,11.4,16.1S18.6,32.3,27.5,32.3z M27.5,2.7
		c7.3,0,13.4,6.1,13.4,13.4s-6,13.4-13.4,13.4s-13.4-6.1-13.4-13.4S20.2,2.7,27.5,2.7z"/>  
</svg>
