<svg xmlns="http://www.w3.org/2000/svg" viewBox="0 0 225 484"><defs><style>.a{fill:#fff;}.b{fill:#00b2b0;}.c{fill:#3b3d3e;}.d{fill:#5c5f61;}.e{fill:#d0d2d3;}.f{fill:#009c9a;}.g{fill:#009593;}.h{fill:#f1f1f2;}.i{opacity:0.47;}.j{fill:#24272a;}.k{fill:#e6e7e8;}.l{fill:#cbcbcc;}.m{fill:none;stroke:#231f20;stroke-miterlimit:10;stroke-width:0.14px;}.n{fill:#231f20;}</style></defs><title>kits-solarhome-620</title><path class="a" d="M153.39,364.25s-.38,5.76,3.06,8.3c1.57,1.16,34.33,0,34.33,0a9.11,9.11,0,0,0,2.57-4.65,32.61,32.61,0,0,0,.49-3.65Z"/><path class="a" d="M191.72,371.58a125.75,125.75,0,0,1-36.19,0,6.87,6.87,0,0,0,.92.95,11.46,11.46,0,0,0,4.31,2.09,44.23,44.23,0,0,0,12.86,1.5,44.13,44.13,0,0,0,12.85-1.5,11.46,11.46,0,0,0,4.31-2.09A7.8,7.8,0,0,0,191.72,371.58Z"/><path class="b" d="M194.44,362.35h3.14a.32.32,0,0,1,.31.22l.35,1.48a.19.19,0,0,1-.2.23h-4.53"/><path class="c" d="M198,364.55h-4.53a.27.27,0,1,1,0-.53H198l-.33-1.39-3.19,0a.27.27,0,1,1,0-.53h3.14a.57.57,0,0,1,.56.43l.36,1.48a.44.44,0,0,1-.09.38A.47.47,0,0,1,198,364.55Zm0-.44Z"/><path class="c" d="M173,376.41a43.24,43.24,0,0,1-12.32-1.52,11.85,11.85,0,0,1-4.4-2.14c-2.08-1.78-3.08-4.48-3.15-8.49a.26.26,0,0,1,.07-.19.27.27,0,0,1,.19-.08h40.45a.27.27,0,0,1,.19.08.26.26,0,0,1,.07.19c-.07,4-1.07,6.71-3.15,8.49a11.85,11.85,0,0,1-4.4,2.14,43.93,43.93,0,0,1-12.94,1.52Zm.61-.53a43.57,43.57,0,0,0,12.79-1.49,11.52,11.52,0,0,0,4.21-2c1.91-1.63,2.86-4.13,3-7.83H153.66c.11,3.7,1.05,6.2,3,7.83a11.52,11.52,0,0,0,4.21,2A43.54,43.54,0,0,0,173.61,375.88Z"/><path class="a" d="M173.62,348a4.21,4.21,0,0,1,1.19.08v3.83c0,.49.92,1.23,1.26,1.38s.32.85.32.85a38.55,38.55,0,0,1-5.55,0s0-.7.32-.85,1.26-.89,1.26-1.38V348A4.25,4.25,0,0,1,173.62,348Z"/><path class="c" d="M173.62,354.45c-3,0-3-.07-3-.36,0-.14,0-.88.47-1.09s1.11-.82,1.11-1.14V348c0-.28.13-.35,1.46-.35s1.45.07,1.45.35v3.83c0,.32.77,1,1.11,1.14s.48.95.48,1.1S176.66,354.45,173.62,354.45Zm-2.51-.58c.36,0,1.22.06,2.51.06s2.14,0,2.5-.06c0-.19-.08-.36-.15-.39-.37-.16-1.42-1-1.42-1.62v-3.62c-.18,0-.51,0-.93,0s-.75,0-.94,0v3.62c0,.66-1.05,1.46-1.42,1.62C171.18,353.52,171.13,353.69,171.11,353.87Z"/><path class="c" d="M171.83,355a.26.26,0,0,1-.26-.26v-.55a.27.27,0,0,1,.53,0v.55A.26.26,0,0,1,171.83,355Z"/><path class="c" d="M177.09,356.33h0c-.33-.05-1.62-.11-3.43-.11s-3.1.06-3.43.11a.4.4,0,0,1-.31-.13.33.33,0,0,1,0-.33l.59-1c0-.23.29-.33,3.18-.33s3.15.1,3.17.33l.58,1a.37.37,0,0,1,0,.34A.33.33,0,0,1,177.09,356.33Zm-3.47-.63c1.29,0,2.45,0,3.09.07l-.36-.64c-.28,0-1.23-.09-2.73-.09s-2.46,0-2.74.09l-.36.64C171.16,355.73,172.32,355.7,173.62,355.7Z"/><path class="c" d="M175.4,355a.26.26,0,0,1-.27-.26v-.55a.27.27,0,0,1,.53,0v.55A.26.26,0,0,1,175.4,355Z"/><path class="b" d="M173.62,356.13c21.42,0,21.31,6.15,21.43,7.92a.22.22,0,0,1-.22.23H152.4a.22.22,0,0,1-.22-.23C152.3,362.28,152.19,356.13,173.62,356.13Z"/><path class="c" d="M194.83,364.55H152.4a.48.48,0,0,1-.35-.16.5.5,0,0,1-.14-.36v-.13c.13-2,.51-8,21.7-8s21.56,6.05,21.69,8V364a.53.53,0,0,1-.13.36A.5.5,0,0,1,194.83,364.55Zm-21.21-8.16c-20.7,0-21.05,5.68-21.17,7.55v.12l21.18,0h21.21l-.05-.08C194.67,362.07,194.31,356.39,173.62,356.39Z"/><path class="c" d="M173.62,348.16a.27.27,0,0,1-.27-.26V293.31a.27.27,0,1,1,.53,0V347.9A.26.26,0,0,1,173.62,348.16Z"/><path class="a" d="M135.4,319.25s-.36,5.59,3,8.05c1.53,1.13,33.35,0,33.35,0a8.84,8.84,0,0,0,2.5-4.51,32.46,32.46,0,0,0,.47-3.54Z"/><path class="a" d="M172.63,326.36a122.48,122.48,0,0,1-35.15,0,6.94,6.94,0,0,0,.89.91,11.15,11.15,0,0,0,4.18,2A42.77,42.77,0,0,0,155,330.79a42.69,42.69,0,0,0,12.49-1.46,11.12,11.12,0,0,0,4.19-2A6.72,6.72,0,0,0,172.63,326.36Z"/><path class="b" d="M175.27,317.39h3a.3.3,0,0,1,.3.22l.34,1.44a.19.19,0,0,1-.2.22h-4.4"/><path class="c" d="M178.76,319.53h-4.4a.26.26,0,0,1,0-.51h4.33l-.32-1.35-3.1,0a.26.26,0,0,1-.26-.26.26.26,0,0,1,.26-.25h3a.56.56,0,0,1,.55.41l.34,1.44a.45.45,0,0,1-.08.37A.47.47,0,0,1,178.76,319.53Zm0-.42Z"/><path class="c" d="M155.64,331.05H155a42.92,42.92,0,0,1-12.56-1.47,11.55,11.55,0,0,1-4.27-2.08c-2-1.73-3-4.35-3.06-8.25a.21.21,0,0,1,.07-.18.25.25,0,0,1,.18-.08h39.29a.25.25,0,0,1,.18.08.24.24,0,0,1,.07.18c-.06,3.9-1,6.52-3.06,8.25a11.63,11.63,0,0,1-4.27,2.08A42,42,0,0,1,155.64,331.05Zm-.6-.51a42,42,0,0,0,12.42-1.45,11.11,11.11,0,0,0,4.09-2c1.86-1.59,2.78-4,2.88-7.61H135.66c.1,3.6,1,6,2.88,7.61a11.11,11.11,0,0,0,4.09,2A42.11,42.11,0,0,0,155,330.54Z"/><path class="c" d="M155,309.73c-2.95,0-2.95-.07-2.95-.36,0-.13,0-.85.47-1.06.32-.14,1.07-.79,1.07-1.11v-3.72c0-.26.13-.33,1.41-.33s1.42.07,1.42.33v3.72c0,.32.74,1,1.07,1.11s.47.93.47,1.07S158,309.73,155,309.73Zm-2.43-.57c.35,0,1.19.06,2.43.06s2.08,0,2.44-.06c0-.18-.08-.35-.15-.38-.35-.15-1.38-.93-1.38-1.58v-3.51c-.18,0-.49,0-.91,0s-.72,0-.9,0v3.51c0,.65-1,1.43-1.38,1.58C152.69,308.81,152.63,309,152.61,309.16Z"/><path class="c" d="M153.31,310.29a.25.25,0,0,1-.25-.25v-.54a.26.26,0,0,1,.51,0V310A.25.25,0,0,1,153.31,310.29Z"/><path class="c" d="M158.42,311.55h0c-.32-.05-1.57-.1-3.34-.1s-3,.05-3.33.1a.37.37,0,0,1-.29-.13.29.29,0,0,1,0-.31l.57-1c0-.22.28-.32,3.08-.32s3.06.1,3.09.32l.56,1a.35.35,0,0,1,0,.33A.31.31,0,0,1,158.42,311.55Zm-3.38-.61c1.26,0,2.39,0,3,.06l-.35-.62a39.21,39.21,0,0,0-5.31,0L152,311C152.66,311,153.79,310.94,155,310.94Z"/><path class="c" d="M156.77,310.29a.25.25,0,0,1-.25-.25v-.54a.26.26,0,0,1,.51,0V310A.25.25,0,0,1,156.77,310.29Z"/><path class="b" d="M155,311.36c20.81,0,20.71,6,20.83,7.68a.21.21,0,0,1-.22.23H134.44a.21.21,0,0,1-.22-.23C134.34,317.32,134.24,311.36,155,311.36Z"/><path class="c" d="M175.65,319.53H134.44a.47.47,0,0,1-.35-.15A.48.48,0,0,1,134,319v-.12c.12-1.93.49-7.81,21.06-7.81s21,5.88,21.07,7.81V319a.46.46,0,0,1-.12.35A.47.47,0,0,1,175.65,319.53ZM155,311.61c-20.09,0-20.44,5.52-20.56,7.33v.12L155,319h20.61l-.05-.08C175.49,317.13,175.14,311.61,155,311.61Z"/><path class="c" d="M155,303.61a.25.25,0,0,1-.25-.25V293.31a.26.26,0,1,1,.51,0v10.05A.25.25,0,0,1,155,303.61Z"/><path class="d" d="M84.9,313.87,84,312.2l-7.43-13.65a2.27,2.27,0,0,0-2-1.19H49.89a2.25,2.25,0,0,0-2,1.19L40.46,312.2l-.9,1.67a3.22,3.22,0,1,0,5.67,3.07l2.53-5.13,4.52-8.59A2.41,2.41,0,0,1,54.4,302h4.91a2.2,2.2,0,0,0,1.63-.95l1.26-1.72L63.51,301a2.21,2.21,0,0,0,1.63.95h4.91a2.42,2.42,0,0,1,2.13,1.27l4.51,8.59,2.53,5.13a3.23,3.23,0,0,0,5.68-3.07ZM51,302.62a1.5,1.5,0,0,1-2.36.19,1.37,1.37,0,0,1,.41-2.17c.08-.28,0-.53.12-.85a.85.85,0,0,1,.25-.43.52.52,0,0,1,.76.11,1.46,1.46,0,0,1,.23.79,1.14,1.14,0,0,0,.28.73,2.08,2.08,0,0,1,.27.32A1.36,1.36,0,0,1,51,302.62ZM76,302.24a1.46,1.46,0,0,1-.64,1.11,1.41,1.41,0,0,1-2-.66,1.68,1.68,0,0,1,.4-1.83A1.59,1.59,0,0,0,74,300c0-.36.06-.74.49-.85.83-.22.68,1,.86,1.47S76.05,301.54,76,302.24Z"/><path class="a" d="M84.9,313.87,84,312.2l-7.43-13.65a2.27,2.27,0,0,0-2-1.19H49.89a2.25,2.25,0,0,0-2,1.19L40.46,312.2l-.9,1.67a3.22,3.22,0,1,0,5.67,3.07l2.53-5.13,4.52-8.59A2.41,2.41,0,0,1,54.4,302h4.91a2.2,2.2,0,0,0,1.63-.95l.74-1a.67.67,0,0,1,1.06,0l.77,1a2.21,2.21,0,0,0,1.63.95h4.91a2.42,2.42,0,0,1,2.13,1.27l4.51,8.59,2.53,5.13a3.23,3.23,0,0,0,5.68-3.07ZM51,302.62a1.5,1.5,0,0,1-2.36.19,1.37,1.37,0,0,1,.41-2.17c.08-.28,0-.53.12-.85a.85.85,0,0,1,.25-.43.52.52,0,0,1,.76.11,1.46,1.46,0,0,1,.23.79,1.14,1.14,0,0,0,.28.73,2.08,2.08,0,0,1,.27.32A1.36,1.36,0,0,1,51,302.62ZM76,302.24a1.46,1.46,0,0,1-.64,1.11,1.41,1.41,0,0,1-2-.66,1.68,1.68,0,0,1,.4-1.83A1.59,1.59,0,0,0,74,300c0-.36.06-.74.49-.85.83-.22.68,1,.86,1.47S76.05,301.54,76,302.24Z"/><circle class="d" cx="42.42" cy="315.56" r="0.62"/><circle class="d" cx="81.89" cy="315.56" r="0.62"/><path class="c" d="M82.06,318.94A3.5,3.5,0,0,1,79,317.1L76.44,312l-4.51-8.58a2.13,2.13,0,0,0-1.88-1.12H65.14a2.46,2.46,0,0,1-1.83-1.05l-1.1-1.44-1.05,1.42a2.48,2.48,0,0,1-1.85,1.07H54.4a2.13,2.13,0,0,0-1.88,1.12L48,312l-2.53,5.12a3.52,3.52,0,0,1-3.09,1.85,3.45,3.45,0,0,1-1.66-.43,3.51,3.51,0,0,1-1.42-4.75l8.34-15.31a2.54,2.54,0,0,1,2.24-1.34H74.57a2.54,2.54,0,0,1,2.23,1.34l8.34,15.31h0a3.51,3.51,0,0,1-3.08,5.18ZM62.2,299a.27.27,0,0,1,.22.11l1.31,1.72a1.9,1.9,0,0,0,1.41.84h4.91a2.69,2.69,0,0,1,2.37,1.42l4.51,8.59,2.54,5.13A2.95,2.95,0,1,0,84.65,314l-8.34-15.31a2,2,0,0,0-1.74-1.05H49.89a2,2,0,0,0-1.75,1L39.8,314A3,3,0,0,0,41,318a3,3,0,0,0,1.4.35,3,3,0,0,0,2.6-1.54l2.53-5.12,4.51-8.6a2.7,2.7,0,0,1,2.37-1.42h4.91a1.89,1.89,0,0,0,1.42-.86L62,299.15a.27.27,0,0,1,.22-.12Z"/><path class="c" d="M82.06,318.94A3.5,3.5,0,0,1,79,317.1L76.44,312l-4.51-8.58a2.13,2.13,0,0,0-1.88-1.12H65.14a2.46,2.46,0,0,1-1.83-1.05l-.79-1a.42.42,0,0,0-.31-.15h0a.37.37,0,0,0-.31.16l-.74,1a2.48,2.48,0,0,1-1.85,1.07H54.4a2.13,2.13,0,0,0-1.88,1.12L48,312l-2.53,5.12a3.52,3.52,0,0,1-3.09,1.85,3.45,3.45,0,0,1-1.66-.43,3.51,3.51,0,0,1-1.42-4.75l8.34-15.31a2.54,2.54,0,0,1,2.24-1.34H74.57a2.54,2.54,0,0,1,2.23,1.34l8.34,15.31h0a3.51,3.51,0,0,1-3.08,5.18ZM62.21,299.48a.92.92,0,0,1,.75.37l.77,1a1.9,1.9,0,0,0,1.41.84h4.91a2.69,2.69,0,0,1,2.37,1.42l4.51,8.59,2.54,5.13A2.95,2.95,0,1,0,84.65,314l-8.34-15.31a2,2,0,0,0-1.74-1.05H49.89a2,2,0,0,0-1.75,1L39.8,314A3,3,0,0,0,41,318a3,3,0,0,0,1.4.35,3,3,0,0,0,2.6-1.54l2.53-5.12,4.51-8.6a2.7,2.7,0,0,1,2.37-1.42h4.91a1.89,1.89,0,0,0,1.42-.86l.72-1a.93.93,0,0,1,.75-.38Z"/><path class="c" d="M49.77,303.71a1.76,1.76,0,0,1-.9-3.27v-.85a.9.9,0,0,1,1.79,0v.85a1.75,1.75,0,0,1-.89,3.27Zm0-4.46a.34.34,0,0,0-.34.34v1a.28.28,0,0,1-.16.25,1.2,1.2,0,1,0,1,0,.26.26,0,0,1-.16-.25v-1A.34.34,0,0,0,49.77,299.25Z"/><path class="c" d="M42.42,316.49a.9.9,0,1,1,.89-.9A.9.9,0,0,1,42.42,316.49Zm0-1.24a.34.34,0,0,0,0,.68.34.34,0,1,0,0-.68Z"/><path class="c" d="M74.54,303.71a1.76,1.76,0,0,1-.9-3.27v-.85a.9.9,0,0,1,1.79,0v.85a1.75,1.75,0,0,1-.89,3.27Zm0-4.46a.34.34,0,0,0-.34.34v1a.28.28,0,0,1-.16.25,1.2,1.2,0,1,0,1,0,.26.26,0,0,1-.16-.25v-1A.34.34,0,0,0,74.54,299.25Zm-.62,1.36h0Z"/><path class="c" d="M81.89,316.49a.9.9,0,1,1,0-1.79.9.9,0,0,1,0,1.79Zm0-1.24a.34.34,0,1,0,.34.34A.34.34,0,0,0,81.89,315.25Z"/><path class="e" d="M64.05,311.81c5.73.06,9.07.19,16.06.67a14.24,14.24,0,0,1,13.22,14.21l0,49.14A14.23,14.23,0,0,1,79.16,390.1H48.93a14.23,14.23,0,0,1-14.21-14.27l0-46.58c0-7.48,5.78-16.25,13.22-16.77,7-.48,10.33-.61,16.07-.67"/><path class="b" d="M62.29,309.89c6.44.07,9.92.22,18.65.85a12.16,12.16,0,0,1,11.31,12.11l0,52.11a12.15,12.15,0,0,1-12.15,12.16H44.43A12.15,12.15,0,0,1,32.28,375l0-52.11a12.16,12.16,0,0,1,11.31-12.11c8.73-.63,12.21-.78,18.66-.85"/><path class="f" d="M36.66,367.55H88.1v5.91a7.87,7.87,0,0,1-7.87,7.87s-12.54.62-17.94.62-17.95-.62-17.95-.62a7.87,7.87,0,0,1-7.87-7.87v-5.91Z"/><path class="g" d="M39,374.77v-5.58H88.1v-1.64H36.47v5.91a7.89,7.89,0,0,0,6.36,7.73A7.4,7.4,0,0,1,39,374.77Z"/><path class="a" d="M62.29,317.79c7.57,0,15,.51,20.37,1a8.84,8.84,0,0,1,8,8.81v14.59l-1.56.77H35.43l-1.56-.77V327.59a8.85,8.85,0,0,1,8-8.81C47.28,318.3,54.71,317.79,62.29,317.79Z"/><path class="h" d="M88.26,342.79v-15.2a5.88,5.88,0,0,0-5.38-5.89c-5-.45-12.8-1-20.44-1s-15.48.53-20.44,1a5.88,5.88,0,0,0-5.38,5.89v15.2Z"/><path class="c" d="M80.14,387.4H44.43A12.44,12.44,0,0,1,32,375l0-52.11a12.5,12.5,0,0,1,11.57-12.39c8.72-.62,12.21-.78,18.67-.84h0c6.47.06,9.95.22,18.67.84a12.5,12.5,0,0,1,11.57,12.39l0,52.11A12.44,12.44,0,0,1,80.14,387.4ZM62.29,310.17c-6.46.06-9.94.22-18.64.84a11.94,11.94,0,0,0-11,11.84L32.55,375a11.88,11.88,0,0,0,11.88,11.88H80.14A11.88,11.88,0,0,0,92,375l0-52.11a11.94,11.94,0,0,0-11-11.84C72.22,310.39,68.74,310.23,62.29,310.17Z"/><path class="c" d="M62.29,382.13c-5.35,0-17.83-.61-17.95-.62-4.75-.39-8.05-3.7-8.05-8.05V343.12a.18.18,0,0,1,.18-.18.18.18,0,0,1,.17.18v30.34c0,4.22,3.1,7.32,7.72,7.7.12,0,12.59.61,17.93.61s17.8-.61,17.93-.61c4.46-.35,7.71-3.58,7.71-7.7V343.12a.18.18,0,0,1,.18-.18.18.18,0,0,1,.17.18v30.34c0,4.31-3.38,7.69-8,8.05C80.11,381.52,67.63,382.13,62.29,382.13Z"/><path class="c" d="M88.07,367.79H36.66a.24.24,0,1,1,0-.48H88.07a.24.24,0,0,1,0,.48Z"/><polygon class="d" points="34.3 352.41 33.1 351.72 33.1 343.22 34.3 343.9 34.3 352.41"/><polygon class="d" points="90.42 350.2 91.62 349.51 91.62 343.77 90.42 344.46 90.42 350.2"/><path class="c" d="M90.41,350.33l-.06,0a.13.13,0,0,1-.06-.11v-5.74a.14.14,0,0,1,.06-.12l1.2-.68a.11.11,0,0,1,.13,0,.12.12,0,0,1,.07.11v5.74a.12.12,0,0,1-.07.11l-1.2.69Zm.13-5.8V350l.95-.54V344Z"/><polygon class="d" points="90.42 358.05 91.62 357.36 91.62 351.62 90.42 352.31 90.42 358.05"/><path class="c" d="M90.41,358.18l-.06,0a.11.11,0,0,1-.06-.11v-5.74a.11.11,0,0,1,.06-.11l1.2-.69a.15.15,0,0,1,.13,0,.14.14,0,0,1,.07.11v5.74a.15.15,0,0,1-.07.12l-1.2.68Zm.13-5.8v5.45l.95-.54v-5.45Z"/><g class="i"><path class="j" d="M45.3,358.59a.22.22,0,1,0-.21.22.21.21,0,0,0,.21-.22Z"/><path class="j" d="M45.3,359.47a.22.22,0,1,0-.21.22.21.21,0,0,0,.21-.22Z"/><path class="j" d="M44.54,359a.22.22,0,1,0-.21.22.21.21,0,0,0,.21-.22Z"/><path class="j" d="M44.54,358.15a.22.22,0,1,0-.21.22.21.21,0,0,0,.21-.22Z"/><path class="j" d="M45.3,357.71a.21.21,0,0,0-.21-.21.21.21,0,0,0-.22.21.21.21,0,0,0,.22.22.21.21,0,0,0,.21-.22Z"/><path class="j" d="M46.06,358.15a.22.22,0,1,0-.21.22.21.21,0,0,0,.21-.22Z"/><path class="j" d="M46.06,359a.22.22,0,1,0-.21.22.21.21,0,0,0,.21-.22Z"/><path class="j" d="M45.3,360.35a.22.22,0,1,0-.21.22.21.21,0,0,0,.21-.22Z"/><path class="j" d="M44.54,360.17a.22.22,0,1,0-.44,0,.22.22,0,0,0,.44,0Z"/><path class="j" d="M43.93,359.69a.22.22,0,1,0-.22.22.22.22,0,0,0,.22-.22Z"/><path class="j" d="M43.59,359a.22.22,0,0,0-.22-.22.22.22,0,0,0,0,.44.22.22,0,0,0,.22-.22Z"/><path class="j" d="M43.59,358.2a.22.22,0,0,0-.22-.22.22.22,0,1,0,0,.44.22.22,0,0,0,.22-.22Z"/><path class="j" d="M43.93,357.5a.22.22,0,1,0-.22.22.22.22,0,0,0,.22-.22Z"/><path class="j" d="M44.54,357a.22.22,0,1,0-.22.22.22.22,0,0,0,.22-.22Z"/><path class="j" d="M45.3,356.84a.22.22,0,1,0-.21.22.21.21,0,0,0,.21-.22Z"/><path class="j" d="M46.07,357a.22.22,0,1,0-.22.22.22.22,0,0,0,.22-.22Z"/><path class="j" d="M46.68,357.5a.22.22,0,1,0-.22.22.22.22,0,0,0,.22-.22Z"/><path class="j" d="M47,358.2a.22.22,0,1,0-.22.22.22.22,0,0,0,.22-.22Z"/><path class="j" d="M47,359a.22.22,0,1,0-.22.22A.22.22,0,0,0,47,359Z"/><path class="j" d="M46.68,359.69a.22.22,0,1,0-.22.22.22.22,0,0,0,.22-.22Z"/><path class="j" d="M46.07,360.17a.22.22,0,1,0-.44,0,.22.22,0,0,0,.44,0Z"/><path class="j" d="M45.3,361.23a.21.21,0,0,0-.21-.22.21.21,0,0,0-.22.22.22.22,0,1,0,.43,0Z"/><path class="j" d="M44.49,361.1a.22.22,0,1,0-.22.22.22.22,0,0,0,.22-.22Z"/><path class="j" d="M43.76,360.72a.22.22,0,1,0-.22.22.22.22,0,0,0,.22-.22Z"/><path class="j" d="M43.17,360.14a.22.22,0,1,0-.21.22.21.21,0,0,0,.21-.22Z"/><path class="j" d="M42.8,359.41a.22.22,0,1,0-.22.22.22.22,0,0,0,.22-.22Z"/><path class="j" d="M42.67,358.59a.22.22,0,1,0-.22.22.22.22,0,0,0,.22-.22Z"/><path class="j" d="M42.8,357.78a.22.22,0,1,0-.22.22.22.22,0,0,0,.22-.22Z"/><path class="j" d="M43.17,357a.21.21,0,0,0-.21-.21.21.21,0,0,0-.22.21.21.21,0,0,0,.22.22.21.21,0,0,0,.21-.22Z"/><path class="j" d="M43.76,356.46a.22.22,0,1,0-.22.22.22.22,0,0,0,.22-.22Z"/><path class="j" d="M44.49,356.09a.22.22,0,1,0-.22.22.22.22,0,0,0,.22-.22Z"/><path class="j" d="M45.3,356a.22.22,0,1,0-.21.22.21.21,0,0,0,.21-.22Z"/><path class="j" d="M46.12,356.09a.22.22,0,1,0-.22.22.22.22,0,0,0,.22-.22Z"/><path class="j" d="M46.85,356.46a.22.22,0,1,0-.22.22.22.22,0,0,0,.22-.22Z"/><path class="j" d="M47.43,357a.21.21,0,0,0-.21-.21A.21.21,0,0,0,47,357a.21.21,0,0,0,.22.22.21.21,0,0,0,.21-.22Z"/><path class="j" d="M47.81,357.78a.22.22,0,1,0-.22.22.22.22,0,0,0,.22-.22Z"/><path class="j" d="M47.94,358.59a.22.22,0,1,0-.22.22.22.22,0,0,0,.22-.22Z"/><path class="j" d="M47.81,359.41a.22.22,0,1,0-.22.22.22.22,0,0,0,.22-.22Z"/><path class="j" d="M47.43,360.14a.22.22,0,1,0-.21.22.21.21,0,0,0,.21-.22Z"/><path class="j" d="M46.85,360.72a.22.22,0,1,0-.22.22.22.22,0,0,0,.22-.22Z"/><path class="j" d="M46.12,361.1a.22.22,0,1,0-.22.22.22.22,0,0,0,.22-.22Z"/><path class="j" d="M45.3,362.1a.22.22,0,1,0-.21.22.21.21,0,0,0,.21-.22Z"/><path class="j" d="M44.46,362a.22.22,0,1,0-.21.22.21.21,0,0,0,.21-.22Z"/><path class="j" d="M43.67,361.7a.22.22,0,0,0-.22-.22.22.22,0,0,0,0,.44.22.22,0,0,0,.22-.22Z"/><path class="j" d="M43,361.22a.22.22,0,1,0-.22.22.22.22,0,0,0,.22-.22Z"/><path class="j" d="M42.42,360.59a.22.22,0,0,0-.22-.22.22.22,0,0,0,0,.44.22.22,0,0,0,.22-.22Z"/><path class="j" d="M42,359.84a.22.22,0,1,0-.22.22.22.22,0,0,0,.22-.22Z"/><path class="j" d="M41.82,359a.22.22,0,0,0-.44,0,.22.22,0,1,0,.44,0Z"/><path class="j" d="M41.82,358.17a.22.22,0,1,0-.22.22.22.22,0,0,0,.22-.22Z"/><path class="j" d="M42,357.35a.22.22,0,1,0-.22.22.22.22,0,0,0,.22-.22Z"/><path class="j" d="M42.42,356.6a.22.22,0,0,0-.22-.22.22.22,0,0,0,0,.44.22.22,0,0,0,.22-.22Z"/><path class="j" d="M43,356a.22.22,0,1,0-.22.22A.21.21,0,0,0,43,356Z"/><path class="j" d="M43.67,355.48a.22.22,0,0,0-.22-.22.22.22,0,0,0-.22.22.22.22,0,0,0,.22.22.21.21,0,0,0,.22-.22Z"/><path class="j" d="M44.46,355.18a.22.22,0,1,0-.43,0,.21.21,0,0,0,.22.22.21.21,0,0,0,.21-.22Z"/><path class="j" d="M45.3,355.08a.22.22,0,1,0-.21.22.21.21,0,0,0,.21-.22Z"/><path class="j" d="M46.14,355.18a.22.22,0,1,0-.43,0,.21.21,0,0,0,.22.22.21.21,0,0,0,.21-.22Z"/><path class="j" d="M46.94,355.48a.22.22,0,1,0-.44,0,.22.22,0,0,0,.44,0Z"/><path class="j" d="M47.63,356a.22.22,0,1,0-.22.22.21.21,0,0,0,.22-.22Z"/><path class="j" d="M48.19,356.6a.22.22,0,1,0-.22.22.22.22,0,0,0,.22-.22Z"/><path class="j" d="M48.59,357.35a.22.22,0,1,0-.22.22.22.22,0,0,0,.22-.22Z"/><path class="j" d="M48.79,358.17a.22.22,0,1,0-.22.22.22.22,0,0,0,.22-.22Z"/><path class="j" d="M48.79,359a.22.22,0,0,0-.44,0,.22.22,0,0,0,.44,0Z"/><path class="j" d="M48.59,359.84a.22.22,0,1,0-.22.22.22.22,0,0,0,.22-.22Z"/><path class="j" d="M48.19,360.59a.22.22,0,1,0-.22.22.22.22,0,0,0,.22-.22Z"/><path class="j" d="M47.63,361.22a.22.22,0,1,0-.22.22.22.22,0,0,0,.22-.22Z"/><path class="j" d="M46.94,361.7a.22.22,0,1,0-.22.22.22.22,0,0,0,.22-.22Z"/><path class="j" d="M46.14,362a.22.22,0,1,0-.21.22.21.21,0,0,0,.21-.22Z"/><path class="j" d="M45.3,363a.22.22,0,1,0-.21.22.21.21,0,0,0,.21-.22Z"/><path class="j" d="M44.45,362.9a.22.22,0,1,0-.22.22.22.22,0,0,0,.22-.22Z"/><path class="j" d="M43.63,362.65a.22.22,0,0,0-.22-.22.22.22,0,0,0,0,.44.22.22,0,0,0,.22-.22Z"/><path class="j" d="M42.87,362.24a.22.22,0,1,0-.22.22.22.22,0,0,0,.22-.22Z"/><path class="j" d="M42.2,361.7a.22.22,0,1,0-.44,0,.22.22,0,0,0,.44,0Z"/><path class="j" d="M41.66,361a.22.22,0,1,0-.22.22.22.22,0,0,0,.22-.22Z"/><path class="j" d="M41.25,360.27a.22.22,0,1,0-.22.22.22.22,0,0,0,.22-.22Z"/><path class="j" d="M41,359.45a.22.22,0,1,0-.22.22.22.22,0,0,0,.22-.22Z"/><path class="j" d="M40.92,358.59a.22.22,0,1,0-.22.22.22.22,0,0,0,.22-.22Z"/><path class="j" d="M41,357.74a.22.22,0,1,0-.22.22.22.22,0,0,0,.22-.22Z"/><path class="j" d="M41.25,356.91a.22.22,0,1,0-.22.22.22.22,0,0,0,.22-.22Z"/><path class="j" d="M41.66,356.15a.22.22,0,1,0-.22.22.21.21,0,0,0,.22-.22Z"/><path class="j" d="M42.2,355.49a.22.22,0,1,0-.22.22.22.22,0,0,0,.22-.22Z"/><path class="j" d="M42.87,354.94a.22.22,0,1,0-.22.22.22.22,0,0,0,.22-.22Z"/><path class="j" d="M43.63,354.54a.22.22,0,0,0-.22-.22.22.22,0,1,0,0,.44.22.22,0,0,0,.22-.22Z"/><path class="j" d="M44.45,354.29a.22.22,0,1,0-.22.22.22.22,0,0,0,.22-.22Z"/><path class="j" d="M45.3,354.2a.22.22,0,1,0-.43,0,.21.21,0,0,0,.22.22.21.21,0,0,0,.21-.22Z"/><path class="j" d="M46.16,354.29a.22.22,0,1,0-.22.22.22.22,0,0,0,.22-.22Z"/><path class="j" d="M47,354.54a.22.22,0,1,0-.22.22.22.22,0,0,0,.22-.22Z"/><path class="j" d="M47.74,354.94a.22.22,0,1,0-.22.22.22.22,0,0,0,.22-.22Z"/><path class="j" d="M48.41,355.49a.22.22,0,1,0-.22.22.22.22,0,0,0,.22-.22Z"/><path class="j" d="M49,356.15a.21.21,0,0,0-.22-.21.22.22,0,1,0,0,.43.21.21,0,0,0,.22-.22Z"/><path class="j" d="M49.36,356.91a.22.22,0,1,0-.22.22.22.22,0,0,0,.22-.22Z"/><path class="j" d="M49.61,357.74a.22.22,0,1,0-.22.22.22.22,0,0,0,.22-.22Z"/><path class="j" d="M49.69,358.59a.22.22,0,1,0-.22.22.22.22,0,0,0,.22-.22Z"/><path class="j" d="M49.61,359.45a.22.22,0,1,0-.22.22.22.22,0,0,0,.22-.22Z"/><path class="j" d="M49.36,360.27a.22.22,0,1,0-.22.22.22.22,0,0,0,.22-.22Z"/><path class="j" d="M49,361a.22.22,0,0,0-.22-.22.22.22,0,1,0,0,.44A.22.22,0,0,0,49,361Z"/><path class="j" d="M48.41,361.7a.22.22,0,0,0-.44,0,.22.22,0,0,0,.44,0Z"/><path class="j" d="M47.74,362.24a.22.22,0,1,0-.22.22.22.22,0,0,0,.22-.22Z"/><path class="j" d="M47,362.65a.22.22,0,1,0-.22.22.22.22,0,0,0,.22-.22Z"/><path class="j" d="M46.16,362.9a.22.22,0,1,0-.22.22.22.22,0,0,0,.22-.22Z"/><path class="j" d="M45.3,363.86a.22.22,0,1,0-.21.22.21.21,0,0,0,.21-.22Z"/><path class="j" d="M44.44,363.79a.22.22,0,1,0-.22.22.22.22,0,0,0,.22-.22Z"/><path class="j" d="M43.59,363.57a.22.22,0,1,0-.21.22.21.21,0,0,0,.21-.22Z"/><path class="j" d="M42.8,363.22a.22.22,0,1,0-.44,0,.22.22,0,0,0,.44,0Z"/><path class="j" d="M42.07,362.75a.22.22,0,1,0-.22.22.22.22,0,0,0,.22-.22Z"/><path class="j" d="M41.43,362.16a.22.22,0,1,0-.22.22.22.22,0,0,0,.22-.22Z"/><path class="j" d="M40.9,361.47a.22.22,0,1,0-.22.22.22.22,0,0,0,.22-.22Z"/><path class="j" d="M40.48,360.71a.22.22,0,1,0-.22.22.22.22,0,0,0,.22-.22Z"/><path class="j" d="M40.2,359.89a.22.22,0,1,0-.22.21.22.22,0,0,0,.22-.21Z"/><path class="j" d="M40.06,359a.22.22,0,1,0-.22.22.22.22,0,0,0,.22-.22Z"/><path class="j" d="M40.06,358.16a.22.22,0,1,0-.22.22.22.22,0,0,0,.22-.22Z"/><path class="j" d="M40.2,357.3a.22.22,0,1,0-.22.22.22.22,0,0,0,.22-.22Z"/><path class="j" d="M40.48,356.48a.22.22,0,1,0-.22.22.22.22,0,0,0,.22-.22Z"/><path class="j" d="M40.9,355.71a.22.22,0,1,0-.22.22.22.22,0,0,0,.22-.22Z"/><path class="j" d="M41.43,355a.22.22,0,0,0-.44,0,.22.22,0,0,0,.44,0Z"/><path class="j" d="M42.07,354.44a.22.22,0,1,0-.22.22.22.22,0,0,0,.22-.22Z"/><path class="j" d="M42.8,354a.22.22,0,1,0-.22.22.22.22,0,0,0,.22-.22Z"/><path class="j" d="M43.59,353.61a.22.22,0,1,0-.21.22.21.21,0,0,0,.21-.22Z"/><path class="j" d="M44.44,353.4a.22.22,0,1,0-.22.22.22.22,0,0,0,.22-.22Z"/><path class="j" d="M45.3,353.33a.22.22,0,1,0-.21.22.21.21,0,0,0,.21-.22Z"/><path class="j" d="M46.17,353.4a.22.22,0,1,0-.22.22.22.22,0,0,0,.22-.22Z"/><path class="j" d="M47,353.61a.22.22,0,1,0-.21.22.21.21,0,0,0,.21-.22Z"/><path class="j" d="M47.81,354a.22.22,0,1,0-.22.22.22.22,0,0,0,.22-.22Z"/><path class="j" d="M48.54,354.44a.22.22,0,1,0-.22.22.22.22,0,0,0,.22-.22Z"/><path class="j" d="M49.18,355a.22.22,0,0,0-.44,0,.22.22,0,0,0,.44,0Z"/><path class="j" d="M49.71,355.71a.22.22,0,0,0-.22-.22.22.22,0,1,0,0,.44.22.22,0,0,0,.22-.22Z"/><path class="j" d="M50.13,356.48a.22.22,0,1,0-.22.22.22.22,0,0,0,.22-.22Z"/><path class="j" d="M50.41,357.3a.22.22,0,1,0-.22.22.22.22,0,0,0,.22-.22Z"/><path class="j" d="M50.55,358.16a.22.22,0,1,0-.22.22.22.22,0,0,0,.22-.22Z"/><path class="j" d="M50.55,359a.22.22,0,1,0-.22.22.22.22,0,0,0,.22-.22Z"/><path class="j" d="M50.41,359.89a.22.22,0,1,0-.22.21.22.22,0,0,0,.22-.21Z"/><path class="j" d="M50.13,360.71a.22.22,0,1,0-.22.22.22.22,0,0,0,.22-.22Z"/><path class="j" d="M49.71,361.47a.22.22,0,0,0-.22-.22.22.22,0,0,0,0,.44.22.22,0,0,0,.22-.22Z"/><path class="j" d="M49.18,362.16a.22.22,0,1,0-.22.22.22.22,0,0,0,.22-.22Z"/><path class="j" d="M48.54,362.75a.22.22,0,1,0-.22.22.22.22,0,0,0,.22-.22Z"/><path class="j" d="M47.81,363.22a.22.22,0,1,0-.44,0,.22.22,0,0,0,.44,0Z"/><path class="j" d="M47,363.57a.22.22,0,1,0-.21.22.21.21,0,0,0,.21-.22Z"/><path class="j" d="M46.17,363.79A.22.22,0,1,0,46,364a.22.22,0,0,0,.22-.22Z"/><path class="j" d="M45.3,364.74a.22.22,0,1,0-.21.22.21.21,0,0,0,.21-.22Z"/><path class="j" d="M44.43,364.67a.22.22,0,1,0-.22.22.22.22,0,0,0,.22-.22Z"/><path class="j" d="M43.57,364.49a.22.22,0,1,0-.22.22.22.22,0,0,0,.22-.22Z"/><path class="j" d="M42.75,364.18a.22.22,0,1,0-.22.22.22.22,0,0,0,.22-.22Z"/><path class="j" d="M42,363.76a.22.22,0,0,0-.22-.22.22.22,0,0,0,0,.44.22.22,0,0,0,.22-.22Z"/><path class="j" d="M41.28,363.24a.22.22,0,1,0-.44,0,.22.22,0,0,0,.44,0Z"/><path class="j" d="M40.66,362.62a.22.22,0,1,0-.44,0,.22.22,0,0,0,.44,0Z"/><path class="j" d="M40.14,361.91a.22.22,0,1,0-.44,0,.22.22,0,0,0,.44,0Z"/><path class="j" d="M39.72,361.14a.22.22,0,1,0-.22.22.21.21,0,0,0,.22-.22Z"/><path class="j" d="M39.41,360.32a.22.22,0,1,0-.22.22.22.22,0,0,0,.22-.22Z"/><path class="j" d="M39.22,359.47a.22.22,0,0,0-.22-.22.22.22,0,0,0,0,.44.22.22,0,0,0,.22-.22Z"/><path class="j" d="M39.16,358.59a.22.22,0,1,0-.22.22.22.22,0,0,0,.22-.22Z"/><path class="j" d="M39.22,357.72a.22.22,0,0,0-.22-.22.22.22,0,0,0,0,.44.22.22,0,0,0,.22-.22Z"/><path class="j" d="M39.41,356.86a.22.22,0,1,0-.22.22.22.22,0,0,0,.22-.22Z"/><path class="j" d="M39.72,356a.22.22,0,1,0-.22.22.22.22,0,0,0,.22-.22Z"/><path class="j" d="M40.14,355.27a.22.22,0,1,0-.22.22.22.22,0,0,0,.22-.22Z"/><path class="j" d="M40.66,354.57a.22.22,0,1,0-.22.22.22.22,0,0,0,.22-.22Z"/><path class="j" d="M41.28,354a.22.22,0,1,0-.22.22.22.22,0,0,0,.22-.22Z"/><path class="j" d="M42,353.42a.22.22,0,0,0-.22-.22.22.22,0,0,0-.22.22.22.22,0,0,0,.22.22.21.21,0,0,0,.22-.22Z"/><path class="j" d="M42.75,353a.22.22,0,0,0-.44,0,.22.22,0,0,0,.44,0Z"/><path class="j" d="M43.57,352.7a.22.22,0,1,0-.22.22.22.22,0,0,0,.22-.22Z"/><path class="j" d="M44.43,352.51a.22.22,0,1,0-.22.22.22.22,0,0,0,.22-.22Z"/><path class="j" d="M45.3,352.45a.22.22,0,1,0-.21.22.21.21,0,0,0,.21-.22Z"/><path class="j" d="M46.18,352.51a.22.22,0,1,0-.22.22.22.22,0,0,0,.22-.22Z"/><path class="j" d="M47,352.7a.22.22,0,1,0-.22.22.22.22,0,0,0,.22-.22Z"/><path class="j" d="M47.86,353a.22.22,0,0,0-.44,0,.22.22,0,0,0,.44,0Z"/><path class="j" d="M48.63,353.42a.22.22,0,0,0-.44,0,.22.22,0,1,0,.44,0Z"/><path class="j" d="M49.33,354a.22.22,0,1,0-.22.22.22.22,0,0,0,.22-.22Z"/><path class="j" d="M50,354.57a.22.22,0,1,0-.22.22.22.22,0,0,0,.22-.22Z"/><path class="j" d="M50.47,355.27a.22.22,0,1,0-.22.22.22.22,0,0,0,.22-.22Z"/><path class="j" d="M50.89,356a.22.22,0,0,0-.22-.22.22.22,0,1,0,0,.44.22.22,0,0,0,.22-.22Z"/><path class="j" d="M51.2,356.86a.22.22,0,1,0-.22.22.22.22,0,0,0,.22-.22Z"/><path class="j" d="M51.39,357.72a.22.22,0,1,0-.22.22.22.22,0,0,0,.22-.22Z"/><path class="j" d="M51.45,358.59a.22.22,0,1,0-.22.22.22.22,0,0,0,.22-.22Z"/><path class="j" d="M51.39,359.47a.22.22,0,1,0-.22.22.22.22,0,0,0,.22-.22Z"/><path class="j" d="M51.2,360.32a.22.22,0,1,0-.22.22.22.22,0,0,0,.22-.22Z"/><path class="j" d="M50.89,361.14a.21.21,0,0,0-.22-.21.22.22,0,1,0,0,.43.21.21,0,0,0,.22-.22Z"/><path class="j" d="M50.47,361.91a.22.22,0,0,0-.44,0,.22.22,0,0,0,.44,0Z"/><path class="j" d="M50,362.62a.22.22,0,0,0-.44,0,.22.22,0,1,0,.44,0Z"/><path class="j" d="M49.33,363.24a.22.22,0,1,0-.44,0,.22.22,0,0,0,.44,0Z"/><path class="j" d="M48.63,363.76a.22.22,0,1,0-.22.22.22.22,0,0,0,.22-.22Z"/><path class="j" d="M47.86,364.18a.22.22,0,1,0-.22.22.22.22,0,0,0,.22-.22Z"/><path class="j" d="M47,364.49a.22.22,0,1,0-.22.22.22.22,0,0,0,.22-.22Z"/><path class="j" d="M46.18,364.67a.22.22,0,1,0-.22.22.22.22,0,0,0,.22-.22Z"/><path class="j" d="M45.3,365.61a.22.22,0,1,0-.43,0,.21.21,0,0,0,.22.22.21.21,0,0,0,.21-.22Z"/><path class="j" d="M44.46,365.56a.22.22,0,1,0-.22.22.22.22,0,0,0,.22-.22Z"/><path class="j" d="M43.62,365.41a.22.22,0,1,0-.21.22.21.21,0,0,0,.21-.22Z"/><path class="j" d="M42.81,365.16a.22.22,0,1,0-.21.22.21.21,0,0,0,.21-.22Z"/><path class="j" d="M42,364.81a.22.22,0,1,0-.22.22.22.22,0,0,0,.22-.22Z"/><path class="j" d="M41.32,364.37a.22.22,0,1,0-.22.22.22.22,0,0,0,.22-.22Z"/><path class="j" d="M40.65,363.85a.22.22,0,1,0-.22.22.22.22,0,0,0,.22-.22Z"/><path class="j" d="M40.05,363.25a.22.22,0,1,0-.22.22.22.22,0,0,0,.22-.22Z"/><path class="j" d="M39.53,362.58a.22.22,0,1,0-.22.22.22.22,0,0,0,.22-.22Z"/><path class="j" d="M39.09,361.86a.22.22,0,0,0-.44,0,.22.22,0,1,0,.44,0Z"/><path class="j" d="M38.74,361.08a.22.22,0,1,0-.22.22.22.22,0,0,0,.22-.22Z"/><path class="j" d="M38.49,360.27a.22.22,0,1,0-.22.22.22.22,0,0,0,.22-.22Z"/><path class="j" d="M38.33,359.44a.22.22,0,1,0-.21.22.21.21,0,0,0,.21-.22Z"/><path class="j" d="M38.28,358.59a.22.22,0,0,0-.22-.22.22.22,0,0,0,0,.44.22.22,0,0,0,.22-.22Z"/><path class="j" d="M38.33,357.75a.22.22,0,1,0-.21.22.21.21,0,0,0,.21-.22Z"/><path class="j" d="M38.49,356.91a.22.22,0,1,0-.22.22.22.22,0,0,0,.22-.22Z"/><path class="j" d="M38.74,356.1a.22.22,0,1,0-.22.22.22.22,0,0,0,.22-.22Z"/><path class="j" d="M39.09,355.33a.22.22,0,1,0-.22.22.22.22,0,0,0,.22-.22Z"/><path class="j" d="M39.53,354.6a.22.22,0,1,0-.44,0,.22.22,0,1,0,.44,0Z"/><path class="j" d="M40.05,353.94a.22.22,0,1,0-.22.22.22.22,0,0,0,.22-.22Z"/><path class="j" d="M40.65,353.34a.22.22,0,1,0-.22.22.22.22,0,0,0,.22-.22Z"/><path class="j" d="M41.32,352.81a.22.22,0,0,0-.44,0,.22.22,0,0,0,.44,0Z"/><path class="j" d="M42,352.38a.22.22,0,1,0-.22.21.22.22,0,0,0,.22-.21Z"/><path class="j" d="M42.81,352a.22.22,0,1,0-.21.22.21.21,0,0,0,.21-.22Z"/><path class="j" d="M43.62,351.78a.21.21,0,0,0-.21-.22.21.21,0,0,0-.22.22.21.21,0,0,0,.22.21.21.21,0,0,0,.21-.21Z"/><path class="j" d="M44.46,351.62a.22.22,0,1,0-.22.22.22.22,0,0,0,.22-.22Z"/><path class="j" d="M45.3,351.57a.22.22,0,1,0-.21.22.21.21,0,0,0,.21-.22Z"/><path class="j" d="M46.15,351.62a.22.22,0,1,0-.22.22.22.22,0,0,0,.22-.22Z"/><path class="j" d="M47,351.78a.22.22,0,0,0-.22-.22.21.21,0,0,0-.22.22.21.21,0,0,0,.22.21.21.21,0,0,0,.22-.21Z"/><path class="j" d="M47.79,352a.22.22,0,1,0-.21.22.21.21,0,0,0,.21-.22Z"/><path class="j" d="M48.57,352.38a.22.22,0,1,0-.22.21.22.22,0,0,0,.22-.21Z"/><path class="j" d="M49.29,352.81a.22.22,0,0,0-.22-.22.22.22,0,0,0-.22.22.22.22,0,0,0,.22.22.21.21,0,0,0,.22-.22Z"/><path class="j" d="M50,353.34a.22.22,0,1,0-.22.22.22.22,0,0,0,.22-.22Z"/><path class="j" d="M50.56,353.94a.22.22,0,1,0-.22.22.22.22,0,0,0,.22-.22Z"/><path class="j" d="M51.08,354.6a.22.22,0,0,0-.22-.22.22.22,0,0,0-.22.22.22.22,0,0,0,.22.22.21.21,0,0,0,.22-.22Z"/><path class="j" d="M51.52,355.33a.22.22,0,1,0-.22.22.22.22,0,0,0,.22-.22Z"/><path class="j" d="M51.87,356.1a.22.22,0,1,0-.22.22.22.22,0,0,0,.22-.22Z"/><path class="j" d="M52.12,356.91a.22.22,0,1,0-.22.22.22.22,0,0,0,.22-.22Z"/><path class="j" d="M52.27,357.75a.22.22,0,1,0-.21.22.21.21,0,0,0,.21-.22Z"/><path class="j" d="M52.33,358.59a.22.22,0,1,0-.22.22.22.22,0,0,0,.22-.22Z"/><path class="j" d="M52.27,359.44a.22.22,0,1,0-.21.22.21.21,0,0,0,.21-.22Z"/><path class="j" d="M52.12,360.27a.22.22,0,1,0-.22.22.22.22,0,0,0,.22-.22Z"/><path class="j" d="M51.87,361.08a.22.22,0,1,0-.22.22.22.22,0,0,0,.22-.22Z"/><path class="j" d="M51.52,361.86a.22.22,0,0,0-.44,0,.22.22,0,1,0,.44,0Z"/><path class="j" d="M51.08,362.58a.22.22,0,0,0-.22-.22.22.22,0,1,0,0,.44.22.22,0,0,0,.22-.22Z"/><path class="j" d="M50.56,363.25a.22.22,0,1,0-.22.22.22.22,0,0,0,.22-.22Z"/><path class="j" d="M50,363.85a.22.22,0,1,0-.22.22.22.22,0,0,0,.22-.22Z"/><path class="j" d="M49.29,364.37a.22.22,0,0,0-.22-.22.22.22,0,0,0,0,.44.22.22,0,0,0,.22-.22Z"/><path class="j" d="M48.57,364.81a.22.22,0,1,0-.22.22.22.22,0,0,0,.22-.22Z"/><path class="j" d="M47.79,365.16a.22.22,0,1,0-.21.22.21.21,0,0,0,.21-.22Z"/><path class="j" d="M47,365.41a.22.22,0,0,0-.22-.22.22.22,0,0,0,0,.44.22.22,0,0,0,.22-.22Z"/><path class="j" d="M46.15,365.56a.22.22,0,1,0-.22.22.22.22,0,0,0,.22-.22Z"/></g><path class="k" d="M82.88,321.7c-5-.45-12.8-1-20.44-1s-15.48.53-20.44,1a5.88,5.88,0,0,0-5.38,5.89v15.2h.8l49.26-19.24A5.91,5.91,0,0,0,82.88,321.7Z"/><path class="c" d="M88.35,342.79h-.49v-15.2a5.64,5.64,0,0,0-5.16-5.65c-3.26-.3-11.79-1-20.41-1s-17.16.68-20.42,1a5.64,5.64,0,0,0-5.16,5.65v15.2h-.48v-15.2a6.12,6.12,0,0,1,5.59-6.13c3.28-.29,11.82-1,20.47-1s17.19.69,20.46,1a6.13,6.13,0,0,1,5.6,6.13Z"/><path class="c" d="M89.14,343.19H35.43a.23.23,0,0,1-.11,0l-1.56-.77a.23.23,0,0,1-.13-.21V327.59a9,9,0,0,1,8.26-9c5-.46,12.64-1,20.4-1s15.37.54,20.39,1a9,9,0,0,1,8.26,9v14.59a.23.23,0,0,1-.13.21l-1.56.77A.23.23,0,0,1,89.14,343.19Zm-53.65-.48H89.08l1.38-.68V327.59A8.56,8.56,0,0,0,82.64,319c-5-.45-12.61-1-20.35-1s-15.35.54-20.36,1a8.56,8.56,0,0,0-7.82,8.57V342Zm55.21-.53h0Z"/><path class="d" d="M54,365.09a2.17,2.17,0,0,1-.24-.29,2.21,2.21,0,0,1-.18-.34,2.15,2.15,0,0,1-.11-.36,1.69,1.69,0,0,1,0-.38V346.4a1.58,1.58,0,0,1,0-.38,1.21,1.21,0,0,1,.05-.18,1,1,0,0,1,.06-.18,2.21,2.21,0,0,1,.18-.34A1.76,1.76,0,0,1,54,345a2.43,2.43,0,0,1,.3-.24,2.11,2.11,0,0,1,.33-.18l.37-.11a2.33,2.33,0,0,1,.38,0H84.89a2.33,2.33,0,0,1,.38,0l.19.05.18.06a2.11,2.11,0,0,1,.33.18,1.74,1.74,0,0,1,.54.54,2.11,2.11,0,0,1,.18.33,2.09,2.09,0,0,1,.15.75v17.32a1.69,1.69,0,0,1,0,.38c0,.06,0,.12,0,.18a1.34,1.34,0,0,1-.07.18,2.21,2.21,0,0,1-.18.34,2.17,2.17,0,0,1-.24.29,1.76,1.76,0,0,1-.3.24,1.52,1.52,0,0,1-.33.18,2.09,2.09,0,0,1-.75.15H55.42a1.58,1.58,0,0,1-.38,0l-.19,0-.18-.07a1.52,1.52,0,0,1-.33-.18A1.76,1.76,0,0,1,54,365.09Z"/><rect class="l" x="67.38" y="346.23" width="12.36" height="8.74" rx="0.39" ry="0.39"/><path class="c" d="M79.35,355.15H67.77a.56.56,0,0,1-.57-.57v-8a.57.57,0,0,1,.57-.57H79.35a.58.58,0,0,1,.57.57v8A.57.57,0,0,1,79.35,355.15Zm-11.58-8.74a.21.21,0,0,0-.21.21v8a.21.21,0,0,0,.21.22H79.35a.21.21,0,0,0,.21-.22v-8a.21.21,0,0,0-.21-.21Z"/><rect class="a" x="61.98" y="348.5" width="4.09" height="4.09" rx="0.97" ry="0.97"/><path class="m" d="M65.1,352.58a1,1,0,0,0,1-1"/><path class="m" d="M66.07,349.47a1,1,0,0,0-1-1"/><path class="m" d="M62,351.61a1,1,0,0,0,1,1"/><path class="m" d="M63,348.5a1,1,0,0,0-1,1"/><line class="m" x1="62.96" y1="348.5" x2="65.1" y2="348.5"/><line class="m" x1="61.98" y1="349.47" x2="61.98" y2="351.61"/><line class="m" x1="62.96" y1="352.58" x2="65.1" y2="352.58"/><line class="m" x1="66.07" y1="349.47" x2="66.07" y2="351.61"/><rect class="a" x="81.05" y="348.5" width="4.09" height="4.09" rx="0.97" ry="0.97"/><path class="m" d="M85.14,349.47a1,1,0,0,0-1-1"/><path class="m" d="M84.16,352.58a1,1,0,0,0,1-1"/><path class="m" d="M82,348.5a1,1,0,0,0-1,1"/><path class="m" d="M81.05,351.61a1,1,0,0,0,1,1"/><line class="m" x1="81.05" y1="349.47" x2="81.05" y2="351.61"/><line class="m" x1="84.16" y1="352.58" x2="82.02" y2="352.58"/><line class="m" x1="85.14" y1="349.47" x2="85.14" y2="351.61"/><line class="m" x1="84.16" y1="348.5" x2="82.02" y2="348.5"/><rect class="a" x="55.21" y="346.8" width="5.84" height="5.84" rx="0.97" ry="0.97"/><path class="m" d="M60.07,352.63a1,1,0,0,0,1-1"/><path class="m" d="M61.05,347.77a1,1,0,0,0-1-1"/><path class="m" d="M55.21,351.66a1,1,0,0,0,1,1"/><path class="m" d="M56.18,346.8a1,1,0,0,0-1,1"/><line class="m" x1="56.18" y1="346.8" x2="60.07" y2="346.8"/><line class="m" x1="55.21" y1="347.77" x2="55.21" y2="351.66"/><line class="m" x1="56.18" y1="352.63" x2="60.07" y2="352.63"/><line class="m" x1="61.05" y1="347.77" x2="61.05" y2="351.66"/><rect class="a" x="55.17" y="357.48" width="5.84" height="5.84" rx="0.97" ry="0.97"/><path class="m" d="M60,363.32a1,1,0,0,0,1-1"/><path class="m" d="M61,358.45a1,1,0,0,0-1-1"/><path class="m" d="M55.17,362.35a1,1,0,0,0,1,1"/><path class="m" d="M56.15,357.48a1,1,0,0,0-1,1"/><line class="m" x1="56.15" y1="357.48" x2="60.04" y2="357.48"/><line class="m" x1="55.17" y1="358.45" x2="55.17" y2="362.35"/><line class="m" x1="56.15" y1="363.32" x2="60.04" y2="363.32"/><line class="m" x1="61.01" y1="358.45" x2="61.01" y2="362.35"/><rect class="n" x="62.05" y="357.52" width="3.95" height="3.95" rx="0.7" ry="0.7"/><path class="m" d="M65.3,361.47a.7.7,0,0,0,.7-.7"/><path class="m" d="M66,358.22a.7.7,0,0,0-.7-.7"/><path class="m" d="M62.05,360.77a.7.7,0,0,0,.7.7"/><path class="m" d="M62.75,357.52a.7.7,0,0,0-.7.7"/><line class="m" x1="62.75" y1="357.52" x2="65.3" y2="357.52"/><line class="m" x1="62.05" y1="358.22" x2="62.05" y2="360.77"/><line class="m" x1="62.75" y1="361.47" x2="65.3" y2="361.47"/><line class="m" x1="66" y1="358.22" x2="66" y2="360.77"/><rect class="n" x="66.81" y="357.52" width="3.95" height="3.95" rx="0.7" ry="0.7"/><path class="m" d="M70.06,361.47a.7.7,0,0,0,.7-.7"/><path class="m" d="M70.76,358.22a.7.7,0,0,0-.7-.7"/><path class="m" d="M66.81,360.77a.7.7,0,0,0,.7.7"/><path class="m" d="M67.51,357.52a.7.7,0,0,0-.7.7"/><line class="m" x1="67.51" y1="357.52" x2="70.06" y2="357.52"/><line class="m" x1="66.81" y1="358.22" x2="66.81" y2="360.77"/><line class="m" x1="67.51" y1="361.47" x2="70.06" y2="361.47"/><line class="m" x1="70.76" y1="358.22" x2="70.76" y2="360.77"/><rect class="n" x="71.57" y="357.52" width="3.95" height="3.95" rx="0.7" ry="0.7"/><path class="m" d="M74.82,361.47a.7.7,0,0,0,.7-.7"/><path class="m" d="M75.52,358.22a.7.7,0,0,0-.7-.7"/><path class="m" d="M71.57,360.77a.7.7,0,0,0,.7.7"/><path class="m" d="M72.27,357.52a.7.7,0,0,0-.7.7"/><line class="m" x1="72.27" y1="357.52" x2="74.82" y2="357.52"/><line class="m" x1="71.57" y1="358.22" x2="71.57" y2="360.77"/><line class="m" x1="72.27" y1="361.47" x2="74.82" y2="361.47"/><line class="m" x1="75.52" y1="358.22" x2="75.52" y2="360.77"/><rect class="n" x="76.35" y="357.52" width="3.95" height="3.95" rx="0.7" ry="0.7"/><path class="m" d="M79.6,361.47a.7.7,0,0,0,.7-.7"/><path class="m" d="M80.3,358.22a.7.7,0,0,0-.7-.7"/><path class="m" d="M76.35,360.77a.7.7,0,0,0,.7.7"/><path class="m" d="M77.05,357.52a.7.7,0,0,0-.7.7"/><line class="m" x1="77.05" y1="357.52" x2="79.6" y2="357.52"/><line class="m" x1="76.35" y1="358.22" x2="76.35" y2="360.77"/><line class="m" x1="77.05" y1="361.47" x2="79.6" y2="361.47"/><line class="m" x1="80.3" y1="358.22" x2="80.3" y2="360.77"/><rect class="n" x="81.11" y="357.52" width="3.95" height="3.95" rx="0.7" ry="0.7"/><path class="m" d="M84.36,361.47a.7.7,0,0,0,.7-.7"/><path class="m" d="M85.06,358.22a.7.7,0,0,0-.7-.7"/><path class="m" d="M81.11,360.77a.7.7,0,0,0,.7.7"/><path class="m" d="M81.81,357.52a.7.7,0,0,0-.7.7"/><line class="m" x1="81.81" y1="357.52" x2="84.36" y2="357.52"/><line class="m" x1="81.11" y1="358.22" x2="81.11" y2="360.77"/><line class="m" x1="81.81" y1="361.47" x2="84.36" y2="361.47"/><line class="m" x1="85.06" y1="358.22" x2="85.06" y2="360.77"/><rect class="a" x="66.81" y="359.3" width="3.95" height="3.95" rx="0.7" ry="0.7"/><path class="m" d="M70.06,363.25a.7.7,0,0,0,.7-.7"/><path class="m" d="M70.76,360a.7.7,0,0,0-.7-.7"/><path class="m" d="M66.81,362.55a.7.7,0,0,0,.7.7"/><path class="m" d="M67.51,359.3a.7.7,0,0,0-.7.7"/><line class="m" x1="67.51" y1="359.3" x2="70.06" y2="359.3"/><line class="m" x1="66.81" y1="360" x2="66.81" y2="362.55"/><line class="m" x1="67.51" y1="363.25" x2="70.06" y2="363.25"/><line class="m" x1="70.76" y1="360" x2="70.76" y2="362.55"/><rect class="a" x="71.57" y="359.3" width="3.95" height="3.95" rx="0.7" ry="0.7"/><path class="m" d="M74.82,363.25a.7.7,0,0,0,.7-.7"/><path class="m" d="M75.52,360a.7.7,0,0,0-.7-.7"/><path class="m" d="M71.57,362.55a.7.7,0,0,0,.7.7"/><path class="m" d="M72.27,359.3a.7.7,0,0,0-.7.7"/><line class="m" x1="72.27" y1="359.3" x2="74.82" y2="359.3"/><line class="m" x1="71.57" y1="360" x2="71.57" y2="362.55"/><line class="m" x1="72.27" y1="363.25" x2="74.82" y2="363.25"/><line class="m" x1="75.52" y1="360" x2="75.52" y2="362.55"/><rect class="a" x="76.35" y="359.3" width="3.95" height="3.95" rx="0.7" ry="0.7"/><path class="m" d="M79.6,363.25a.7.7,0,0,0,.7-.7"/><path class="m" d="M80.3,360a.7.7,0,0,0-.7-.7"/><path class="m" d="M76.35,362.55a.7.7,0,0,0,.7.7"/><path class="m" d="M77.05,359.3a.7.7,0,0,0-.7.7"/><line class="m" x1="77.05" y1="359.3" x2="79.6" y2="359.3"/><line class="m" x1="76.35" y1="360" x2="76.35" y2="362.55"/><line class="m" x1="77.05" y1="363.25" x2="79.6" y2="363.25"/><line class="m" x1="80.3" y1="360" x2="80.3" y2="362.55"/><rect class="a" x="81.11" y="359.3" width="3.95" height="3.95" rx="0.7" ry="0.7"/><path class="m" d="M84.36,363.25a.7.7,0,0,0,.7-.7"/><path class="m" d="M85.06,360a.7.7,0,0,0-.7-.7"/><path class="m" d="M81.11,362.55a.7.7,0,0,0,.7.7"/><path class="m" d="M81.81,359.3a.7.7,0,0,0-.7.7"/><line class="m" x1="81.81" y1="359.3" x2="84.36" y2="359.3"/><line class="m" x1="81.11" y1="360" x2="81.11" y2="362.55"/><line class="m" x1="81.81" y1="363.25" x2="84.36" y2="363.25"/><line class="m" x1="85.06" y1="360" x2="85.06" y2="362.55"/><rect class="a" x="62.05" y="359.3" width="3.95" height="3.95" rx="0.7" ry="0.7"/><path class="m" d="M65.3,363.25a.7.7,0,0,0,.7-.7"/><path class="m" d="M66,360a.7.7,0,0,0-.7-.7"/><path class="m" d="M62.05,362.55a.7.7,0,0,0,.7.7"/><path class="m" d="M62.75,359.3a.7.7,0,0,0-.7.7"/><line class="m" x1="62.75" y1="359.3" x2="65.3" y2="359.3"/><line class="m" x1="62.05" y1="360" x2="62.05" y2="362.55"/><line class="m" x1="62.75" y1="363.25" x2="65.3" y2="363.25"/><line class="m" x1="66" y1="360" x2="66" y2="362.55"/><path class="c" d="M84.89,365.84H55.42a3,3,0,0,1-.42,0l-.19-.05-.2-.07a2.18,2.18,0,0,1-.37-.2,1.59,1.59,0,0,1-.32-.26,2.69,2.69,0,0,1-.27-.32,3.24,3.24,0,0,1-.19-.37,1.33,1.33,0,0,1-.12-.4,1.84,1.84,0,0,1-.05-.41V346.4a2.71,2.71,0,0,1,0-.41l.06-.2a1.18,1.18,0,0,1,.07-.2,1.84,1.84,0,0,1,.19-.37,2.69,2.69,0,0,1,.27-.32,1.35,1.35,0,0,1,.32-.26,1.82,1.82,0,0,1,.36-.2,1.64,1.64,0,0,1,.4-.12,2,2,0,0,1,.42,0H84.89a2,2,0,0,1,.42,0l.2.05.2.07a1.92,1.92,0,0,1,.68.46,1.69,1.69,0,0,1,.27.32,1.78,1.78,0,0,1,.19.36,1.87,1.87,0,0,1,.13.4,3,3,0,0,1,0,.42v17.32a3,3,0,0,1,0,.41,1.17,1.17,0,0,1-.06.2.68.68,0,0,1-.07.2,1.85,1.85,0,0,1-.19.37,1.69,1.69,0,0,1-.27.32,1.72,1.72,0,0,1-.32.26,3.07,3.07,0,0,1-.36.2l-.4.12A3,3,0,0,1,84.89,365.84ZM55.42,344.63a1.93,1.93,0,0,0-.68.14,1.82,1.82,0,0,0-.31.16,2.75,2.75,0,0,0-.26.22,1.44,1.44,0,0,0-.22.27,1.46,1.46,0,0,0-.17.3,1.42,1.42,0,0,0-.05.16,1.21,1.21,0,0,0,0,.18,1.87,1.87,0,0,0,0,.34v17.32a2,2,0,0,0,0,.34,1.6,1.6,0,0,0,.11.33,1.3,1.3,0,0,0,.16.31,1.72,1.72,0,0,0,.49.49,2.11,2.11,0,0,0,.3.16l.17.06.16,0a2.07,2.07,0,0,0,.35,0H84.89a2,2,0,0,0,.35,0,2.07,2.07,0,0,0,.33-.1l.31-.16a1.88,1.88,0,0,0,.26-.22,2,2,0,0,0,.22-.27,1.87,1.87,0,0,0,.17-.31.75.75,0,0,0,0-.16,1.09,1.09,0,0,0,0-.17,2,2,0,0,0,0-.34V346.4a2.07,2.07,0,0,0,0-.35c0-.11-.06-.22-.1-.33a1.87,1.87,0,0,0-.17-.31,1.78,1.78,0,0,0-.22-.26,1.44,1.44,0,0,0-.27-.22,1.46,1.46,0,0,0-.3-.16l-.16-.06-.17,0a1.39,1.39,0,0,0-.35,0Z"/><path class="c" d="M34.3,352.57a.07.07,0,0,1-.06,0l-1.2-.68a.15.15,0,0,1-.07-.12v-8.56a.12.12,0,0,1,.07-.11.09.09,0,0,1,.12,0l1.21.68a.13.13,0,0,1,.06.11v8.57a.11.11,0,0,1-.06.11A.1.1,0,0,1,34.3,352.57Zm-1.07-.89.94.54V344l-.94-.54Z"/><path class="a" d="M107.91,347.89s-.37,5.75,3.06,8.29c1.57,1.16,34.33,0,34.33,0a9.09,9.09,0,0,0,2.58-4.64,33.48,33.48,0,0,0,.48-3.65Z"/><path class="a" d="M146.24,355.21c-10.11,1.76-26,1.76-36.19,0a8.15,8.15,0,0,0,.92.94,11.45,11.45,0,0,0,4.31,2.09,44.24,44.24,0,0,0,12.86,1.51A44.24,44.24,0,0,0,141,358.27a11.34,11.34,0,0,0,4.3-2.09A6.61,6.61,0,0,0,146.24,355.21Z"/><path class="b" d="M149,346h3.15a.3.3,0,0,1,.3.22l.35,1.48a.2.2,0,0,1-.2.24H148"/><path class="c" d="M152.56,348.18H148a.27.27,0,0,1,0-.53h4.46l-.34-1.39-3.19,0a.26.26,0,1,1,0-.52h3.15a.55.55,0,0,1,.55.42l.36,1.48a.47.47,0,0,1-.08.38A.49.49,0,0,1,152.56,348.18Zm-.05-.44Z"/><path class="c" d="M127.51,360a43.2,43.2,0,0,1-12.31-1.51,12,12,0,0,1-4.4-2.15c-2.08-1.77-3.08-4.47-3.15-8.49a.27.27,0,0,1,.08-.19.25.25,0,0,1,.18-.08h40.45a.27.27,0,0,1,.27.27c-.07,4-1.08,6.72-3.16,8.49a12,12,0,0,1-4.4,2.15A43.55,43.55,0,0,1,128.14,360Zm.63-.53A43.54,43.54,0,0,0,140.92,358a11.29,11.29,0,0,0,4.21-2c1.91-1.63,2.86-4.12,3-7.83H108.18c.11,3.71,1,6.2,3,7.83a11.36,11.36,0,0,0,4.21,2A43.66,43.66,0,0,0,128.14,359.51Z"/><path class="c" d="M128.14,338.09c-3,0-3-.07-3-.37,0-.13,0-.88.48-1.09.33-.14,1.1-.82,1.1-1.14v-3.83c0-.28.13-.34,1.46-.34s1.46.06,1.46.34v3.83c0,.33.76,1,1.1,1.14.49.21.48,1,.48,1.1S131.18,338.09,128.14,338.09Zm-2.51-.59c.37,0,1.22.06,2.51.06s2.14,0,2.5-.06c0-.18-.08-.35-.15-.38-.36-.16-1.42-1-1.42-1.63v-3.62c-.18,0-.5,0-.93,0s-.75,0-.93,0v3.62c0,.66-1.06,1.47-1.42,1.63C125.71,337.15,125.66,337.33,125.63,337.5Z"/><path class="c" d="M126.36,338.67a.27.27,0,0,1-.27-.26v-.55a.27.27,0,1,1,.53,0v.55A.26.26,0,0,1,126.36,338.67Z"/><path class="c" d="M131.62,340h-.05c-.38-.06-1.82-.1-3.43-.1s-3,0-3.43.1a.37.37,0,0,1-.31-.13.33.33,0,0,1,0-.32l.58-1c0-.22.3-.33,3.18-.33s3.15.11,3.17.33l.58,1a.37.37,0,0,1,0,.34A.3.3,0,0,1,131.62,340Zm-3.48-.63c1.31,0,2.46,0,3.1.07l-.37-.64c-.29,0-1.29-.09-2.73-.09s-2.45.05-2.74.09l-.36.64C125.68,339.36,126.82,339.33,128.14,339.33Z"/><path class="c" d="M129.92,338.67a.26.26,0,0,1-.26-.26v-.55a.26.26,0,0,1,.26-.27.27.27,0,0,1,.26.27v.55A.26.26,0,0,1,129.92,338.67Z"/><path class="b" d="M128.14,339.77c21.42,0,21.31,6.14,21.44,7.91a.23.23,0,0,1-.23.24H106.92a.22.22,0,0,1-.22-.24C106.82,345.91,106.72,339.77,128.14,339.77Z"/><path class="c" d="M149.35,348.18H106.92a.48.48,0,0,1-.48-.52v-.12c.12-2,.5-8,21.69-8s21.57,6.05,21.69,8v.12a.47.47,0,0,1-.13.36A.48.48,0,0,1,149.35,348.18ZM128.14,340c-20.69,0-21,5.67-21.17,7.54v.13l21.18-.05h21.21l0-.08C149.19,345.7,148.83,340,128.14,340Z"/><path class="c" d="M128.14,331.79a.25.25,0,0,1-.26-.26V293.31a.26.26,0,0,1,.26-.27.27.27,0,0,1,.26.27v38.22A.26.26,0,0,1,128.14,331.79Z"/><path class="a" d="M153.39,122.25s-.38,5.76,3.06,8.3c1.57,1.16,34.33,0,34.33,0a9.11,9.11,0,0,0,2.57-4.65,32.61,32.61,0,0,0,.49-3.65Z"/><path class="a" d="M191.72,129.58a125.75,125.75,0,0,1-36.19,0,6.87,6.87,0,0,0,.92,1,11.46,11.46,0,0,0,4.31,2.09,44.23,44.23,0,0,0,12.86,1.5,44.13,44.13,0,0,0,12.85-1.5,11.46,11.46,0,0,0,4.31-2.09A7.8,7.8,0,0,0,191.72,129.58Z"/><path class="a" d="M194.44,120.35h3.14a.32.32,0,0,1,.31.22l.35,1.48a.19.19,0,0,1-.2.23h-4.53"/><path class="c" d="M198,122.55h-4.53a.27.27,0,1,1,0-.53H198l-.33-1.39-3.19,0a.27.27,0,1,1,0-.53h3.14a.57.57,0,0,1,.56.43l.36,1.48a.44.44,0,0,1-.09.38A.47.47,0,0,1,198,122.55Zm0-.44Z"/><path class="c" d="M173,134.41a43.24,43.24,0,0,1-12.32-1.52,11.85,11.85,0,0,1-4.4-2.14c-2.08-1.78-3.08-4.48-3.15-8.49a.26.26,0,0,1,.07-.19.27.27,0,0,1,.19-.08h40.45a.27.27,0,0,1,.19.08.26.26,0,0,1,.07.19c-.07,4-1.07,6.71-3.15,8.49a11.85,11.85,0,0,1-4.4,2.14,43.93,43.93,0,0,1-12.94,1.52Zm.61-.53a43.57,43.57,0,0,0,12.79-1.49,11.52,11.52,0,0,0,4.21-2c1.91-1.63,2.86-4.13,3-7.83H153.66c.11,3.7,1.05,6.2,3,7.83a11.52,11.52,0,0,0,4.21,2A43.54,43.54,0,0,0,173.61,133.88Z"/><path class="a" d="M173.62,106a4.21,4.21,0,0,1,1.19.08v3.83c0,.49.92,1.23,1.26,1.38s.32.85.32.85a38.55,38.55,0,0,1-5.55,0s0-.7.32-.85,1.26-.89,1.26-1.38V106A4.25,4.25,0,0,1,173.62,106Z"/><path class="c" d="M173.62,112.45c-3,0-3-.07-3-.36s0-.88.47-1.09,1.11-.82,1.11-1.14V106c0-.28.13-.35,1.46-.35s1.45.07,1.45.35v3.83c0,.32.77,1,1.11,1.14s.48,1,.48,1.1S176.66,112.45,173.62,112.45Zm-2.51-.58c.36,0,1.22.06,2.51.06s2.14,0,2.5-.06c0-.19-.08-.36-.15-.39-.37-.16-1.42-1-1.42-1.62v-3.62c-.18,0-.51,0-.93,0s-.75,0-.94,0v3.62c0,.66-1.05,1.46-1.42,1.62C171.18,111.52,171.13,111.69,171.11,111.87Z"/><path class="c" d="M171.83,113a.26.26,0,0,1-.26-.26v-.55a.27.27,0,0,1,.53,0v.55A.26.26,0,0,1,171.83,113Z"/><path class="c" d="M177.09,114.33h0c-.33,0-1.62-.11-3.43-.11s-3.1.06-3.43.11a.4.4,0,0,1-.31-.13.33.33,0,0,1,0-.33l.59-1c0-.23.29-.33,3.18-.33s3.15.1,3.17.33l.58,1a.37.37,0,0,1,0,.34A.33.33,0,0,1,177.09,114.33Zm-3.47-.63c1.29,0,2.45,0,3.09.07l-.36-.64c-.28,0-1.23-.09-2.73-.09s-2.46,0-2.74.09l-.36.64C171.16,113.73,172.32,113.7,173.62,113.7Z"/><path class="c" d="M175.4,113a.26.26,0,0,1-.27-.26v-.55a.27.27,0,0,1,.53,0v.55A.26.26,0,0,1,175.4,113Z"/><path class="a" d="M173.62,114.13c21.42,0,21.31,6.15,21.43,7.92a.22.22,0,0,1-.22.23H152.4a.22.22,0,0,1-.22-.23C152.3,120.28,152.19,114.13,173.62,114.13Z"/><path class="c" d="M194.83,122.55H152.4a.48.48,0,0,1-.35-.16.5.5,0,0,1-.14-.36v-.13c.13-2,.51-8,21.7-8s21.56,6,21.69,8V122a.53.53,0,0,1-.13.36A.5.5,0,0,1,194.83,122.55Zm-21.21-8.16c-20.7,0-21.05,5.68-21.17,7.55v.12l21.18,0h21.21l-.05-.08C194.67,120.07,194.31,114.39,173.62,114.39Z"/><path class="c" d="M173.62,106.16a.27.27,0,0,1-.27-.26V51.31a.27.27,0,1,1,.53,0V105.9A.26.26,0,0,1,173.62,106.16Z"/><path class="a" d="M135.4,77.25s-.36,5.59,3,8c1.53,1.13,33.35,0,33.35,0a8.84,8.84,0,0,0,2.5-4.51,32.46,32.46,0,0,0,.47-3.54Z"/><path class="a" d="M172.63,84.36a122.48,122.48,0,0,1-35.15,0,6.94,6.94,0,0,0,.89.91,11.15,11.15,0,0,0,4.18,2A42.77,42.77,0,0,0,155,88.79a42.69,42.69,0,0,0,12.49-1.46,11.12,11.12,0,0,0,4.19-2A6.72,6.72,0,0,0,172.63,84.36Z"/><path class="a" d="M175.27,75.39h3a.3.3,0,0,1,.3.22l.34,1.44a.19.19,0,0,1-.2.22h-4.4"/><path class="c" d="M178.76,77.53h-4.4a.26.26,0,0,1,0-.51h4.33l-.32-1.35-3.1,0a.26.26,0,0,1-.26-.26.26.26,0,0,1,.26-.25h3a.56.56,0,0,1,.55.41l.34,1.44a.45.45,0,0,1-.08.37A.47.47,0,0,1,178.76,77.53Zm0-.42Z"/><path class="c" d="M155.64,89.05H155a42.92,42.92,0,0,1-12.56-1.47,11.55,11.55,0,0,1-4.27-2.08c-2-1.73-3-4.35-3.06-8.25a.21.21,0,0,1,.07-.18.25.25,0,0,1,.18-.08h39.29a.25.25,0,0,1,.18.08.24.24,0,0,1,.07.18c-.06,3.9-1,6.52-3.06,8.25a11.63,11.63,0,0,1-4.27,2.08A42,42,0,0,1,155.64,89.05Zm-.6-.51a42,42,0,0,0,12.42-1.45,11.11,11.11,0,0,0,4.09-2c1.86-1.59,2.78-4,2.88-7.61H135.66c.1,3.6,1,6,2.88,7.61a11.11,11.11,0,0,0,4.09,2A42.11,42.11,0,0,0,155,88.54Z"/><path class="c" d="M155,67.73c-2.95,0-2.95-.07-2.95-.36,0-.13,0-.85.47-1.06.32-.14,1.07-.79,1.07-1.11V61.48c0-.26.13-.33,1.41-.33s1.42.07,1.42.33V65.2c0,.32.74,1,1.07,1.11s.47.93.47,1.07S158,67.73,155,67.73Zm-2.43-.57c.35,0,1.19.06,2.43.06s2.08,0,2.44-.06c0-.18-.08-.35-.15-.38-.35-.15-1.38-.93-1.38-1.58V61.69c-.18,0-.49,0-.91,0s-.72,0-.9,0V65.2c0,.65-1,1.43-1.38,1.58C152.69,66.81,152.63,67,152.61,67.16Z"/><path class="c" d="M153.31,68.29a.25.25,0,0,1-.25-.25V67.5a.26.26,0,0,1,.51,0V68A.25.25,0,0,1,153.31,68.29Z"/><path class="c" d="M158.42,69.55h0c-.32,0-1.57-.1-3.34-.1s-3,0-3.33.1a.37.37,0,0,1-.29-.13.29.29,0,0,1,0-.31l.57-1c0-.22.28-.32,3.08-.32s3.06.1,3.09.32l.56,1a.35.35,0,0,1,0,.33A.31.31,0,0,1,158.42,69.55ZM155,68.94c1.26,0,2.39,0,3,.06l-.35-.62a39.21,39.21,0,0,0-5.31,0L152,69C152.66,69,153.79,68.94,155,68.94Z"/><path class="c" d="M156.77,68.29a.25.25,0,0,1-.25-.25V67.5a.26.26,0,0,1,.51,0V68A.25.25,0,0,1,156.77,68.29Z"/><path class="a" d="M155,69.36c20.81,0,20.71,6,20.83,7.68a.21.21,0,0,1-.22.23H134.44a.21.21,0,0,1-.22-.23C134.34,75.32,134.24,69.36,155,69.36Z"/><path class="c" d="M175.65,77.53H134.44a.47.47,0,0,1-.35-.15A.48.48,0,0,1,134,77v-.12c.12-1.93.49-7.81,21.06-7.81s21,5.88,21.07,7.81V77a.46.46,0,0,1-.12.35A.47.47,0,0,1,175.65,77.53ZM155,69.61c-20.09,0-20.44,5.52-20.56,7.33v.12L155,77h20.61l-.05-.08C175.49,75.13,175.14,69.61,155,69.61Z"/><path class="c" d="M155,61.61a.25.25,0,0,1-.25-.25v-10a.26.26,0,1,1,.51,0v10A.25.25,0,0,1,155,61.61Z"/><path class="d" d="M84.9,71.87,84,70.2,76.56,56.55a2.27,2.27,0,0,0-2-1.19H49.89a2.25,2.25,0,0,0-2,1.19L40.46,70.2l-.9,1.67a3.22,3.22,0,1,0,5.67,3.07l2.53-5.13,4.52-8.59A2.41,2.41,0,0,1,54.4,60h4.91a2.2,2.2,0,0,0,1.63-1l1.26-1.72L63.51,59a2.21,2.21,0,0,0,1.63,1h4.91a2.42,2.42,0,0,1,2.13,1.27l4.51,8.59,2.53,5.13a3.23,3.23,0,0,0,5.68-3.07ZM51,60.62a1.5,1.5,0,0,1-2.36.19,1.37,1.37,0,0,1,.41-2.17c.08-.28,0-.53.12-.85a.85.85,0,0,1,.25-.43.52.52,0,0,1,.76.11,1.46,1.46,0,0,1,.23.79,1.14,1.14,0,0,0,.28.73,2.08,2.08,0,0,1,.27.32A1.36,1.36,0,0,1,51,60.62ZM76,60.24a1.46,1.46,0,0,1-.64,1.11,1.41,1.41,0,0,1-2-.66,1.68,1.68,0,0,1,.4-1.83A1.59,1.59,0,0,0,74,58c0-.36.06-.74.49-.85.83-.22.68,1,.86,1.47S76.05,59.54,76,60.24Z"/><path class="a" d="M84.9,71.87,84,70.2,76.56,56.55a2.27,2.27,0,0,0-2-1.19H49.89a2.25,2.25,0,0,0-2,1.19L40.46,70.2l-.9,1.67a3.22,3.22,0,1,0,5.67,3.07l2.53-5.13,4.52-8.59A2.41,2.41,0,0,1,54.4,60h4.91a2.2,2.2,0,0,0,1.63-1l.74-1a.67.67,0,0,1,1.06,0l.77,1a2.21,2.21,0,0,0,1.63,1h4.91a2.42,2.42,0,0,1,2.13,1.27l4.51,8.59,2.53,5.13a3.23,3.23,0,0,0,5.68-3.07ZM51,60.62a1.5,1.5,0,0,1-2.36.19,1.37,1.37,0,0,1,.41-2.17c.08-.28,0-.53.12-.85a.85.85,0,0,1,.25-.43.52.52,0,0,1,.76.11,1.46,1.46,0,0,1,.23.79,1.14,1.14,0,0,0,.28.73,2.08,2.08,0,0,1,.27.32A1.36,1.36,0,0,1,51,60.62ZM76,60.24a1.46,1.46,0,0,1-.64,1.11,1.41,1.41,0,0,1-2-.66,1.68,1.68,0,0,1,.4-1.83A1.59,1.59,0,0,0,74,58c0-.36.06-.74.49-.85.83-.22.68,1,.86,1.47S76.05,59.54,76,60.24Z"/><circle class="d" cx="42.42" cy="73.56" r="0.62"/><circle class="d" cx="81.89" cy="73.56" r="0.62"/><path class="c" d="M82.06,76.94A3.5,3.5,0,0,1,79,75.1L76.44,70l-4.51-8.58a2.13,2.13,0,0,0-1.88-1.12H65.14a2.46,2.46,0,0,1-1.83-1l-1.1-1.44-1.05,1.42a2.48,2.48,0,0,1-1.85,1.07H54.4a2.13,2.13,0,0,0-1.88,1.12L48,70l-2.53,5.12a3.52,3.52,0,0,1-3.09,1.85,3.45,3.45,0,0,1-1.66-.43,3.51,3.51,0,0,1-1.42-4.75l8.34-15.31a2.54,2.54,0,0,1,2.24-1.34H74.57a2.54,2.54,0,0,1,2.23,1.34l8.34,15.31h0a3.51,3.51,0,0,1-3.08,5.18ZM62.2,57a.27.27,0,0,1,.22.11l1.31,1.72a1.9,1.9,0,0,0,1.41.84h4.91a2.69,2.69,0,0,1,2.37,1.42l4.51,8.59,2.54,5.13A2.95,2.95,0,1,0,84.65,72L76.31,56.72a2,2,0,0,0-1.74-1H49.89a2,2,0,0,0-1.75,1L39.8,72A3,3,0,0,0,41,76a3,3,0,0,0,1.4.35A3,3,0,0,0,45,74.84l2.53-5.12L52,61.12A2.7,2.7,0,0,1,54.4,59.7h4.91a1.89,1.89,0,0,0,1.42-.86L62,57.15A.27.27,0,0,1,62.2,57Z"/><path class="c" d="M82.06,76.94A3.5,3.5,0,0,1,79,75.1L76.44,70l-4.51-8.58a2.13,2.13,0,0,0-1.88-1.12H65.14a2.46,2.46,0,0,1-1.83-1l-.79-1a.42.42,0,0,0-.31-.15h0a.37.37,0,0,0-.31.16l-.74,1a2.48,2.48,0,0,1-1.85,1.07H54.4a2.13,2.13,0,0,0-1.88,1.12L48,70l-2.53,5.12a3.52,3.52,0,0,1-3.09,1.85,3.45,3.45,0,0,1-1.66-.43,3.51,3.51,0,0,1-1.42-4.75l8.34-15.31a2.54,2.54,0,0,1,2.24-1.34H74.57a2.54,2.54,0,0,1,2.23,1.34l8.34,15.31h0a3.51,3.51,0,0,1-3.08,5.18ZM62.21,57.48a.92.92,0,0,1,.75.37l.77,1a1.9,1.9,0,0,0,1.41.84h4.91a2.69,2.69,0,0,1,2.37,1.42l4.51,8.59,2.54,5.13A2.95,2.95,0,1,0,84.65,72L76.31,56.72a2,2,0,0,0-1.74-1H49.89a2,2,0,0,0-1.75,1L39.8,72A3,3,0,0,0,41,76a3,3,0,0,0,1.4.35A3,3,0,0,0,45,74.84l2.53-5.12L52,61.12A2.7,2.7,0,0,1,54.4,59.7h4.91a1.89,1.89,0,0,0,1.42-.86l.72-1a.93.93,0,0,1,.75-.38Z"/><path class="c" d="M49.77,61.71a1.76,1.76,0,0,1-.9-3.27v-.85a.9.9,0,0,1,1.79,0v.85a1.75,1.75,0,0,1-.89,3.27Zm0-4.46a.34.34,0,0,0-.34.34v1a.28.28,0,0,1-.16.25,1.2,1.2,0,1,0,1,0,.26.26,0,0,1-.16-.25v-1A.34.34,0,0,0,49.77,57.25Z"/><path class="c" d="M42.42,74.49a.9.9,0,1,1,.89-.9A.9.9,0,0,1,42.42,74.49Zm0-1.24a.34.34,0,0,0,0,.68.34.34,0,0,0,0-.68Z"/><path class="c" d="M74.54,61.71a1.76,1.76,0,0,1-.9-3.27v-.85a.9.9,0,0,1,1.79,0v.85a1.75,1.75,0,0,1-.89,3.27Zm0-4.46a.34.34,0,0,0-.34.34v1a.28.28,0,0,1-.16.25,1.2,1.2,0,1,0,1,0,.26.26,0,0,1-.16-.25v-1A.34.34,0,0,0,74.54,57.25Zm-.62,1.36h0Z"/><path class="c" d="M81.89,74.49a.9.9,0,1,1,0-1.79.9.9,0,0,1,0,1.79Zm0-1.24a.34.34,0,1,0,.34.34A.34.34,0,0,0,81.89,73.25Z"/><path class="e" d="M64.05,69.81c5.73.06,9.07.19,16.06.67A14.24,14.24,0,0,1,93.33,84.69l0,49.14A14.23,14.23,0,0,1,79.16,148.1H48.93a14.23,14.23,0,0,1-14.21-14.27l0-46.58C34.77,79.77,40.54,71,48,70.48c7-.48,10.33-.61,16.07-.67"/><path class="a" d="M62.29,67.89c6.44.07,9.92.22,18.65.85A12.16,12.16,0,0,1,92.25,80.85l0,52.11a12.15,12.15,0,0,1-12.15,12.16H44.43A12.15,12.15,0,0,1,32.28,133l0-52.11A12.16,12.16,0,0,1,43.63,68.74c8.73-.63,12.21-.78,18.66-.85"/><path class="a" d="M36.66,125.55H88.1v5.91a7.87,7.87,0,0,1-7.87,7.87s-12.54.62-17.94.62-17.95-.62-17.95-.62a7.87,7.87,0,0,1-7.87-7.87v-5.91Z"/><path class="k" d="M39,132.77v-5.58H88.1v-1.64H36.47v5.91a7.89,7.89,0,0,0,6.36,7.73A7.4,7.4,0,0,1,39,132.77Z"/><path class="a" d="M62.29,75.79c7.57,0,15,.51,20.37,1a8.84,8.84,0,0,1,8,8.81v14.59l-1.56.77H35.43l-1.56-.77V85.59a8.85,8.85,0,0,1,8-8.81C47.28,76.3,54.71,75.79,62.29,75.79Z"/><path class="h" d="M88.26,100.79V85.59a5.88,5.88,0,0,0-5.38-5.89c-5-.45-12.8-1-20.44-1S47,79.25,42,79.7a5.88,5.88,0,0,0-5.38,5.89v15.2Z"/><path class="c" d="M80.14,145.4H44.43A12.44,12.44,0,0,1,32,133l0-52.11A12.5,12.5,0,0,1,43.61,68.46c8.72-.62,12.21-.78,18.67-.84h0c6.47.06,9.95.22,18.67.84A12.5,12.5,0,0,1,92.53,80.85l0,52.11A12.44,12.44,0,0,1,80.14,145.4ZM62.29,68.17c-6.46.06-9.94.22-18.64.84a11.94,11.94,0,0,0-11,11.84L32.55,133a11.88,11.88,0,0,0,11.88,11.88H80.14A11.88,11.88,0,0,0,92,133l0-52.11A11.94,11.94,0,0,0,80.92,69C72.22,68.39,68.74,68.23,62.29,68.17Z"/><path class="c" d="M62.29,140.13c-5.35,0-17.83-.61-17.95-.62-4.75-.39-8.05-3.7-8.05-8V101.12a.18.18,0,0,1,.18-.18.18.18,0,0,1,.17.18v30.34c0,4.22,3.1,7.32,7.72,7.7.12,0,12.59.61,17.93.61s17.8-.61,17.93-.61c4.46-.35,7.71-3.58,7.71-7.7V101.12a.18.18,0,0,1,.18-.18.18.18,0,0,1,.17.18v30.34c0,4.31-3.38,7.69-8,8C80.11,139.52,67.63,140.13,62.29,140.13Z"/><path class="c" d="M88.07,125.79H36.66a.24.24,0,1,1,0-.48H88.07a.24.24,0,1,1,0,.48Z"/><polygon class="d" points="34.3 110.41 33.1 109.72 33.1 101.22 34.3 101.9 34.3 110.41"/><polygon class="d" points="90.42 108.2 91.62 107.51 91.62 101.77 90.42 102.46 90.42 108.2"/><path class="c" d="M90.41,108.33l-.06,0a.13.13,0,0,1-.06-.11v-5.74a.14.14,0,0,1,.06-.12l1.2-.68a.11.11,0,0,1,.13,0,.12.12,0,0,1,.07.11v5.74a.12.12,0,0,1-.07.11l-1.2.69Zm.13-5.8V108l.95-.54V102Z"/><polygon class="d" points="90.42 116.05 91.62 115.36 91.62 109.62 90.42 110.31 90.42 116.05"/><path class="c" d="M90.41,116.18l-.06,0a.11.11,0,0,1-.06-.11v-5.74a.11.11,0,0,1,.06-.11l1.2-.69a.15.15,0,0,1,.13,0,.14.14,0,0,1,.07.11v5.74a.15.15,0,0,1-.07.12l-1.2.68Zm.13-5.8v5.45l.95-.54v-5.45Z"/><g class="i"><path class="j" d="M45.3,116.59a.22.22,0,1,0-.21.22.21.21,0,0,0,.21-.22Z"/><path class="j" d="M45.3,117.47a.22.22,0,1,0-.21.22.21.21,0,0,0,.21-.22Z"/><path class="j" d="M44.54,117a.22.22,0,1,0-.21.22.21.21,0,0,0,.21-.22Z"/><path class="j" d="M44.54,116.15a.22.22,0,1,0-.21.22.21.21,0,0,0,.21-.22Z"/><path class="j" d="M45.3,115.71a.21.21,0,0,0-.21-.21.21.21,0,0,0-.22.21.21.21,0,0,0,.22.22.21.21,0,0,0,.21-.22Z"/><path class="j" d="M46.06,116.15a.22.22,0,1,0-.21.22.21.21,0,0,0,.21-.22Z"/><path class="j" d="M46.06,117a.22.22,0,1,0-.21.22.21.21,0,0,0,.21-.22Z"/><path class="j" d="M45.3,118.35a.22.22,0,1,0-.21.22.21.21,0,0,0,.21-.22Z"/><path class="j" d="M44.54,118.17a.22.22,0,0,0-.44,0,.22.22,0,0,0,.44,0Z"/><path class="j" d="M43.93,117.69a.22.22,0,1,0-.22.22.22.22,0,0,0,.22-.22Z"/><path class="j" d="M43.59,117a.22.22,0,0,0-.22-.22.22.22,0,1,0,0,.44.22.22,0,0,0,.22-.22Z"/><path class="j" d="M43.59,116.2a.22.22,0,0,0-.22-.22.22.22,0,1,0,0,.44.22.22,0,0,0,.22-.22Z"/><path class="j" d="M43.93,115.5a.22.22,0,1,0-.22.22.22.22,0,0,0,.22-.22Z"/><path class="j" d="M44.54,115a.22.22,0,1,0-.22.22.22.22,0,0,0,.22-.22Z"/><path class="j" d="M45.3,114.84a.22.22,0,1,0-.21.22.21.21,0,0,0,.21-.22Z"/><path class="j" d="M46.07,115a.22.22,0,1,0-.22.22.22.22,0,0,0,.22-.22Z"/><path class="j" d="M46.68,115.5a.22.22,0,1,0-.22.22.22.22,0,0,0,.22-.22Z"/><path class="j" d="M47,116.2a.22.22,0,1,0-.22.22.22.22,0,0,0,.22-.22Z"/><path class="j" d="M47,117a.22.22,0,1,0-.22.22A.22.22,0,0,0,47,117Z"/><path class="j" d="M46.68,117.69a.22.22,0,1,0-.22.22.22.22,0,0,0,.22-.22Z"/><path class="j" d="M46.07,118.17a.22.22,0,0,0-.44,0,.22.22,0,0,0,.44,0Z"/><path class="j" d="M45.3,119.23a.21.21,0,0,0-.21-.22.21.21,0,0,0-.22.22.22.22,0,1,0,.43,0Z"/><path class="j" d="M44.49,119.1a.22.22,0,1,0-.22.22.22.22,0,0,0,.22-.22Z"/><path class="j" d="M43.76,118.72a.22.22,0,1,0-.22.22.22.22,0,0,0,.22-.22Z"/><path class="j" d="M43.17,118.14a.22.22,0,1,0-.21.22.21.21,0,0,0,.21-.22Z"/><path class="j" d="M42.8,117.41a.22.22,0,1,0-.22.22.22.22,0,0,0,.22-.22Z"/><path class="j" d="M42.67,116.59a.22.22,0,1,0-.22.22.22.22,0,0,0,.22-.22Z"/><path class="j" d="M42.8,115.78a.22.22,0,1,0-.22.22.22.22,0,0,0,.22-.22Z"/><path class="j" d="M43.17,115a.21.21,0,0,0-.21-.21.21.21,0,0,0-.22.21.21.21,0,0,0,.22.22.21.21,0,0,0,.21-.22Z"/><path class="j" d="M43.76,114.46a.22.22,0,1,0-.22.22.22.22,0,0,0,.22-.22Z"/><path class="j" d="M44.49,114.09a.22.22,0,1,0-.22.22.22.22,0,0,0,.22-.22Z"/><path class="j" d="M45.3,114a.22.22,0,1,0-.21.22.21.21,0,0,0,.21-.22Z"/><path class="j" d="M46.12,114.09a.22.22,0,1,0-.22.22.22.22,0,0,0,.22-.22Z"/><path class="j" d="M46.85,114.46a.22.22,0,1,0-.22.22.22.22,0,0,0,.22-.22Z"/><path class="j" d="M47.43,115a.21.21,0,0,0-.21-.21A.21.21,0,0,0,47,115a.21.21,0,0,0,.22.22.21.21,0,0,0,.21-.22Z"/><path class="j" d="M47.81,115.78a.22.22,0,1,0-.22.22.22.22,0,0,0,.22-.22Z"/><path class="j" d="M47.94,116.59a.22.22,0,1,0-.22.22.22.22,0,0,0,.22-.22Z"/><path class="j" d="M47.81,117.41a.22.22,0,1,0-.22.22.22.22,0,0,0,.22-.22Z"/><path class="j" d="M47.43,118.14a.22.22,0,1,0-.21.22.21.21,0,0,0,.21-.22Z"/><path class="j" d="M46.85,118.72a.22.22,0,1,0-.22.22.22.22,0,0,0,.22-.22Z"/><path class="j" d="M46.12,119.1a.22.22,0,1,0-.22.22.22.22,0,0,0,.22-.22Z"/><path class="j" d="M45.3,120.1a.22.22,0,1,0-.21.22.21.21,0,0,0,.21-.22Z"/><path class="j" d="M44.46,120a.22.22,0,1,0-.21.22.21.21,0,0,0,.21-.22Z"/><path class="j" d="M43.67,119.7a.22.22,0,0,0-.22-.22.22.22,0,0,0,0,.44.22.22,0,0,0,.22-.22Z"/><path class="j" d="M43,119.22a.22.22,0,1,0-.22.22.22.22,0,0,0,.22-.22Z"/><path class="j" d="M42.42,118.59a.22.22,0,0,0-.22-.22.22.22,0,0,0,0,.44.22.22,0,0,0,.22-.22Z"/><path class="j" d="M42,117.84a.22.22,0,1,0-.22.22.22.22,0,0,0,.22-.22Z"/><path class="j" d="M41.82,117a.22.22,0,0,0-.44,0,.22.22,0,0,0,.44,0Z"/><path class="j" d="M41.82,116.17a.22.22,0,1,0-.22.22.22.22,0,0,0,.22-.22Z"/><path class="j" d="M42,115.35a.22.22,0,1,0-.22.22.22.22,0,0,0,.22-.22Z"/><path class="j" d="M42.42,114.6a.22.22,0,0,0-.22-.22.22.22,0,0,0,0,.44.22.22,0,0,0,.22-.22Z"/><path class="j" d="M43,114a.22.22,0,1,0-.22.22A.21.21,0,0,0,43,114Z"/><path class="j" d="M43.67,113.48a.22.22,0,0,0-.22-.22.22.22,0,0,0-.22.22.22.22,0,0,0,.22.22.21.21,0,0,0,.22-.22Z"/><path class="j" d="M44.46,113.18a.22.22,0,1,0-.43,0,.21.21,0,0,0,.22.22.21.21,0,0,0,.21-.22Z"/><path class="j" d="M45.3,113.08a.22.22,0,1,0-.21.22.21.21,0,0,0,.21-.22Z"/><path class="j" d="M46.14,113.18a.22.22,0,1,0-.43,0,.21.21,0,0,0,.22.22.21.21,0,0,0,.21-.22Z"/><path class="j" d="M46.94,113.48a.22.22,0,1,0-.44,0,.22.22,0,0,0,.44,0Z"/><path class="j" d="M47.63,114a.22.22,0,1,0-.22.22.21.21,0,0,0,.22-.22Z"/><path class="j" d="M48.19,114.6a.22.22,0,1,0-.22.22.22.22,0,0,0,.22-.22Z"/><path class="j" d="M48.59,115.35a.22.22,0,1,0-.22.22.22.22,0,0,0,.22-.22Z"/><path class="j" d="M48.79,116.17a.22.22,0,1,0-.22.22.22.22,0,0,0,.22-.22Z"/><path class="j" d="M48.79,117a.22.22,0,0,0-.44,0,.22.22,0,0,0,.44,0Z"/><path class="j" d="M48.59,117.84a.22.22,0,1,0-.22.22.22.22,0,0,0,.22-.22Z"/><path class="j" d="M48.19,118.59a.22.22,0,1,0-.22.22.22.22,0,0,0,.22-.22Z"/><path class="j" d="M47.63,119.22a.22.22,0,1,0-.22.22.22.22,0,0,0,.22-.22Z"/><path class="j" d="M46.94,119.7a.22.22,0,1,0-.22.22.22.22,0,0,0,.22-.22Z"/><path class="j" d="M46.14,120a.22.22,0,1,0-.21.22.21.21,0,0,0,.21-.22Z"/><path class="j" d="M45.3,121a.22.22,0,1,0-.21.22.21.21,0,0,0,.21-.22Z"/><path class="j" d="M44.45,120.9a.22.22,0,1,0-.22.22.22.22,0,0,0,.22-.22Z"/><path class="j" d="M43.63,120.65a.22.22,0,0,0-.22-.22.22.22,0,0,0,0,.44.22.22,0,0,0,.22-.22Z"/><path class="j" d="M42.87,120.24a.22.22,0,1,0-.22.22.22.22,0,0,0,.22-.22Z"/><path class="j" d="M42.2,119.7a.22.22,0,0,0-.44,0,.22.22,0,0,0,.44,0Z"/><path class="j" d="M41.66,119a.22.22,0,1,0-.22.22.22.22,0,0,0,.22-.22Z"/><path class="j" d="M41.25,118.27a.22.22,0,1,0-.22.22.22.22,0,0,0,.22-.22Z"/><path class="j" d="M41,117.45a.22.22,0,1,0-.22.22.22.22,0,0,0,.22-.22Z"/><path class="j" d="M40.92,116.59a.22.22,0,1,0-.22.22.22.22,0,0,0,.22-.22Z"/><path class="j" d="M41,115.74a.22.22,0,1,0-.22.22.22.22,0,0,0,.22-.22Z"/><path class="j" d="M41.25,114.91a.22.22,0,1,0-.22.22.22.22,0,0,0,.22-.22Z"/><path class="j" d="M41.66,114.15a.22.22,0,1,0-.22.22.21.21,0,0,0,.22-.22Z"/><path class="j" d="M42.2,113.49a.22.22,0,1,0-.22.22.22.22,0,0,0,.22-.22Z"/><path class="j" d="M42.87,112.94a.22.22,0,1,0-.22.22.22.22,0,0,0,.22-.22Z"/><path class="j" d="M43.63,112.54a.22.22,0,0,0-.22-.22.22.22,0,0,0,0,.44.22.22,0,0,0,.22-.22Z"/><path class="j" d="M44.45,112.29a.22.22,0,1,0-.22.22.22.22,0,0,0,.22-.22Z"/><path class="j" d="M45.3,112.2a.22.22,0,1,0-.43,0,.21.21,0,0,0,.22.22.21.21,0,0,0,.21-.22Z"/><path class="j" d="M46.16,112.29a.22.22,0,1,0-.22.22.22.22,0,0,0,.22-.22Z"/><path class="j" d="M47,112.54a.22.22,0,1,0-.22.22.22.22,0,0,0,.22-.22Z"/><path class="j" d="M47.74,112.94a.22.22,0,1,0-.22.22.22.22,0,0,0,.22-.22Z"/><path class="j" d="M48.41,113.49a.22.22,0,1,0-.22.22.22.22,0,0,0,.22-.22Z"/><path class="j" d="M49,114.15a.21.21,0,0,0-.22-.21.22.22,0,1,0,0,.43.21.21,0,0,0,.22-.22Z"/><path class="j" d="M49.36,114.91a.22.22,0,1,0-.22.22.22.22,0,0,0,.22-.22Z"/><path class="j" d="M49.61,115.74a.22.22,0,1,0-.22.22.22.22,0,0,0,.22-.22Z"/><path class="j" d="M49.69,116.59a.22.22,0,1,0-.22.22.22.22,0,0,0,.22-.22Z"/><path class="j" d="M49.61,117.45a.22.22,0,1,0-.22.22.22.22,0,0,0,.22-.22Z"/><path class="j" d="M49.36,118.27a.22.22,0,1,0-.22.22.22.22,0,0,0,.22-.22Z"/><path class="j" d="M49,119a.22.22,0,0,0-.22-.22.22.22,0,1,0,0,.44A.22.22,0,0,0,49,119Z"/><path class="j" d="M48.41,119.7a.22.22,0,1,0-.44,0,.22.22,0,0,0,.44,0Z"/><path class="j" d="M47.74,120.24a.22.22,0,1,0-.22.22.22.22,0,0,0,.22-.22Z"/><path class="j" d="M47,120.65a.22.22,0,1,0-.22.22.22.22,0,0,0,.22-.22Z"/><path class="j" d="M46.16,120.9a.22.22,0,1,0-.22.22.22.22,0,0,0,.22-.22Z"/><path class="j" d="M45.3,121.86a.22.22,0,1,0-.21.22.21.21,0,0,0,.21-.22Z"/><path class="j" d="M44.44,121.79a.22.22,0,1,0-.22.22.22.22,0,0,0,.22-.22Z"/><path class="j" d="M43.59,121.57a.22.22,0,1,0-.21.22.21.21,0,0,0,.21-.22Z"/><path class="j" d="M42.8,121.22a.22.22,0,0,0-.44,0,.22.22,0,0,0,.44,0Z"/><path class="j" d="M42.07,120.75a.22.22,0,1,0-.22.22.22.22,0,0,0,.22-.22Z"/><path class="j" d="M41.43,120.16a.22.22,0,1,0-.22.22.22.22,0,0,0,.22-.22Z"/><path class="j" d="M40.9,119.47a.22.22,0,1,0-.22.22.22.22,0,0,0,.22-.22Z"/><path class="j" d="M40.48,118.71a.22.22,0,1,0-.22.22.22.22,0,0,0,.22-.22Z"/><path class="j" d="M40.2,117.89a.22.22,0,1,0-.22.21.22.22,0,0,0,.22-.21Z"/><path class="j" d="M40.06,117a.22.22,0,1,0-.22.22.22.22,0,0,0,.22-.22Z"/><path class="j" d="M40.06,116.16a.22.22,0,1,0-.22.22.22.22,0,0,0,.22-.22Z"/><path class="j" d="M40.2,115.3a.22.22,0,1,0-.22.22.22.22,0,0,0,.22-.22Z"/><path class="j" d="M40.48,114.48a.22.22,0,1,0-.22.22.22.22,0,0,0,.22-.22Z"/><path class="j" d="M40.9,113.71a.22.22,0,1,0-.22.22.22.22,0,0,0,.22-.22Z"/><path class="j" d="M41.43,113a.22.22,0,0,0-.44,0,.22.22,0,0,0,.44,0Z"/><path class="j" d="M42.07,112.44a.22.22,0,1,0-.22.22.22.22,0,0,0,.22-.22Z"/><path class="j" d="M42.8,112a.22.22,0,1,0-.22.22.22.22,0,0,0,.22-.22Z"/><path class="j" d="M43.59,111.61a.22.22,0,1,0-.21.22.21.21,0,0,0,.21-.22Z"/><path class="j" d="M44.44,111.4a.22.22,0,1,0-.22.22.22.22,0,0,0,.22-.22Z"/><path class="j" d="M45.3,111.33a.22.22,0,1,0-.21.22.21.21,0,0,0,.21-.22Z"/><path class="j" d="M46.17,111.4a.22.22,0,1,0-.22.22.22.22,0,0,0,.22-.22Z"/><path class="j" d="M47,111.61a.22.22,0,1,0-.21.22.21.21,0,0,0,.21-.22Z"/><path class="j" d="M47.81,112a.22.22,0,1,0-.22.22.22.22,0,0,0,.22-.22Z"/><path class="j" d="M48.54,112.44a.22.22,0,1,0-.22.22.22.22,0,0,0,.22-.22Z"/><path class="j" d="M49.18,113a.22.22,0,0,0-.44,0,.22.22,0,0,0,.44,0Z"/><path class="j" d="M49.71,113.71a.22.22,0,0,0-.22-.22.22.22,0,1,0,0,.44.22.22,0,0,0,.22-.22Z"/><path class="j" d="M50.13,114.48a.22.22,0,1,0-.22.22.22.22,0,0,0,.22-.22Z"/><path class="j" d="M50.41,115.3a.22.22,0,1,0-.22.22.22.22,0,0,0,.22-.22Z"/><path class="j" d="M50.55,116.16a.22.22,0,1,0-.22.22.22.22,0,0,0,.22-.22Z"/><path class="j" d="M50.55,117a.22.22,0,1,0-.22.22.22.22,0,0,0,.22-.22Z"/><path class="j" d="M50.41,117.89a.22.22,0,1,0-.22.21.22.22,0,0,0,.22-.21Z"/><path class="j" d="M50.13,118.71a.22.22,0,1,0-.22.22.22.22,0,0,0,.22-.22Z"/><path class="j" d="M49.71,119.47a.22.22,0,0,0-.22-.22.22.22,0,0,0,0,.44.22.22,0,0,0,.22-.22Z"/><path class="j" d="M49.18,120.16a.22.22,0,1,0-.22.22.22.22,0,0,0,.22-.22Z"/><path class="j" d="M48.54,120.75a.22.22,0,1,0-.22.22.22.22,0,0,0,.22-.22Z"/><path class="j" d="M47.81,121.22a.22.22,0,1,0-.44,0,.22.22,0,1,0,.44,0Z"/><path class="j" d="M47,121.57a.22.22,0,1,0-.21.22.21.21,0,0,0,.21-.22Z"/><path class="j" d="M46.17,121.79A.22.22,0,1,0,46,122a.22.22,0,0,0,.22-.22Z"/><path class="j" d="M45.3,122.74a.22.22,0,1,0-.21.22.21.21,0,0,0,.21-.22Z"/><path class="j" d="M44.43,122.67a.22.22,0,1,0-.22.22.22.22,0,0,0,.22-.22Z"/><path class="j" d="M43.57,122.49a.22.22,0,1,0-.22.22.22.22,0,0,0,.22-.22Z"/><path class="j" d="M42.75,122.18a.22.22,0,1,0-.22.22.22.22,0,0,0,.22-.22Z"/><path class="j" d="M42,121.76a.22.22,0,0,0-.22-.22.22.22,0,0,0,0,.44.22.22,0,0,0,.22-.22Z"/><path class="j" d="M41.28,121.24a.22.22,0,0,0-.44,0,.22.22,0,1,0,.44,0Z"/><path class="j" d="M40.66,120.62a.22.22,0,0,0-.44,0,.22.22,0,0,0,.44,0Z"/><path class="j" d="M40.14,119.91a.22.22,0,0,0-.44,0,.22.22,0,0,0,.44,0Z"/><path class="j" d="M39.72,119.14a.22.22,0,1,0-.22.22.21.21,0,0,0,.22-.22Z"/><path class="j" d="M39.41,118.32a.22.22,0,1,0-.22.22.22.22,0,0,0,.22-.22Z"/><path class="j" d="M39.22,117.47a.22.22,0,0,0-.22-.22.22.22,0,0,0,0,.44.22.22,0,0,0,.22-.22Z"/><path class="j" d="M39.16,116.59a.22.22,0,1,0-.22.22.22.22,0,0,0,.22-.22Z"/><path class="j" d="M39.22,115.72a.22.22,0,0,0-.22-.22.22.22,0,0,0,0,.44.22.22,0,0,0,.22-.22Z"/><path class="j" d="M39.41,114.86a.22.22,0,1,0-.22.22.22.22,0,0,0,.22-.22Z"/><path class="j" d="M39.72,114a.22.22,0,1,0-.22.22.22.22,0,0,0,.22-.22Z"/><path class="j" d="M40.14,113.27a.22.22,0,1,0-.22.22.22.22,0,0,0,.22-.22Z"/><path class="j" d="M40.66,112.57a.22.22,0,1,0-.22.22.22.22,0,0,0,.22-.22Z"/><path class="j" d="M41.28,112a.22.22,0,1,0-.22.22.22.22,0,0,0,.22-.22Z"/><path class="j" d="M42,111.42a.22.22,0,0,0-.22-.22.22.22,0,0,0-.22.22.22.22,0,0,0,.22.22.21.21,0,0,0,.22-.22Z"/><path class="j" d="M42.75,111a.22.22,0,0,0-.44,0,.22.22,0,0,0,.44,0Z"/><path class="j" d="M43.57,110.7a.22.22,0,1,0-.22.22.22.22,0,0,0,.22-.22Z"/><path class="j" d="M44.43,110.51a.22.22,0,1,0-.22.22.22.22,0,0,0,.22-.22Z"/><path class="j" d="M45.3,110.45a.22.22,0,1,0-.21.22.21.21,0,0,0,.21-.22Z"/><path class="j" d="M46.18,110.51a.22.22,0,1,0-.22.22.22.22,0,0,0,.22-.22Z"/><path class="j" d="M47,110.7a.22.22,0,1,0-.22.22.22.22,0,0,0,.22-.22Z"/><path class="j" d="M47.86,111a.22.22,0,0,0-.44,0,.22.22,0,0,0,.44,0Z"/><path class="j" d="M48.63,111.42a.22.22,0,0,0-.44,0,.22.22,0,0,0,.44,0Z"/><path class="j" d="M49.33,112a.22.22,0,1,0-.22.22.22.22,0,0,0,.22-.22Z"/><path class="j" d="M50,112.57a.22.22,0,1,0-.22.22.22.22,0,0,0,.22-.22Z"/><path class="j" d="M50.47,113.27a.22.22,0,1,0-.22.22.22.22,0,0,0,.22-.22Z"/><path class="j" d="M50.89,114a.22.22,0,0,0-.22-.22.22.22,0,0,0,0,.44.22.22,0,0,0,.22-.22Z"/><path class="j" d="M51.2,114.86a.22.22,0,1,0-.22.22.22.22,0,0,0,.22-.22Z"/><path class="j" d="M51.39,115.72a.22.22,0,1,0-.22.22.22.22,0,0,0,.22-.22Z"/><path class="j" d="M51.45,116.59a.22.22,0,1,0-.22.22.22.22,0,0,0,.22-.22Z"/><path class="j" d="M51.39,117.47a.22.22,0,1,0-.22.22.22.22,0,0,0,.22-.22Z"/><path class="j" d="M51.2,118.32a.22.22,0,1,0-.22.22.22.22,0,0,0,.22-.22Z"/><path class="j" d="M50.89,119.14a.21.21,0,0,0-.22-.21.22.22,0,1,0,0,.43.21.21,0,0,0,.22-.22Z"/><path class="j" d="M50.47,119.91a.22.22,0,0,0-.44,0,.22.22,0,0,0,.44,0Z"/><path class="j" d="M50,120.62a.22.22,0,0,0-.44,0,.22.22,0,0,0,.44,0Z"/><path class="j" d="M49.33,121.24a.22.22,0,0,0-.44,0,.22.22,0,0,0,.44,0Z"/><path class="j" d="M48.63,121.76a.22.22,0,1,0-.22.22.22.22,0,0,0,.22-.22Z"/><path class="j" d="M47.86,122.18a.22.22,0,1,0-.22.22.22.22,0,0,0,.22-.22Z"/><path class="j" d="M47,122.49a.22.22,0,1,0-.22.22.22.22,0,0,0,.22-.22Z"/><path class="j" d="M46.18,122.67a.22.22,0,1,0-.22.22.22.22,0,0,0,.22-.22Z"/><path class="j" d="M45.3,123.61a.22.22,0,1,0-.43,0,.21.21,0,0,0,.22.22.21.21,0,0,0,.21-.22Z"/><path class="j" d="M44.46,123.56a.22.22,0,1,0-.22.22.22.22,0,0,0,.22-.22Z"/><path class="j" d="M43.62,123.41a.22.22,0,1,0-.21.22.21.21,0,0,0,.21-.22Z"/><path class="j" d="M42.81,123.16a.22.22,0,1,0-.21.22.21.21,0,0,0,.21-.22Z"/><path class="j" d="M42,122.81a.22.22,0,1,0-.22.22.22.22,0,0,0,.22-.22Z"/><path class="j" d="M41.32,122.37a.22.22,0,1,0-.22.22.22.22,0,0,0,.22-.22Z"/><path class="j" d="M40.65,121.85a.22.22,0,1,0-.22.22.22.22,0,0,0,.22-.22Z"/><path class="j" d="M40.05,121.25a.22.22,0,1,0-.22.22.22.22,0,0,0,.22-.22Z"/><path class="j" d="M39.53,120.58a.22.22,0,1,0-.22.22.22.22,0,0,0,.22-.22Z"/><path class="j" d="M39.09,119.86a.22.22,0,0,0-.44,0,.22.22,0,0,0,.44,0Z"/><path class="j" d="M38.74,119.08a.22.22,0,1,0-.22.22.22.22,0,0,0,.22-.22Z"/><path class="j" d="M38.49,118.27a.22.22,0,1,0-.22.22.22.22,0,0,0,.22-.22Z"/><path class="j" d="M38.33,117.44a.22.22,0,1,0-.21.22.21.21,0,0,0,.21-.22Z"/><path class="j" d="M38.28,116.59a.22.22,0,0,0-.22-.22.22.22,0,0,0,0,.44.22.22,0,0,0,.22-.22Z"/><path class="j" d="M38.33,115.75a.22.22,0,1,0-.21.22.21.21,0,0,0,.21-.22Z"/><path class="j" d="M38.49,114.91a.22.22,0,1,0-.22.22.22.22,0,0,0,.22-.22Z"/><path class="j" d="M38.74,114.1a.22.22,0,1,0-.22.22.22.22,0,0,0,.22-.22Z"/><path class="j" d="M39.09,113.33a.22.22,0,1,0-.22.22.22.22,0,0,0,.22-.22Z"/><path class="j" d="M39.53,112.6a.22.22,0,0,0-.44,0,.22.22,0,0,0,.44,0Z"/><path class="j" d="M40.05,111.94a.22.22,0,1,0-.22.22.22.22,0,0,0,.22-.22Z"/><path class="j" d="M40.65,111.34a.22.22,0,1,0-.22.22.22.22,0,0,0,.22-.22Z"/><path class="j" d="M41.32,110.81a.22.22,0,0,0-.44,0,.22.22,0,0,0,.44,0Z"/><path class="j" d="M42,110.38a.22.22,0,1,0-.22.21.22.22,0,0,0,.22-.21Z"/><path class="j" d="M42.81,110a.22.22,0,1,0-.21.22.21.21,0,0,0,.21-.22Z"/><path class="j" d="M43.62,109.78a.21.21,0,0,0-.21-.22.21.21,0,0,0-.22.22.21.21,0,0,0,.22.21.21.21,0,0,0,.21-.21Z"/><path class="j" d="M44.46,109.62a.22.22,0,1,0-.22.22.22.22,0,0,0,.22-.22Z"/><path class="j" d="M45.3,109.57a.22.22,0,1,0-.21.22.21.21,0,0,0,.21-.22Z"/><path class="j" d="M46.15,109.62a.22.22,0,1,0-.22.22.22.22,0,0,0,.22-.22Z"/><path class="j" d="M47,109.78a.22.22,0,0,0-.22-.22.21.21,0,0,0-.22.22.21.21,0,0,0,.22.21.21.21,0,0,0,.22-.21Z"/><path class="j" d="M47.79,110a.22.22,0,1,0-.21.22.21.21,0,0,0,.21-.22Z"/><path class="j" d="M48.57,110.38a.22.22,0,1,0-.22.21.22.22,0,0,0,.22-.21Z"/><path class="j" d="M49.29,110.81a.22.22,0,0,0-.22-.22.22.22,0,0,0-.22.22.22.22,0,0,0,.22.22.21.21,0,0,0,.22-.22Z"/><path class="j" d="M50,111.34a.22.22,0,1,0-.22.22.22.22,0,0,0,.22-.22Z"/><path class="j" d="M50.56,111.94a.22.22,0,1,0-.22.22.22.22,0,0,0,.22-.22Z"/><path class="j" d="M51.08,112.6a.22.22,0,0,0-.22-.22.22.22,0,0,0-.22.22.22.22,0,0,0,.22.22.21.21,0,0,0,.22-.22Z"/><path class="j" d="M51.52,113.33a.22.22,0,1,0-.22.22.22.22,0,0,0,.22-.22Z"/><path class="j" d="M51.87,114.1a.22.22,0,1,0-.22.22.22.22,0,0,0,.22-.22Z"/><path class="j" d="M52.12,114.91a.22.22,0,1,0-.22.22.22.22,0,0,0,.22-.22Z"/><path class="j" d="M52.27,115.75a.22.22,0,1,0-.21.22.21.21,0,0,0,.21-.22Z"/><path class="j" d="M52.33,116.59a.22.22,0,1,0-.22.22.22.22,0,0,0,.22-.22Z"/><path class="j" d="M52.27,117.44a.22.22,0,1,0-.21.22.21.21,0,0,0,.21-.22Z"/><path class="j" d="M52.12,118.27a.22.22,0,1,0-.22.22.22.22,0,0,0,.22-.22Z"/><path class="j" d="M51.87,119.08a.22.22,0,1,0-.22.22.22.22,0,0,0,.22-.22Z"/><path class="j" d="M51.52,119.86a.22.22,0,0,0-.44,0,.22.22,0,0,0,.44,0Z"/><path class="j" d="M51.08,120.58a.22.22,0,0,0-.22-.22.22.22,0,0,0,0,.44.22.22,0,0,0,.22-.22Z"/><path class="j" d="M50.56,121.25a.22.22,0,1,0-.22.22.22.22,0,0,0,.22-.22Z"/><path class="j" d="M50,121.85a.22.22,0,1,0-.22.22.22.22,0,0,0,.22-.22Z"/><path class="j" d="M49.29,122.37a.22.22,0,0,0-.22-.22.22.22,0,1,0,0,.44.22.22,0,0,0,.22-.22Z"/><path class="j" d="M48.57,122.81a.22.22,0,1,0-.22.22.22.22,0,0,0,.22-.22Z"/><path class="j" d="M47.79,123.16a.22.22,0,1,0-.21.22.21.21,0,0,0,.21-.22Z"/><path class="j" d="M47,123.41a.22.22,0,0,0-.22-.22.22.22,0,0,0,0,.44.22.22,0,0,0,.22-.22Z"/><path class="j" d="M46.15,123.56a.22.22,0,1,0-.22.22.22.22,0,0,0,.22-.22Z"/></g><path class="k" d="M82.88,79.7c-5-.45-12.8-1-20.44-1S47,79.25,42,79.7a5.88,5.88,0,0,0-5.38,5.89v15.2h.8L86.68,81.55A5.91,5.91,0,0,0,82.88,79.7Z"/><path class="c" d="M88.35,100.79h-.49V85.59a5.64,5.64,0,0,0-5.16-5.65c-3.26-.3-11.79-1-20.41-1s-17.16.68-20.42,1a5.64,5.64,0,0,0-5.16,5.65v15.2h-.48V85.59a6.12,6.12,0,0,1,5.59-6.13c3.28-.29,11.82-1,20.47-1s17.19.69,20.46,1a6.13,6.13,0,0,1,5.6,6.13Z"/><path class="c" d="M89.14,101.19H35.43a.23.23,0,0,1-.11,0l-1.56-.77a.23.23,0,0,1-.13-.21V85.59a9,9,0,0,1,8.26-9c5-.46,12.64-1,20.4-1s15.37.54,20.39,1a9,9,0,0,1,8.26,9v14.59a.23.23,0,0,1-.13.21l-1.56.77A.23.23,0,0,1,89.14,101.19Zm-53.65-.48H89.08l1.38-.68V85.59A8.56,8.56,0,0,0,82.64,77c-5-.45-12.61-1-20.35-1s-15.35.54-20.36,1a8.56,8.56,0,0,0-7.82,8.57V100Zm55.21-.53h0Z"/><path class="d" d="M54,123.09a2.17,2.17,0,0,1-.24-.29,2.21,2.21,0,0,1-.18-.34,2.15,2.15,0,0,1-.11-.36,1.69,1.69,0,0,1,0-.38V104.4a1.58,1.58,0,0,1,0-.38,1.21,1.21,0,0,1,.05-.18,1,1,0,0,1,.06-.18,2.21,2.21,0,0,1,.18-.34A1.76,1.76,0,0,1,54,103a2.43,2.43,0,0,1,.3-.24,2.11,2.11,0,0,1,.33-.18l.37-.11a2.33,2.33,0,0,1,.38,0H84.89a2.33,2.33,0,0,1,.38,0l.19.05.18.06a2.11,2.11,0,0,1,.33.18,1.74,1.74,0,0,1,.54.54,2.11,2.11,0,0,1,.18.33,2.09,2.09,0,0,1,.15.75v17.32a1.69,1.69,0,0,1,0,.38c0,.06,0,.12,0,.18a1.34,1.34,0,0,1-.07.18,2.21,2.21,0,0,1-.18.34,2.17,2.17,0,0,1-.24.29,1.76,1.76,0,0,1-.3.24,1.52,1.52,0,0,1-.33.18,2.09,2.09,0,0,1-.75.15H55.42a1.58,1.58,0,0,1-.38,0l-.19,0-.18-.07a1.52,1.52,0,0,1-.33-.18A1.76,1.76,0,0,1,54,123.09Z"/><rect class="l" x="67.38" y="104.23" width="12.36" height="8.74" rx="0.39" ry="0.39"/><path class="c" d="M79.35,113.15H67.77a.56.56,0,0,1-.57-.57v-8a.57.57,0,0,1,.57-.57H79.35a.58.58,0,0,1,.57.57v8A.57.57,0,0,1,79.35,113.15Zm-11.58-8.74a.21.21,0,0,0-.21.21v8a.21.21,0,0,0,.21.22H79.35a.21.21,0,0,0,.21-.22v-8a.21.21,0,0,0-.21-.21Z"/><rect class="a" x="61.98" y="106.5" width="4.09" height="4.09" rx="0.97" ry="0.97"/><path class="m" d="M65.1,110.58a1,1,0,0,0,1-1"/><path class="m" d="M66.07,107.47a1,1,0,0,0-1-1"/><path class="m" d="M62,109.61a1,1,0,0,0,1,1"/><path class="m" d="M63,106.5a1,1,0,0,0-1,1"/><line class="m" x1="62.96" y1="106.5" x2="65.1" y2="106.5"/><line class="m" x1="61.98" y1="107.47" x2="61.98" y2="109.61"/><line class="m" x1="62.96" y1="110.58" x2="65.1" y2="110.58"/><line class="m" x1="66.07" y1="107.47" x2="66.07" y2="109.61"/><rect class="a" x="81.05" y="106.5" width="4.09" height="4.09" rx="0.97" ry="0.97"/><path class="m" d="M85.14,107.47a1,1,0,0,0-1-1"/><path class="m" d="M84.16,110.58a1,1,0,0,0,1-1"/><path class="m" d="M82,106.5a1,1,0,0,0-1,1"/><path class="m" d="M81.05,109.61a1,1,0,0,0,1,1"/><line class="m" x1="81.05" y1="107.47" x2="81.05" y2="109.61"/><line class="m" x1="84.16" y1="110.58" x2="82.02" y2="110.58"/><line class="m" x1="85.14" y1="107.47" x2="85.14" y2="109.61"/><line class="m" x1="84.16" y1="106.5" x2="82.02" y2="106.5"/><rect class="a" x="55.21" y="104.8" width="5.84" height="5.84" rx="0.97" ry="0.97"/><path class="m" d="M60.07,110.63a1,1,0,0,0,1-1"/><path class="m" d="M61.05,105.77a1,1,0,0,0-1-1"/><path class="m" d="M55.21,109.66a1,1,0,0,0,1,1"/><path class="m" d="M56.18,104.8a1,1,0,0,0-1,1"/><line class="m" x1="56.18" y1="104.8" x2="60.07" y2="104.8"/><line class="m" x1="55.21" y1="105.77" x2="55.21" y2="109.66"/><line class="m" x1="56.18" y1="110.63" x2="60.07" y2="110.63"/><line class="m" x1="61.05" y1="105.77" x2="61.05" y2="109.66"/><rect class="a" x="55.17" y="115.48" width="5.84" height="5.84" rx="0.97" ry="0.97"/><path class="m" d="M60,121.32a1,1,0,0,0,1-1"/><path class="m" d="M61,116.45a1,1,0,0,0-1-1"/><path class="m" d="M55.17,120.35a1,1,0,0,0,1,1"/><path class="m" d="M56.15,115.48a1,1,0,0,0-1,1"/><line class="m" x1="56.15" y1="115.48" x2="60.04" y2="115.48"/><line class="m" x1="55.17" y1="116.45" x2="55.17" y2="120.35"/><line class="m" x1="56.15" y1="121.32" x2="60.04" y2="121.32"/><line class="m" x1="61.01" y1="116.45" x2="61.01" y2="120.35"/><rect class="n" x="62.05" y="115.52" width="3.95" height="3.95" rx="0.7" ry="0.7"/><path class="m" d="M65.3,119.47a.7.7,0,0,0,.7-.7"/><path class="m" d="M66,116.22a.7.7,0,0,0-.7-.7"/><path class="m" d="M62.05,118.77a.7.7,0,0,0,.7.7"/><path class="m" d="M62.75,115.52a.7.7,0,0,0-.7.7"/><line class="m" x1="62.75" y1="115.52" x2="65.3" y2="115.52"/><line class="m" x1="62.05" y1="116.22" x2="62.05" y2="118.77"/><line class="m" x1="62.75" y1="119.47" x2="65.3" y2="119.47"/><line class="m" x1="66" y1="116.22" x2="66" y2="118.77"/><rect class="n" x="66.81" y="115.52" width="3.95" height="3.95" rx="0.7" ry="0.7"/><path class="m" d="M70.06,119.47a.7.7,0,0,0,.7-.7"/><path class="m" d="M70.76,116.22a.7.7,0,0,0-.7-.7"/><path class="m" d="M66.81,118.77a.7.7,0,0,0,.7.7"/><path class="m" d="M67.51,115.52a.7.7,0,0,0-.7.7"/><line class="m" x1="67.51" y1="115.52" x2="70.06" y2="115.52"/><line class="m" x1="66.81" y1="116.22" x2="66.81" y2="118.77"/><line class="m" x1="67.51" y1="119.47" x2="70.06" y2="119.47"/><line class="m" x1="70.76" y1="116.22" x2="70.76" y2="118.77"/><rect class="n" x="71.57" y="115.52" width="3.95" height="3.95" rx="0.7" ry="0.7"/><path class="m" d="M74.82,119.47a.7.7,0,0,0,.7-.7"/><path class="m" d="M75.52,116.22a.7.7,0,0,0-.7-.7"/><path class="m" d="M71.57,118.77a.7.7,0,0,0,.7.7"/><path class="m" d="M72.27,115.52a.7.7,0,0,0-.7.7"/><line class="m" x1="72.27" y1="115.52" x2="74.82" y2="115.52"/><line class="m" x1="71.57" y1="116.22" x2="71.57" y2="118.77"/><line class="m" x1="72.27" y1="119.47" x2="74.82" y2="119.47"/><line class="m" x1="75.52" y1="116.22" x2="75.52" y2="118.77"/><rect class="n" x="76.35" y="115.52" width="3.95" height="3.95" rx="0.7" ry="0.7"/><path class="m" d="M79.6,119.47a.7.7,0,0,0,.7-.7"/><path class="m" d="M80.3,116.22a.7.7,0,0,0-.7-.7"/><path class="m" d="M76.35,118.77a.7.7,0,0,0,.7.7"/><path class="m" d="M77.05,115.52a.7.7,0,0,0-.7.7"/><line class="m" x1="77.05" y1="115.52" x2="79.6" y2="115.52"/><line class="m" x1="76.35" y1="116.22" x2="76.35" y2="118.77"/><line class="m" x1="77.05" y1="119.47" x2="79.6" y2="119.47"/><line class="m" x1="80.3" y1="116.22" x2="80.3" y2="118.77"/><rect class="n" x="81.11" y="115.52" width="3.95" height="3.95" rx="0.7" ry="0.7"/><path class="m" d="M84.36,119.47a.7.7,0,0,0,.7-.7"/><path class="m" d="M85.06,116.22a.7.7,0,0,0-.7-.7"/><path class="m" d="M81.11,118.77a.7.7,0,0,0,.7.7"/><path class="m" d="M81.81,115.52a.7.7,0,0,0-.7.7"/><line class="m" x1="81.81" y1="115.52" x2="84.36" y2="115.52"/><line class="m" x1="81.11" y1="116.22" x2="81.11" y2="118.77"/><line class="m" x1="81.81" y1="119.47" x2="84.36" y2="119.47"/><line class="m" x1="85.06" y1="116.22" x2="85.06" y2="118.77"/><rect class="a" x="66.81" y="117.3" width="3.95" height="3.95" rx="0.7" ry="0.7"/><path class="m" d="M70.06,121.25a.7.7,0,0,0,.7-.7"/><path class="m" d="M70.76,118a.7.7,0,0,0-.7-.7"/><path class="m" d="M66.81,120.55a.7.7,0,0,0,.7.7"/><path class="m" d="M67.51,117.3a.7.7,0,0,0-.7.7"/><line class="m" x1="67.51" y1="117.3" x2="70.06" y2="117.3"/><line class="m" x1="66.81" y1="118" x2="66.81" y2="120.55"/><line class="m" x1="67.51" y1="121.25" x2="70.06" y2="121.25"/><line class="m" x1="70.76" y1="118" x2="70.76" y2="120.55"/><rect class="a" x="71.57" y="117.3" width="3.95" height="3.95" rx="0.7" ry="0.7"/><path class="m" d="M74.82,121.25a.7.7,0,0,0,.7-.7"/><path class="m" d="M75.52,118a.7.7,0,0,0-.7-.7"/><path class="m" d="M71.57,120.55a.7.7,0,0,0,.7.7"/><path class="m" d="M72.27,117.3a.7.7,0,0,0-.7.7"/><line class="m" x1="72.27" y1="117.3" x2="74.82" y2="117.3"/><line class="m" x1="71.57" y1="118" x2="71.57" y2="120.55"/><line class="m" x1="72.27" y1="121.25" x2="74.82" y2="121.25"/><line class="m" x1="75.52" y1="118" x2="75.52" y2="120.55"/><rect class="a" x="76.35" y="117.3" width="3.95" height="3.95" rx="0.7" ry="0.7"/><path class="m" d="M79.6,121.25a.7.7,0,0,0,.7-.7"/><path class="m" d="M80.3,118a.7.7,0,0,0-.7-.7"/><path class="m" d="M76.35,120.55a.7.7,0,0,0,.7.7"/><path class="m" d="M77.05,117.3a.7.7,0,0,0-.7.7"/><line class="m" x1="77.05" y1="117.3" x2="79.6" y2="117.3"/><line class="m" x1="76.35" y1="118" x2="76.35" y2="120.55"/><line class="m" x1="77.05" y1="121.25" x2="79.6" y2="121.25"/><line class="m" x1="80.3" y1="118" x2="80.3" y2="120.55"/><rect class="a" x="81.11" y="117.3" width="3.95" height="3.95" rx="0.7" ry="0.7"/><path class="m" d="M84.36,121.25a.7.7,0,0,0,.7-.7"/><path class="m" d="M85.06,118a.7.7,0,0,0-.7-.7"/><path class="m" d="M81.11,120.55a.7.7,0,0,0,.7.7"/><path class="m" d="M81.81,117.3a.7.7,0,0,0-.7.7"/><line class="m" x1="81.81" y1="117.3" x2="84.36" y2="117.3"/><line class="m" x1="81.11" y1="118" x2="81.11" y2="120.55"/><line class="m" x1="81.81" y1="121.25" x2="84.36" y2="121.25"/><line class="m" x1="85.06" y1="118" x2="85.06" y2="120.55"/><rect class="a" x="62.05" y="117.3" width="3.95" height="3.95" rx="0.7" ry="0.7"/><path class="m" d="M65.3,121.25a.7.7,0,0,0,.7-.7"/><path class="m" d="M66,118a.7.7,0,0,0-.7-.7"/><path class="m" d="M62.05,120.55a.7.7,0,0,0,.7.7"/><path class="m" d="M62.75,117.3a.7.7,0,0,0-.7.7"/><line class="m" x1="62.75" y1="117.3" x2="65.3" y2="117.3"/><line class="m" x1="62.05" y1="118" x2="62.05" y2="120.55"/><line class="m" x1="62.75" y1="121.25" x2="65.3" y2="121.25"/><line class="m" x1="66" y1="118" x2="66" y2="120.55"/><path class="c" d="M84.89,123.84H55.42a3,3,0,0,1-.42,0l-.19,0-.2-.07a2.18,2.18,0,0,1-.37-.2,1.59,1.59,0,0,1-.32-.26,2.69,2.69,0,0,1-.27-.32,3.24,3.24,0,0,1-.19-.37,1.33,1.33,0,0,1-.12-.4,1.84,1.84,0,0,1-.05-.41V104.4a2.71,2.71,0,0,1,0-.41l.06-.2a1.18,1.18,0,0,1,.07-.2,1.84,1.84,0,0,1,.19-.37,2.69,2.69,0,0,1,.27-.32,1.35,1.35,0,0,1,.32-.26,1.82,1.82,0,0,1,.36-.2,1.64,1.64,0,0,1,.4-.12,2,2,0,0,1,.42,0H84.89a2,2,0,0,1,.42,0l.2.05.2.07a1.92,1.92,0,0,1,.68.46,1.69,1.69,0,0,1,.27.32,1.78,1.78,0,0,1,.19.36,1.87,1.87,0,0,1,.13.4,3,3,0,0,1,0,.42v17.32a3,3,0,0,1,0,.41,1.17,1.17,0,0,1-.06.2.68.68,0,0,1-.07.2,1.85,1.85,0,0,1-.19.37,1.69,1.69,0,0,1-.27.32,1.72,1.72,0,0,1-.32.26,3.07,3.07,0,0,1-.36.2l-.4.12A3,3,0,0,1,84.89,123.84ZM55.42,102.63a1.93,1.93,0,0,0-.68.14,1.82,1.82,0,0,0-.31.16,2.75,2.75,0,0,0-.26.22,1.44,1.44,0,0,0-.22.27,1.46,1.46,0,0,0-.17.3,1.42,1.42,0,0,0-.05.16,1.21,1.21,0,0,0,0,.18,1.87,1.87,0,0,0,0,.34v17.32a2,2,0,0,0,0,.34,1.6,1.6,0,0,0,.11.33,1.3,1.3,0,0,0,.16.31,1.72,1.72,0,0,0,.49.49,2.11,2.11,0,0,0,.3.16l.17.06.16,0a2.07,2.07,0,0,0,.35,0H84.89a2,2,0,0,0,.35,0,2.07,2.07,0,0,0,.33-.1l.31-.16a1.88,1.88,0,0,0,.26-.22,2,2,0,0,0,.22-.27,1.87,1.87,0,0,0,.17-.31.75.75,0,0,0,0-.16,1.09,1.09,0,0,0,0-.17,2,2,0,0,0,0-.34V104.4a2.07,2.07,0,0,0,0-.35c0-.11-.06-.22-.1-.33a1.87,1.87,0,0,0-.17-.31,1.78,1.78,0,0,0-.22-.26,1.44,1.44,0,0,0-.27-.22,1.46,1.46,0,0,0-.3-.16l-.16-.06-.17,0a1.39,1.39,0,0,0-.35,0Z"/><path class="c" d="M34.3,110.57a.07.07,0,0,1-.06,0l-1.2-.68a.15.15,0,0,1-.07-.12v-8.56a.12.12,0,0,1,.07-.11.09.09,0,0,1,.12,0l1.21.68a.13.13,0,0,1,.06.11v8.57a.11.11,0,0,1-.06.11A.1.1,0,0,1,34.3,110.57Zm-1.07-.89.94.54V102l-.94-.54Z"/><path class="a" d="M107.91,105.89s-.37,5.75,3.06,8.29c1.57,1.16,34.33,0,34.33,0a9.09,9.09,0,0,0,2.58-4.64,33.48,33.48,0,0,0,.48-3.65Z"/><path class="a" d="M146.24,113.21c-10.11,1.76-26,1.76-36.19,0a8.15,8.15,0,0,0,.92.94,11.45,11.45,0,0,0,4.31,2.09,44.24,44.24,0,0,0,12.86,1.51A44.24,44.24,0,0,0,141,116.27a11.34,11.34,0,0,0,4.3-2.09A6.61,6.61,0,0,0,146.24,113.21Z"/><path class="a" d="M149,104h3.15a.3.3,0,0,1,.3.22l.35,1.48a.2.2,0,0,1-.2.24H148"/><path class="c" d="M152.56,106.18H148a.27.27,0,0,1,0-.53h4.46l-.34-1.39-3.19,0a.26.26,0,1,1,0-.52h3.15a.55.55,0,0,1,.55.42l.36,1.48a.47.47,0,0,1-.08.38A.49.49,0,0,1,152.56,106.18Zm-.05-.44Z"/><path class="c" d="M127.51,118a43.2,43.2,0,0,1-12.31-1.51,12,12,0,0,1-4.4-2.15c-2.08-1.77-3.08-4.47-3.15-8.49a.27.27,0,0,1,.08-.19.25.25,0,0,1,.18-.08h40.45a.27.27,0,0,1,.27.27c-.07,4-1.08,6.72-3.16,8.49a12,12,0,0,1-4.4,2.15A43.55,43.55,0,0,1,128.14,118Zm.63-.53A43.54,43.54,0,0,0,140.92,116a11.29,11.29,0,0,0,4.21-2c1.91-1.63,2.86-4.12,3-7.83H108.18c.11,3.71,1,6.2,3,7.83a11.36,11.36,0,0,0,4.21,2A43.66,43.66,0,0,0,128.14,117.51Z"/><path class="c" d="M128.14,96.09c-3,0-3-.07-3-.37,0-.13,0-.88.48-1.09.33-.14,1.1-.82,1.1-1.14V89.66c0-.28.13-.34,1.46-.34s1.46.06,1.46.34v3.83c0,.33.76,1,1.1,1.14.49.21.48,1,.48,1.1S131.18,96.09,128.14,96.09Zm-2.51-.59c.37,0,1.22.06,2.51.06s2.14,0,2.5-.06c0-.18-.08-.35-.15-.38-.36-.16-1.42-1-1.42-1.63V89.87c-.18,0-.5,0-.93,0s-.75,0-.93,0v3.62c0,.66-1.06,1.47-1.42,1.63C125.71,95.15,125.66,95.33,125.63,95.5Z"/><path class="c" d="M126.36,96.67a.27.27,0,0,1-.27-.26v-.55a.27.27,0,1,1,.53,0v.55A.26.26,0,0,1,126.36,96.67Z"/><path class="c" d="M131.62,98h-.05c-.38-.06-1.82-.1-3.43-.1s-3,0-3.43.1a.37.37,0,0,1-.31-.13.33.33,0,0,1,0-.32l.58-1c0-.22.3-.33,3.18-.33s3.15.11,3.17.33l.58,1a.37.37,0,0,1,0,.34A.3.3,0,0,1,131.62,98Zm-3.48-.63c1.31,0,2.46,0,3.1.07l-.37-.64c-.29,0-1.29-.09-2.73-.09s-2.45,0-2.74.09l-.36.64C125.68,97.36,126.82,97.33,128.14,97.33Z"/><path class="c" d="M129.92,96.67a.26.26,0,0,1-.26-.26v-.55a.26.26,0,0,1,.26-.27.27.27,0,0,1,.26.27v.55A.26.26,0,0,1,129.92,96.67Z"/><path class="a" d="M128.14,97.77c21.42,0,21.31,6.14,21.44,7.91a.23.23,0,0,1-.23.24H106.92a.22.22,0,0,1-.22-.24C106.82,103.91,106.72,97.77,128.14,97.77Z"/><path class="c" d="M149.35,106.18H106.92a.48.48,0,0,1-.48-.52v-.12c.12-2,.5-8,21.69-8s21.57,6,21.69,8v.12a.47.47,0,0,1-.13.36A.48.48,0,0,1,149.35,106.18ZM128.14,98c-20.69,0-21,5.67-21.17,7.54v.13l21.18,0h21.21l0-.08C149.19,103.7,148.83,98,128.14,98Z"/><path class="c" d="M128.14,89.79a.25.25,0,0,1-.26-.26V51.31a.26.26,0,0,1,.26-.27.27.27,0,0,1,.26.27V89.53A.26.26,0,0,1,128.14,89.79Z"/></svg>
