<svg width="7" height="15" viewBox="0 0 7 15" fill="none" xmlns="http://www.w3.org/2000/svg">
<g clip-path="url(#clip0)">
<path d="M3.88038 8.88354H3.10729V10.1205H0.183594V14.2952H0.956686V10.8936H6.04504V14.2952H6.81813V10.1205H3.88038V8.88354Z" fill="white"/>
<path d="M3.5 8.63052C5.4257 8.63052 7 7.19679 7 5.4257C7 5.17269 6.98594 4.91968 6.90161 4.68072C6.76104 4.28715 6.59237 3.97791 6.38153 3.66867C6.14257 3.30321 5.62249 2.62851 5.25703 1.99598C4.58233 0.843373 4.03414 0 4.03414 0L2.34739 3.0502L1.19478 2.23494C1.19478 2.23494 1.01205 2.53012 0.801205 3.10643C0.590361 3.66867 0.281125 4.18876 0.168675 4.58233C0.0421687 4.9759 0 5.14458 0 5.4257C0 7.19679 1.56024 8.63052 3.5 8.63052Z" fill="white"/>
</g>
<defs>
<clipPath id="clip0">
<rect width="7" height="14.2952" fill="white"/>
</clipPath>
</defs>
</svg>
