<?xml version="1.0" encoding="UTF-8"?>
<svg width="30px" height="38px" viewBox="0 0 30 38" version="1.1" xmlns="http://www.w3.org/2000/svg" xmlns:xlink="http://www.w3.org/1999/xlink">
    <!-- Generator: Sketch 46.2 (44496) - http://www.bohemiancoding.com/sketch -->
    <title>BioLite-Icon-Only</title>
    <desc>Created with Sketch.</desc>
    <defs>
        <polygon id="path-1" points="29.705 0.348826102 29.705 25 0.000141555983 25 0.000141555983 0.348826102"></polygon>
        <polygon id="path-3" points="0.672115771 0.607023256 13.6971725 0.607023256 13.6971725 30.6600444 0.672115771 30.6600444"></polygon>
    </defs>
    <g id="Main" stroke="none" stroke-width="1" fill="none" fill-rule="evenodd">
        <g id="Choose-Your-Region-Overlay---Desktop" transform="translate(-385.000000, -200.000000)">
            <g id="Choose-Your-Region" transform="translate(1.000000, -1.000000)">
                <g id="BioLite-Icon-Only" transform="translate(384.000000, 201.000000)">
                    <g id="Group-3" transform="translate(0.000000, 13.000000)">
                        <mask id="mask-2" fill="white">
                            <use xlink:href="#path-1"></use>
                        </mask>
                        <g id="Clip-2"></g>
                        <path d="M0.000142857143,10.1467143 C-0.00128571429,6.726 1.17371429,3.57528571 3.11014286,1.07242857 C3.73728571,0.258142857 4.90728571,0.108857143 5.72085714,0.738142857 C6.533,1.366 6.683,2.53457143 6.05442857,3.34814286 C4.59228571,5.24242857 3.723,7.57885714 3.72228571,10.1467143 C3.73371429,16.2945714 8.70585714,21.266 14.8537143,21.2774286 C21.0001429,21.266 25.9722857,16.2945714 25.9837143,10.1467143 C25.9815714,7.57885714 25.113,5.24242857 23.6515714,3.34814286 C23.0222857,2.53457143 23.1715714,1.366 23.9858571,0.738142857 C24.8001429,0.108857143 25.968,0.258142857 26.5965714,1.07242857 C28.533,3.57528571 29.7072857,6.726 29.7051429,10.1467143 C29.7037143,18.3524286 23.0565714,24.9995714 14.8537143,25.0002857 C6.64942857,24.9995714 0.00157142857,18.3524286 0.000142857143,10.1467143" id="Fill-1" fill="#252728" mask="url(#mask-2)"></path>
                    </g>
                    <g id="Group-6" transform="translate(8.000000, 0.000000)">
                        <mask id="mask-4" fill="white">
                            <use xlink:href="#path-3"></use>
                        </mask>
                        <g id="Clip-5"></g>
                        <path d="M7.14028,1.27943488 C13.09588,9.23129535 16.16538,17.1110628 11.25558,25.8278302 C10.60318,26.9863651 9.12268,26.1572953 9.57418,25.0110163 C9.79468,24.4494116 11.44528,20.8195279 9.58398,14.9374581 C8.91268,12.8157605 8.19798,12.9073186 7.16338,14.3311558 C6.29608,15.7456209 1.84688,21.5858767 6.81548,28.9653186 C7.55818,30.2514581 6.06648,31.1994814 5.10118,30.3149 C-2.68282,24.6101791 1.78388,15.6165744 3.61998,10.3645977 C5.32798,5.48101628 5.13128,3.72266744 5.22788,1.9116907 C5.29088,0.721434884 6.25338,0.00771395349 7.14028,1.27943488" id="Fill-4" fill="#252728" mask="url(#mask-4)"></path>
                    </g>
                </g>
            </g>
        </g>
    </g>
</svg>
