<?xml version="1.0" encoding="utf-8"?>
<!-- Generator: Adobe Illustrator 18.1.1, SVG Export Plug-In . SVG Version: 6.00 Build 0)  -->
<!DOCTYPE svg PUBLIC "-//W3C//DTD SVG 1.1//EN" "http://www.w3.org/Graphics/SVG/1.1/DTD/svg11.dtd">
<svg version="1.1" id="Layer_1" xmlns="http://www.w3.org/2000/svg" xmlns:xlink="http://www.w3.org/1999/xlink" x="0px" y="0px"
	 viewBox="0 0 500 159" enable-background="new 0 0 500 159" xml:space="preserve">
<g>
	<g>
		<g>
			<path fill="#00A59F" d="M212.8,116.9c0,8.6-3,14.9-9,18.8c-6,3.9-14.6,5.8-25.7,5.8c-8.8,0-15.4-0.4-19.7-1.2
				c-2-0.4-3.4-1-4.2-1.8c-0.8-0.8-1.3-2.3-1.3-4.4V62.2c0-2,0.4-3.4,1.1-4.3c0.8-0.9,2.1-1.5,4-1.9c4.9-0.7,11.3-1.1,19-1.1
				c23.4,0,35.1,7.7,35.1,23.2v2.3c0,3.9-0.9,7.4-2.7,10.4c-1.8,3.1-4.4,5.4-7.8,6.8c7.4,3.1,11,8.9,11,17.3V116.9z M196.9,80.6
				v-1.7c0-4.1-1.5-7.1-4.4-8.7c-2.9-1.7-8.1-2.5-15.4-2.5c-2.3,0-5.1,0.1-8.4,0.3v23.7h14.5C192.3,91.7,196.9,88,196.9,80.6z
				 M197.3,116.8v-1.5c0-3.6-1.1-6.6-3.3-8.8c-2.2-2.3-5.8-3.4-10.7-3.4h-14.5v25.5c0.9,0,2.5,0,4.8,0.1c2.3,0.1,3.8,0.1,4.6,0.1
				c7.1,0,12-0.9,14.9-2.8C195.9,124,197.3,121,197.3,116.8z"/>
			<path fill="#00A59F" d="M239.6,65.4c0,0.6-0.2,1.1-0.7,1.6c-0.5,0.5-1,0.7-1.6,0.7h-11c-0.6,0-1.1-0.2-1.6-0.7
				c-0.5-0.4-0.7-1-0.7-1.6v-10c0-0.6,0.2-1.1,0.7-1.6c0.5-0.5,1-0.7,1.6-0.7h11c0.6,0,1.1,0.2,1.6,0.7c0.5,0.5,0.7,1,0.7,1.6V65.4z
				 M239.3,138.2c0,0.6-0.2,1.1-0.7,1.6c-0.5,0.5-1,0.8-1.6,0.8h-10.5c-0.6,0-1.1-0.3-1.6-0.8c-0.5-0.5-0.7-1-0.7-1.6V78.5
				c0-0.6,0.2-1.1,0.7-1.6c0.5-0.5,1-0.7,1.6-0.7H237c0.6,0,1.1,0.2,1.6,0.7c0.5,0.5,0.7,1,0.7,1.6V138.2z"/>
			<path fill="#00A59F" d="M304.7,113.1c0,8.4-2.4,15.3-7.1,20.5c-4.8,5.3-11.5,7.9-20.2,7.9c-8.7,0-15.4-2.6-20.1-7.9
				c-4.7-5.2-7.1-12.1-7.1-20.6v-9.2c0-8.4,2.4-15.3,7.1-20.5c4.7-5.3,11.4-7.9,20.1-7.9c8.7,0,15.4,2.6,20.2,7.9
				c4.8,5.2,7.1,12.1,7.1,20.6V113.1z M289.7,113.1v-9.3c0-4.8-1-8.7-3.2-11.4c-2.1-2.8-5.1-4.2-9.1-4.2c-4,0-7,1.4-9.1,4.2
				c-2.1,2.8-3.1,6.6-3.1,11.4v9.3c0,4.8,1,8.7,3.1,11.4c2.1,2.8,5.1,4.2,9.1,4.2c4,0,7-1.4,9.1-4.2
				C288.6,121.8,289.7,118,289.7,113.1z"/>
			<path fill="#F8A900" d="M364.2,137.5c0,0.7-0.2,1.3-0.5,1.7c-0.3,0.4-0.9,0.6-1.8,0.8c-4.6,1.1-11,1.6-19.4,1.6
				c-4,0-7.5-0.3-10.5-0.9c-2.9-0.6-5.7-1.8-8.2-3.4c-2.5-1.6-4.5-4-5.7-7.2c-1.3-3.2-1.9-7.1-1.9-11.8V58.1c0-0.6,0.2-1.1,0.7-1.6
				c0.4-0.5,1-0.7,1.6-0.7h11.2c0.6,0,1.1,0.2,1.6,0.7c0.5,0.5,0.7,1,0.7,1.6v60c0,3.7,0.7,6.3,2,7.7c1.3,1.4,3.6,2.1,7,2.1h21
				c0.6,0,1.1,0.2,1.6,0.7c0.5,0.4,0.7,1,0.7,1.6V137.5z"/>
			<path fill="#F8A900" d="M388.6,65.4c0,0.6-0.2,1.1-0.7,1.6c-0.5,0.5-1,0.7-1.6,0.7h-11c-0.6,0-1.1-0.2-1.6-0.7
				c-0.5-0.4-0.7-1-0.7-1.6v-10c0-0.6,0.2-1.1,0.7-1.6c0.5-0.5,1-0.7,1.6-0.7h11c0.6,0,1.1,0.2,1.6,0.7c0.5,0.5,0.7,1,0.7,1.6V65.4z
				 M388.3,138.2c0,0.6-0.2,1.1-0.7,1.6c-0.5,0.5-1,0.8-1.6,0.8h-10.5c-0.6,0-1.1-0.3-1.6-0.8c-0.5-0.5-0.7-1-0.7-1.6V78.5
				c0-0.6,0.2-1.1,0.7-1.6c0.5-0.5,1-0.7,1.6-0.7H386c0.6,0,1.1,0.2,1.6,0.7c0.5,0.5,0.7,1,0.7,1.6V138.2z"/>
			<path fill="#F8A900" d="M438,138.7c0,1.1-0.7,1.8-2.2,2c-3.2,0.5-5.8,0.8-7.7,0.8c-6.8,0-11.5-1.2-14.2-3.6
				c-2.7-2.4-4-7.2-4-14.5V87.7l-10.7-1.4c-1.5-0.3-2.3-1.1-2.3-2.4v-5.3c0-0.6,0.2-1.2,0.7-1.6c0.5-0.5,1-0.7,1.6-0.7h10.7V67
				c0-1.2,0.8-2,2.3-2.3l10.6-1.8h0.4c1.2,0,1.8,0.6,1.8,1.7v11.7h10.3c0.6,0,1.1,0.2,1.6,0.7c0.5,0.5,0.7,1,0.7,1.6v6.8
				c0,0.6-0.2,1.1-0.7,1.6c-0.4,0.5-1,0.7-1.6,0.7H425v36c0,2.9,0.2,4.7,0.7,5.4c0.4,0.7,1.7,1,3.8,1h6c1.6,0,2.4,0.6,2.4,1.7V138.7
				z"/>
			<path fill="#F8A900" d="M498.2,110.8c0,1.9-0.8,2.9-2.3,2.9h-37.2v0.3c0,4.1,1,7.6,3.1,10.4c2.1,2.8,5.6,4.3,10.6,4.3
				c6,0,13-0.4,21-1.2h0.3c1.4,0,2.1,0.6,2.1,1.7v7.6c0,1.8-0.8,2.8-2.4,3c-7,1.1-14.4,1.7-22.1,1.6c-3.1,0-6.2-0.5-9.2-1.4
				c-3-0.9-6-2.4-8.8-4.4c-2.9-2-5.2-5-7-8.9c-1.8-3.9-2.6-8.6-2.6-13.9v-8.4c0-9,2.4-16.1,7.2-21.2c4.8-5.2,11.5-7.7,20.2-7.7
				c8.6,0,15.3,2.6,20,7.9c4.8,5.3,7.1,12.3,7.1,21.1V110.8z M483.1,102.9v-0.5c0-4.5-1.1-8-3.3-10.5c-2.2-2.5-5.1-3.8-8.7-3.8
				c-3.6,0-6.6,1.3-8.9,3.8c-2.3,2.5-3.4,6-3.4,10.5v0.5H483.1z"/>
		</g>
	</g>
	<g>
		<g>
			<path fill="#00A59F" d="M1.8,95c0-14,4.8-26.9,12.7-37.2l0,0c2.6-3.3,7.4-3.9,10.7-1.4l0,0c3.3,2.6,3.9,7.4,1.4,10.7l0,0
				C20.6,74.9,17,84.4,17,95l0,0c0,25.2,20.4,45.6,45.6,45.6l0,0c25.2,0,45.6-20.4,45.6-45.6l0,0c0-10.5-3.6-20.1-9.6-27.9l0,0
				c-2.6-3.3-2-8.1,1.4-10.7l0,0c3.3-2.6,8.1-2,10.7,1.4l0,0C118.7,68,123.6,81,123.5,95l0,0c0,33.6-27.3,60.9-60.9,60.9l0,0
				C29,155.9,1.8,128.6,1.8,95L1.8,95z"/>
			<path fill="#F8A900" d="M60.9,5.9c24.9,32.3,37.8,64.3,17.2,99.7c-2.7,4.7-8.9,1.3-7-3.3c0.9-2.3,7.8-17,0-40.9
				c-2.8-8.6-5.8-8.2-10.1-2.5c-3.6,5.7-22.2,29.5-1.5,59.4c3.1,5.2-3.1,9.1-7.2,5.5c-32.6-23.2-13.9-59.7-6.2-81
				c7.1-19.8,6.3-27,6.7-34.3C53.2,3.6,57.2,0.7,60.9,5.9"/>
		</g>
	</g>
</g>
</svg>
