<?xml version="1.0" encoding="UTF-8" standalone="no"?>
<svg width="13px" height="14px" viewBox="0 0 13 14" version="1.1" xmlns="http://www.w3.org/2000/svg" xmlns:xlink="http://www.w3.org/1999/xlink">
    <!-- Generator: sketchtool 41.2 (35397) - http://www.bohemiancoding.com/sketch -->
    <title>259DE3BB-9746-4B09-8DE4-3B76B859DA9E</title>
    <desc>Created with sketchtool.</desc>
    <defs></defs>
    <g id="Main" stroke="none" stroke-width="1" fill="none" fill-rule="evenodd">
        <g id="Nav-Main---Stoves-Active" transform="translate(-991.000000, -9.000000)" fill="#5D5D5D">
            <g id="Super-Nav">
                <g id="My-Account" transform="translate(991.666667, 9.000000)">
                    <g id="MyAccount-Icon">
                        <path d="M1.17038511,12.789541 L10.8296149,12.789541 C10.5446923,10.3997442 8.48742362,8.53971863 5.99985789,8.53971863 C3.51243428,8.53971863 1.45530766,10.3997442 1.17038511,12.789541 M11.431576,13.9263891 L0.568424044,13.9263891 C0.254511866,13.9263891 0,13.6718772 0,13.357965 C0,10.0743214 2.69148785,7.40287054 5.99985789,7.40287054 C9.30837004,7.40287054 12,10.0743214 12,13.357965 C12,13.6718772 11.7454881,13.9263891 11.431576,13.9263891 M5.99985789,1.13684809 C4.62896121,1.13684809 3.51357112,2.24086969 3.51357112,3.59783999 C3.51357112,4.95495239 4.62896121,6.0591161 5.99985789,6.0591161 C7.37089669,6.0591161 8.48614466,4.95495239 8.48614466,3.59783999 C8.48614466,2.24086969 7.37089669,1.13684809 5.99985789,1.13684809 M5.99985789,7.19596419 C4.00213159,7.19596419 2.37672304,5.58178201 2.37672304,3.59783999 C2.37672304,1.61389797 4.00213159,0 5.99985789,0 C7.9977263,0 9.62299275,1.61389797 9.62299275,3.59783999 C9.62299275,5.58178201 7.9977263,7.19596419 5.99985789,7.19596419" id="ACCOUNT"></path>
                    </g>
                </g>
            </g>
        </g>
    </g>
</svg>
