<svg id="Layer_1" data-name="Layer 1" xmlns="http://www.w3.org/2000/svg" xmlns:xlink="http://www.w3.org/1999/xlink" viewBox="0 0 190.83 193.89"><defs><style>.cls-1{fill:url(#linear-gradient);}</style><linearGradient id="linear-gradient" x1="28.81" y1="51.25" x2="192.6" y2="163.62" gradientUnits="userSpaceOnUse"><stop offset="0" stop-color="#c14f27"/><stop offset="0.23" stop-color="#00917b"/><stop offset="0.37" stop-color="#02939f"/><stop offset="0.55" stop-color="#0988af"/><stop offset="0.66" stop-color="#3d7db8"/><stop offset="0.78" stop-color="#736daf"/><stop offset="0.88" stop-color="#995896"/><stop offset="1" stop-color="#ac4570"/></linearGradient></defs><path class="cls-1" d="M59,22,69.77,7.87c.69-.2,1.38-.39,2.08-.57l-.14.19L61,21.52C60.29,21.68,59.62,21.84,59,22Zm34.73-1.4,17.69-15,0,0-1.69-.27L92,20.34Zm-77,29.48.74-2.59.1-.35-.15,0c-.79,1.23-1.54,2.48-2.27,3.74l-.64,2.22C15.14,52.07,15.87,51.07,16.64,50.1ZM77.05,19.4,91.25,4.45l.1-.1c-.63,0-1.27.06-1.9.1l-14.25,15C75.81,19.42,76.43,19.41,77.05,19.4ZM34,33.62,38.72,24l.16-.33-.05,0c-.76.59-1.52,1.19-2.26,1.81l-4.78,9.8C32.52,34.66,33.27,34.14,34,33.62Zm12.38-7.08,7.52-12.25.18-.29c-.75.38-1.5.76-2.24,1.16l-7.61,12.4C45,27.21,45.67,26.88,46.39,26.54ZM24.11,41.78l2.44-6.43.13-.34-.1,0c-.78.86-1.53,1.73-2.27,2.62l-2.46,6.47C22.59,43.28,23.34,42.52,24.11,41.78ZM151.74,65.56l28.55-6.13c-.18-.41-.37-.82-.55-1.22l-28.56,6.13C151.38,64.74,151.55,65.15,151.74,65.56ZM109.66,25.29l21-14.16-1.46-.58L108.21,24.7Zm48.61,62.43,29.27-1.85c0-.44-.11-.87-.16-1.3l-29.3,1.86C158.15,86.86,158.21,87.29,158.27,87.72ZM156,77l29.1-3.91c-.11-.43-.22-.85-.34-1.27l-29.13,3.91C155.74,76.11,155.86,76.54,156,77ZM145.13,54l27.51-8.42-.76-1.12-27.54,8.42C144.61,53.2,144.87,53.58,145.13,54ZM124,33l23.71-12.63c-.4-.28-.81-.55-1.23-.82L122.73,32.13Zm11.92,9.86,25.91-10.65c-.33-.34-.65-.67-1-1L134.87,41.82C135.21,42.15,135.55,42.47,135.88,42.81ZM67.23,160.75,43.16,173.57l1.23.82,24.08-12.83C68.06,161.3,67.64,161,67.23,160.75Zm77.58,6-7.89,12.86-.18.29c.75-.38,1.5-.76,2.24-1.16l8-13C146.26,166.05,145.54,166.4,144.81,166.74Zm-14.54,5.09L119.12,186.4l-.14.19c.7-.18,1.39-.37,2.08-.57l11.26-14.72C131.64,171.48,131,171.67,130.27,171.83ZM32.9,106.15,3.29,108c.06.44.11.87.17,1.3l29.65-1.88ZM174.4,143.1l-1,3.28-.1.34.16.05c.78-1.23,1.54-2.48,2.26-3.74l.86-3C175.91,141.1,175.16,142.11,174.4,143.1ZM167,151.47l-2.69,7.07-.13.33.11,0c.77-.86,1.52-1.73,2.26-2.62l2.72-7.14C168.49,150,167.74,150.72,167,151.47ZM188.2,96.75c0-.44,0-.87,0-1.31H43.84l112.8-7.15c0-.15,0-.31,0-.46h.08c-.06-.43-.12-.86-.19-1.29h0c0-.28-.08-.57-.12-.85L39.48,93.08l115-15.46c-.25-.86-.49-1.71-.76-2.56L35.55,91,150.32,66.31c-.37-.82-.77-1.63-1.17-2.43L32,89l111.74-34.2c-.52-.76-1-1.52-1.6-2.26L28.92,87.22,134.6,43.79c-.66-.66-1.32-1.32-2-2,0,0,0,0,0,0L26.18,85.5l96.57-51.44c-.84-.56-1.68-1.1-2.54-1.63L23.78,83.8l84.74-57.26c-1-.4-2-.77-3-1.13L21.7,82l70.89-60c-1.15-.19-2.3-.36-3.47-.51L19.87,80.13,76.05,21c-1.3.06-2.59.15-3.88.26L18.24,78,60.06,23.37c-1.44.37-2.85.79-4.26,1.23L16.74,75.66l28.82-47c-1.56.76-3.08,1.58-4.58,2.43L15.31,73,33.25,36.12C31.6,37.34,30,38.64,28.45,40L13.87,69.91l9.58-25.22q-2.61,2.7-4.95,5.62L12.36,66.47l3.75-13C15,55,13.93,56.58,12.93,58.2c-.69,1.21-1.35,2.43-2,3.67l-.21.73.11-.53c-.27.53-.53,1.07-.79,1.61l.13-.61C9.35,64.69,8.55,66.33,7.82,68l-.4,1.91c-.32.88-.63,1.76-.92,2.65l.24-1.73H6.67c-.14.37-.29.72-.43,1.08A93.22,93.22,0,0,0,3.85,83.05,77.42,77.42,0,0,0,2.63,96.76c0,.44,0,.88,0,1.32H34.47v0H147.39l-113,7.16c.12.87.25,1.73.4,2.59l116.88-7.41L36.61,115.86c.24.85.49,1.7.76,2.53l118.2-15.89L40.72,127.16c.37.82.77,1.62,1.17,2.42l117.16-25.16L47.2,138.65c.52.76,1,1.51,1.6,2.24L162.15,106.2,56.32,149.69c.67.68,1.35,1.33,2,2L164.86,107.9,68.14,159.43c.82.56,1.65,1.1,2.5,1.62l96.6-51.46L82.35,167c1,.39,2,.77,3,1.12l84-56.73-71,60.08c1.14.19,2.29.36,3.45.5l69.38-58.69-56.28,59.2c1.3-.05,2.59-.15,3.87-.27l54-56.85L130.88,170c1.41-.36,2.82-.76,4.2-1.2l39.14-51.16-28.85,47c1.53-.75,3-1.54,4.51-2.38l25.76-42-18,37c1.63-1.21,3.21-2.47,4.75-3.8l14.67-30.12-9.64,25.37c1.72-1.78,3.36-3.65,4.91-5.59l6.22-16.37-3.79,13.15c1.34-1.88,2.61-3.82,3.79-5.82.44-.8.88-1.59,1.3-2.41l.31-1.08-.16.78c.31-.61.61-1.24.9-1.87l-.09.45c.87-1.7,1.67-3.43,2.42-5.2l.35-1.7c.3-.8.57-1.61.84-2.43l-.26,1.84c.37-1,.72-1.92,1.05-2.89h0a92.6,92.6,0,0,0,2.07-11,77.82,77.82,0,0,0,.89-11h0c0-.22,0-.44,0-.66v-.19Zm-74,77.31L99.58,189.44l-.1.1,1.9-.1L116.09,174C115.46,174,114.83,174,114.19,174.06Zm42.95-14.44-5,10.32-.16.33.05,0c.76-.59,1.52-1.18,2.26-1.8L159.39,158C158.65,158.54,157.9,159.08,157.14,159.62ZM39.47,128.25l-28.92,6.21c.18.41.36.81.55,1.22l28.95-6.22C39.86,129.06,39.66,128.66,39.47,128.25Zm6.59,11.57-27.87,8.53c.25.38.51.76.77,1.13L46.85,141Zm51.51,33.1L79.46,188.23l0,0c.56.1,1.12.2,1.68.28L99.26,173.2Zm-62.34-56-29.48,4c.11.43.22.85.34,1.27l29.51-4C35.48,117.72,35.35,117.3,35.23,116.88Zm20.06,34.06L29,161.73l1,1,26.28-10.8Zm26.26,17.41-21.32,14.4,1.46.59L83,168.93Z"/></svg>