<?xml version="1.0" encoding="UTF-8" standalone="no"?>
<svg width="19px" height="23px" viewBox="0 0 19 23" version="1.1" xmlns="http://www.w3.org/2000/svg" xmlns:xlink="http://www.w3.org/1999/xlink">
    <!-- Generator: sketchtool 41.2 (35397) - http://www.bohemiancoding.com/sketch -->
    <title>F0B55288-C47F-42F3-B274-D3CF308EEDFF</title>
    <desc>Created with sketchtool.</desc>
    <defs></defs>
    <g id="Symbols" stroke="none" stroke-width="1" fill="none" fill-rule="evenodd">
        <g id="Our-Story" transform="translate(-72.000000, -33.000000)" fill="#00B2B0">
            <g id="OurStory-Icon">
                <path d="M79.6399424,45.0047308 L86.8593292,45.0047308 L86.8593292,41.0715103 L79.6399424,41.0715103 L79.6399424,45.0047308 Z M87.380187,40.0297946 L79.1190845,40.0297946 C78.8312734,40.0297946 78.5982267,40.2631389 78.5982267,40.5506524 L78.5982267,45.5255886 C78.5982267,45.8133998 78.8312734,46.0464464 79.1190845,46.0464464 L87.380187,46.0464464 C87.6679982,46.0464464 87.9010448,45.8133998 87.9010448,45.5255886 L87.9010448,40.5506524 C87.9010448,40.2631389 87.6679982,40.0297946 87.380187,40.0297946 L87.380187,40.0297946 Z M87.9010448,48.6549023 C87.9010448,48.9427135 87.6679982,49.1757601 87.380187,49.1757601 L79.1190845,49.1757601 C78.8312734,49.1757601 78.5982267,48.9427135 78.5982267,48.6549023 C78.5982267,48.3670912 78.8312734,48.1340445 79.1190845,48.1340445 L87.380187,48.1340445 C87.6679982,48.1340445 87.9010448,48.3670912 87.9010448,48.6549023 L87.9010448,48.6549023 Z M87.9010448,51.6731989 C87.9010448,51.9610101 87.6679982,52.1940567 87.380187,52.1940567 L79.1190845,52.1940567 C78.8312734,52.1940567 78.5982267,51.9610101 78.5982267,51.6731989 C78.5982267,51.3856854 78.8312734,51.1523411 79.1190845,51.1523411 L87.380187,51.1523411 C87.6679982,51.1523411 87.9010448,51.3856854 87.9010448,51.6731989 L87.9010448,51.6731989 Z M87.9010448,37.1507903 C87.9010448,37.4383038 87.6679982,37.6716481 87.380187,37.6716481 L79.1190845,37.6716481 C78.8312734,37.6716481 78.5982267,37.4383038 78.5982267,37.1507903 C78.5982267,36.8629792 78.8312734,36.6299325 79.1190845,36.6299325 L87.380187,36.6299325 C87.6679982,36.6299325 87.9010448,36.8629792 87.9010448,37.1507903 L87.9010448,37.1507903 Z M88.7210239,54.4569607 L76.1960305,54.4569607 C76.4240174,54.1051585 76.5579523,53.6878769 76.5579523,53.2396416 C76.5579523,53.1961872 76.5511067,53.1542209 76.5409872,53.1134452 L76.5409872,41.2673528 C76.5511067,41.2268747 76.5579523,41.1849084 76.5579523,41.1411564 C76.5579523,41.0971067 76.5511067,41.0554381 76.5409872,41.01496 L76.5409872,34.0417156 L89.9582844,34.0417156 L89.9582844,53.2396416 C89.9582844,53.9108041 89.4031988,54.4569607 88.7210239,54.4569607 L88.7210239,54.4569607 Z M73.0417156,53.2396416 L73.0417156,41.6620142 L75.4992716,41.6620142 L75.4992716,53.2396416 C75.4992716,53.268512 75.5031408,53.2964895 75.5076053,53.3238717 C75.4629604,53.9551514 74.931983,54.4569607 74.2789761,54.4569607 C73.5968012,54.4569607 73.0417156,53.9108041 73.0417156,53.2396416 L73.0417156,53.2396416 Z M90.4791422,33 L76.0201294,33 C75.7323182,33 75.4992716,33.2330467 75.4992716,33.5208578 L75.4992716,40.6202986 L72.5208578,40.6202986 C72.2330467,40.6202986 72,40.8533452 72,41.1411564 L72,53.2396416 C72,54.4852358 73.0223695,55.4986763 74.2789761,55.4986763 L88.7210239,55.4986763 C89.808575,55.4986763 90.7196297,54.7388192 90.9449379,53.7274621 C90.9791657,53.657816 91,53.5813243 91,53.4985823 L91,33.5208578 C91,33.2330467 90.7669533,33 90.4791422,33 L90.4791422,33 Z"></path>
            </g>
        </g>
    </g>
</svg>
