<svg xmlns="http://www.w3.org/2000/svg" viewBox="0 0 992 186"><defs><style>.a{fill:#231f20;}</style></defs><title>poh_wordmark</title><path class="a" d="M156.15,125.76a1.25,1.25,0,0,1,0,2.5h-8.07a11.55,11.55,0,0,1-9.12-4.09A12,12,0,0,1,136.65,114l7.69-33.57a1.25,1.25,0,0,1,2.44.56l-7.68,33.53a9.55,9.55,0,0,0,1.8,8,9.11,9.11,0,0,0,7.21,3.18h8.05ZM93.74,37.68l-19.14,87c-2.86,9.61-6.56,16-11.65,20.1a30.23,30.23,0,0,1-15,6.61,26.54,26.54,0,0,1-3.49.23,29.69,29.69,0,0,1-11.55-2.41h0c-3.88-1.41-9.89-4.6-12.52-11.38l-.28-.77,0-.12a8.19,8.19,0,0,1,1-6.3A8.08,8.08,0,0,1,26.15,127a8.45,8.45,0,0,1,10,6.21l0,.11a14.8,14.8,0,0,1,.17,3.3,32.69,32.69,0,0,0,1.35,11.63,25.48,25.48,0,0,0,9.91.7,27.73,27.73,0,0,0,13.74-6.08c4.69-3.8,8.12-9.77,10.81-18.78l19-86.41H82.49L59.4,138.62a1.25,1.25,0,1,1-2.44-.56l23-100.38H51.54c-11.61,0-20.66,6.42-22.52,16a18,18,0,0,0,3.54,14.81,13.47,13.47,0,0,0,10.53,5.06,1.25,1.25,0,0,1,0,2.5,15.93,15.93,0,0,1-12.46-6,20.56,20.56,0,0,1-4.06-16.87c2.09-10.77,12.13-18,25-18h68.81a11,11,0,0,1,8.7,3.89,11.37,11.37,0,0,1,2.19,9.6l-7.62,33.95c4.3-5.49,10.67-9.08,17.27-9.08a15.25,15.25,0,0,1,12,5.55,18,18,0,0,1,3.37,15l-6.07,28.15a1.25,1.25,0,0,1-1.22,1,1.23,1.23,0,0,1-.26,0,1.25,1.25,0,0,1-1-1.49l6.06-28.12A15.47,15.47,0,0,0,151,80.67,12.79,12.79,0,0,0,140.89,76c-9.11,0-17.78,7.76-19.74,17.67a1.18,1.18,0,0,1-.06.15l-7.46,33.21a6496.53,6496.53,0,0,0-.12.29,1.21,1.21,0,0,1-.15.23l-.12.13a1.23,1.23,0,0,1-.24.16l-.13.07a1.23,1.23,0,0,1-.45.09H99a1.25,1.25,0,0,1-1.22-1.53l19.28-83.57a1.25,1.25,0,1,1,2.44.56l-18.93,82h10.83L128.8,48.16a8.9,8.9,0,0,0-1.67-7.49,8.55,8.55,0,0,0-6.77-3H93.74ZM34.84,147.23a35.39,35.39,0,0,1-1-10.79,12.26,12.26,0,0,0-.14-2.69,5.94,5.94,0,0,0-7-4.32A5.6,5.6,0,0,0,23.17,132a5.71,5.71,0,0,0-.68,4.33l.24.67C25.23,143.43,31.57,146.2,34.84,147.23ZM484,126.81l11.66-51.13h-6.78a1.25,1.25,0,1,1,0-2.5h20.35a1.25,1.25,0,0,1,1.22,1.5l-1.65,8A21.9,21.9,0,0,1,522.16,74a1.24,1.24,0,0,1,.29-.08l.56-.06.17,0h.09c2.63-.17,10.9-.11,16,6.42l.44.58.07.11a7.47,7.47,0,0,1,.85,5.73,7.34,7.34,0,0,1-7.13,5.53,7.62,7.62,0,0,1-6.53-3.7l-.05-.1a13.47,13.47,0,0,1-1-2.78,29.25,29.25,0,0,0-3.89-9.08c-7.36,1.51-13.9,8.53-15.53,16.94,0,0,0,.06,0,.09l-6.78,32.62A14.62,14.62,0,0,1,485.36,138H258.67a1.25,1.25,0,0,1,0-2.5H485.36a12.12,12.12,0,0,0,11.89-9.77l10.4-50.06h-9.47L486.4,127.37a1.25,1.25,0,0,1-2.44-.56Zm40.9-50.46a31.87,31.87,0,0,1,3.52,8.73,10.9,10.9,0,0,0,.81,2.22A5.05,5.05,0,0,0,536,89.07a4.8,4.8,0,0,0,2.23-3,5,5,0,0,0-.54-3.77l-.38-.5C533.69,77.19,527.93,76.41,524.86,76.35ZM214.25,136.76a1.25,1.25,0,0,0-1.25-1.25H88.25a1.25,1.25,0,1,0,0,2.5H213A1.25,1.25,0,0,0,214.25,136.76Zm108.12-63h.22a20.37,20.37,0,0,1,16.08,7.28c4.2,5.1,5.78,12.27,4.34,19.69-2.84,14.61-16.45,26.49-30.33,26.49h-.39a20.32,20.32,0,0,1-15.7-7.27c-4.2-5.1-5.78-12.27-4.34-19.69,2.81-14.44,16.14-26.21,29.85-26.48Zm.07,2.5h-.26c-6,.23-13.08,11.33-15.63,24.46-1.85,9.52-1,18.18,2.24,22.08a4.84,4.84,0,0,0,3.12,1.88l.66,0c6-.12,13.16-11.27,15.72-24.46,1.85-9.52,1-18.18-2.24-22.08A4.7,4.7,0,0,0,322.43,76.31Zm-16.09,47.44c-3.3-4.72-4.17-13.57-2.25-23.45,1.88-9.69,6-18,10.59-22.62a31.5,31.5,0,0,0-20,23.09c-1.3,6.68.09,13.11,3.81,17.63A17.13,17.13,0,0,0,306.34,123.75Zm22-46.6c3.4,4.68,4.33,13.62,2.38,23.63-1.91,9.85-6.09,18.27-10.82,22.84a31.44,31.44,0,0,0,20.64-23.32c1.3-6.68-.09-13.11-3.81-17.63A17.17,17.17,0,0,0,328.35,77.15Zm240.82,50.12h-.38a20.32,20.32,0,0,1-15.7-7.27c-4.2-5.09-5.78-12.27-4.34-19.69,2.81-14.44,16.14-26.21,29.85-26.48h.48a20.38,20.38,0,0,1,16.09,7.28c4.2,5.1,5.78,12.27,4.34,19.69C596.67,115.38,583.06,127.27,569.18,127.27Zm15.6-27c1.85-9.52,1-18.18-2.24-22.08a4.7,4.7,0,0,0-3.61-1.91h-.26c-6,.23-13.08,11.33-15.63,24.46-1.85,9.52-1,18.18,2.24,22.08a4.84,4.84,0,0,0,3.12,1.88l.66,0C575,124.64,582.22,113.49,584.78,100.3Zm-21.94,23.45c-3.3-4.72-4.17-13.57-2.25-23.45,1.88-9.69,6-18,10.59-22.62a31.5,31.5,0,0,0-20,23.09c-1.3,6.69.09,13.11,3.82,17.63A17.12,17.12,0,0,0,562.84,123.75Zm13.57-.14a31.45,31.45,0,0,0,20.64-23.32c1.3-6.68-.09-13.11-3.82-17.63a17.17,17.17,0,0,0-8.39-5.52c3.4,4.68,4.33,13.62,2.38,23.63C585.32,110.62,581.15,119,576.41,123.62Zm211.94-49.8h.48a20.38,20.38,0,0,1,16.09,7.28c4.2,5.1,5.78,12.27,4.34,19.69-2.84,14.61-16.45,26.49-30.33,26.49h-.38a20.32,20.32,0,0,1-15.7-7.27c-4.2-5.09-5.78-12.27-4.34-19.69C761.31,85.86,774.64,74.09,788.35,73.82Zm-10.21,50.91.66,0c6-.12,13.16-11.27,15.72-24.46,1.85-9.52,1-18.18-2.24-22.08a4.7,4.7,0,0,0-3.61-1.91h-.26c-6,.23-13.08,11.33-15.63,24.46-1.85,9.52-1,18.18,2.24,22.08A4.84,4.84,0,0,0,778.15,124.73ZM794.6,77.15c3.4,4.68,4.33,13.62,2.38,23.63-1.91,9.85-6.08,18.27-10.82,22.84A31.45,31.45,0,0,0,806.8,100.3c1.3-6.68-.09-13.11-3.82-17.63A17.17,17.17,0,0,0,794.6,77.15ZM761,100.78c-1.3,6.69.09,13.11,3.82,17.63a17.12,17.12,0,0,0,7.82,5.35c-3.3-4.72-4.17-13.57-2.25-23.45,1.88-9.69,6-18,10.59-22.62A31.5,31.5,0,0,0,761,100.78ZM170.47,120.83c-4.2-5.1-5.78-12.27-4.34-19.69,2.81-14.44,16.13-26.21,29.85-26.48h.48l.11,0c4.44-.52,8,.51,10,3,5,6.25-.89,19.4-13.49,29.94a50.51,50.51,0,0,1-9.33,6.31,1.25,1.25,0,0,1-1.17-2.21,47.54,47.54,0,0,0,8.89-6c11.16-9.34,17.18-21.46,13.15-26.46-1.88-2.33-5.85-2.82-11-1.44-5.35,2.57-11,12.43-13.21,23.81-1.85,9.52-1,18.18,2.24,22.08a4.84,4.84,0,0,0,3.12,1.88c.26,0,.52,0,.78,0,8.14,0,16.69-4.63,22.29-12.1a1.25,1.25,0,0,1,2,1.5c-6.07,8.08-15.37,13.09-24.29,13.09h-.39A20.31,20.31,0,0,1,170.47,120.83Zm1.93-1.59a17.12,17.12,0,0,0,7.82,5.35c-3.3-4.72-4.17-13.57-2.25-23.45,1.88-9.69,6-18,10.59-22.62a31.5,31.5,0,0,0-20,23.09C167.28,108.29,168.67,114.72,172.4,119.24ZM462.79,74.65h.48l.11,0c4.44-.52,8,.51,10,3,5,6.25-.89,19.4-13.49,29.94a54.28,54.28,0,0,1-13.27,8.31,15.81,15.81,0,0,0,2.87,7.76,4.84,4.84,0,0,0,3.12,1.88c.26,0,.52,0,.78,0,8.14,0,16.68-4.63,22.29-12.1a1.25,1.25,0,0,1,2,1.5c-6.07,8.08-15.37,13.09-24.29,13.09H453a20.32,20.32,0,0,1-15.7-7.27c-4.2-5.1-5.78-12.27-4.34-19.69C435.74,86.69,449.07,74.92,462.79,74.65Zm-2.35,3.15c-5.35,2.57-11,12.43-13.21,23.81a47.72,47.72,0,0,0-.89,11.7,52.54,52.54,0,0,0,11.92-7.62c11.16-9.34,17.17-21.46,13.15-26.46C469.52,76.91,465.56,76.42,460.43,77.8Zm-25,23.81c-1.3,6.68.09,13.11,3.81,17.63a17.12,17.12,0,0,0,7.82,5.35c-3.3-4.72-4.17-13.57-2.25-23.45,1.88-9.69,6-18,10.59-22.62A31.5,31.5,0,0,0,435.39,101.61ZM341.91,75.68h10.91a5.34,5.34,0,0,1,5.31,4.77l5.15,46.62a1.25,1.25,0,0,0,1.24,1.11h.14a1.19,1.19,0,0,0,.26-.08,1.17,1.17,0,0,0,.13.11,1.25,1.25,0,0,0,1.69-.52l23.87-45.22,5.62,44.63a1.25,1.25,0,0,0,1.24,1.09h.16a.15.15,0,0,1,.25,0,1.25,1.25,0,0,0,1.69-.52l25.79-48.86a1.25,1.25,0,1,0-2.21-1.17l-24.73,46.84-2.14-17L411,80.61a9.41,9.41,0,0,1,8.31-4.93h19.1a1.25,1.25,0,0,0,0-2.5h-19.1a11.9,11.9,0,0,0-10.5,6.24l-13.09,23.83-3.08-24.48a1.19,1.19,0,0,0-.06-.19,1.23,1.23,0,0,0-.59-1.45,1.25,1.25,0,0,0-1.69.52l-24.8,47-1.79-16.25,14.95-27.76A9.41,9.41,0,0,1,387,75.68h12.53a1.25,1.25,0,0,0,0-2.5H387a11.9,11.9,0,0,0-10.51,6.25L363.24,104l-2.63-23.83a7.84,7.84,0,0,0-7.8-7H341.91a1.25,1.25,0,0,0,0,2.5Zm399.45,2.07-14.48,63.87a13.63,13.63,0,0,1-13.17,10.56l-6,.07-92.35-.08a1.25,1.25,0,0,1,0-2.5h0l92.34.08,6-.07a11.13,11.13,0,0,0,10.76-8.62L738.8,77.75h-9.63l-15.73,68.62a1.25,1.25,0,0,1-2.44-.56l15.6-68.06H695.06l-11.43,49.62a1.25,1.25,0,0,1-1.22,1H671.08a1.25,1.25,0,0,1-1.22-1.53L681,77.75H627.48L616,127.43c-2.86,9.6-6.55,16-11.65,20.08a30.25,30.25,0,0,1-15,6.62,28.59,28.59,0,0,1-3.76.25,28.93,28.93,0,0,1-15.69-4.64,1.25,1.25,0,1,1,1.36-2.1,26.35,26.35,0,0,0,17.76,4,27.75,27.75,0,0,0,13.74-6.08c4.69-3.8,8.12-9.77,10.81-18.78l11.3-49H616l-15.35,66a1.25,1.25,0,0,1-1.22,1,1.29,1.29,0,0,1-.28,0,1.25,1.25,0,0,1-.93-1.5l18.74-80.54C621.2,45.93,632.63,36,647.53,36a20.67,20.67,0,0,1,14.65,5.64,15.81,15.81,0,0,1,4.06,5.84l.25.68,0,.12a7.39,7.39,0,0,1-.82,5.69,7.28,7.28,0,0,1-4.57,3.35,7.4,7.4,0,0,1-1.74.21A7.64,7.64,0,0,1,652,51.77l0-.11a13.25,13.25,0,0,1-.18-2.95,28.78,28.78,0,0,0-1.21-10,21.24,21.24,0,0,0-3.1-.23c-13.68,0-24.2,9.26-28.15,24.77l-2.79,12h8.91l5.72-24.82a1.25,1.25,0,1,1,2.44.56l-5.59,24.26H681.6l8.86-38.93a1.25,1.25,0,0,1,1.22-1h0l11.56.06a1.25,1.25,0,0,1,1.21,1.53l-8.82,38.31h31.54l8.92-38.94a1.25,1.25,0,0,1,1.22-1h12.1a1.25,1.25,0,0,1,1.22,1.53l-8.7,38.38h20.58a1.25,1.25,0,0,1,0,2.5ZM664.13,48.93l-.22-.59a12.74,12.74,0,0,0-1.35-2.5l-.05,0a17.62,17.62,0,0,0-1.95-2.26,19.07,19.07,0,0,0-7.09-4,31.49,31.49,0,0,1,.88,9.33,10.74,10.74,0,0,0,.14,2.34,5.11,5.11,0,0,0,6.08,3.65,4.8,4.8,0,0,0,3-2.21A4.9,4.9,0,0,0,664.13,48.93Zm20,26.32h8.91l8.6-37.35-9,0Zm8.33,2.5h-8.9l-10.95,48.09h8.77Zm46.87-2.5,8.48-37.41h-9.54l-8.57,37.41ZM977.1,100.43a48.43,48.43,0,0,1-12.34,16.29c-8.72,7.61-19,11.56-28,11.56-6.84,0-12.94-2.28-17-7l-1.38-1.73-.06-.08c-3.4-5.07-4.55-11.63-3.24-18.48,2.8-14.66,16.13-26.6,29.85-26.87h.48l.11,0c4.45-.53,8,.52,10,3.05,5,6.33-.9,19.67-13.48,30.36A54.1,54.1,0,0,1,928.67,116a15.78,15.78,0,0,0,2.87,7.75,4.68,4.68,0,0,0,3.67,1.91,1.22,1.22,0,0,1,.55.14c8.6.3,18.76-3.47,27.36-11A45.93,45.93,0,0,0,974.83,99.4a1.25,1.25,0,1,1,2.28,1ZM942.49,77.3c-5.35,2.61-11,12.63-13.2,24.19a48.8,48.8,0,0,0-.88,11.91,52.38,52.38,0,0,0,11.9-7.73c11.16-9.49,17.18-21.81,13.14-26.9C951.58,76.39,947.61,75.9,942.49,77.3Zm-13.42,47.31c-3.27-4.73-4.14-13.62-2.23-23.59s6-18.33,10.64-23a31.83,31.83,0,0,0-20,23.48c-1.18,6.18-.17,12.07,2.83,16.58l1.31,1.64A17.22,17.22,0,0,0,929.07,124.61Zm-662.17-87-24,104.66A14.06,14.06,0,0,1,229.43,153l-8.77,0h-63a1.25,1.25,0,0,1,0-2.5l71.75,0a11.53,11.53,0,0,0,11-8.76l23.87-104.1h-9.53L229.94,146.37a1.25,1.25,0,1,1-2.44-.56L252.24,37.63l-25.43,0a1.25,1.25,0,0,1,0-2.5h0l26.74,0a1.23,1.23,0,0,1,.54,0h0l11.48,0a1.22,1.22,0,0,1,.59,0l.06,0,18.34,0a20.47,20.47,0,0,1,16.18,7.22c3.94,4.78,5.39,11.15,4.07,17.94-2.41,12.44-13.65,22.75-25.95,24.43a8,8,0,0,1-1.41.18h0l-.08,0c-.65.05-1.31.08-2,.08H260.53a1.25,1.25,0,0,1,0-2.5h14.88a23.51,23.51,0,0,0,3-.21c5.74-1.27,12-11.25,14.09-22.76,1.52-8.44.51-16.21-2.57-19.78a4.92,4.92,0,0,0-4-1.91,1.22,1.22,0,0,1-.56-.13c-.27,0-.54,0-.82,0Zm25.87,1.72c2.89,4.47,3.75,12.15,2.23,20.61-1.49,8.29-4.88,15.57-8.95,20.09,8.08-3.74,14.63-11.39,16.34-20.22,1.17-6-.09-11.68-3.55-15.87A16.75,16.75,0,0,0,292.77,39.37Zm606.47,86.88,8.91-38.61a11,11,0,0,0-10.7-13.2h0l-.6,0c-.53,0-1.2,0-1.74,0-7,.26-15.18,4.53-20,11.17a10.7,10.7,0,0,0-11.14-11h-1.45c-7,0-14,4.17-18.28,10.3A10.88,10.88,0,0,0,841.8,78a11,11,0,0,0-8.72-3.89l-17.79.2a1.25,1.25,0,0,0-1.24,1.26,1.23,1.23,0,0,0,1.26,1.24l17.78-.2a8.55,8.55,0,0,1,6.77,3,8.91,8.91,0,0,1,1.67,7.51l-8.15,38.66h-9.71l10.09-44.9a1.25,1.25,0,1,0-2.44-.55l-10.43,46.42a1.25,1.25,0,0,0,1.22,1.52h12.31a1.25,1.25,0,0,0,1.22-1l7-32.54C844.52,84.94,853.45,77,862.52,77H864a8.55,8.55,0,0,1,6.77,3,8.89,8.89,0,0,1,1.68,7.48l-9.22,38.25h-9.44L864,82.27a1.25,1.25,0,0,0-2.43-.57l-10.59,45a1.25,1.25,0,0,0,1.22,1.54h12a1.57,1.57,0,0,0,1.38-1l8.17-32.59c2-10.11,12.89-17.51,21.43-17.82h.68l-12.78,54.48a1.25,1.25,0,0,0,2.43.57L898.37,77a8.47,8.47,0,0,1,5.61,3.1,8.37,8.37,0,0,1,1.73,7l-8.91,38.63a12.08,12.08,0,0,1-11.9,9.64H743.67a1.25,1.25,0,0,0,0,2.5H884.9A14.58,14.58,0,0,0,899.25,126.25ZM557.67,150.49h-304a1.25,1.25,0,0,0,0,2.5h304a1.25,1.25,0,0,0,0-2.5Zm403.87-.83H777a1.25,1.25,0,0,0,0,2.5H961.54a1.25,1.25,0,0,0,0-2.5Z"/></svg>
