<svg xmlns="http://www.w3.org/2000/svg" viewBox="0 0 992 186"><defs><style>.a{fill:#231f20;}</style></defs><title>poh_wordmark-r2</title><path class="a" d="M340.66,74.42a1.25,1.25,0,0,1,1.25-1.25h10.9a7.84,7.84,0,0,1,7.8,7L363.24,104l13.25-24.57A11.9,11.9,0,0,1,387,73.18h12.53a1.25,1.25,0,0,1,0,2.5H387a9.41,9.41,0,0,0-8.34,5l-15,27.76,1.79,16.25,24.8-47h0a1.25,1.25,0,0,1,1.69-.52,1.23,1.23,0,0,1,.59,1.45,1.19,1.19,0,0,1,.06.19l3.08,24.48,13.09-23.83a11.9,11.9,0,0,1,10.5-6.24h19.1a1.25,1.25,0,0,1,0,2.5h-19.1A9.41,9.41,0,0,0,411,80.61l-14.72,26.87,2.14,17,24.73-46.84a1.25,1.25,0,0,1,2.21,1.17l-25.79,48.86h0a1.25,1.25,0,0,1-1.69.52l0,0a.15.15,0,0,0-.21,0h-.16a1.25,1.25,0,0,1-1.24-1.09l-5.62-44.63-23.87,45.22h0a1.25,1.25,0,0,1-1.69.52l-.13-.11a1.19,1.19,0,0,1-.26.08h-.14a1.25,1.25,0,0,1-1.24-1.11l-5.15-46.62a5.34,5.34,0,0,0-5.31-4.77H341.91A1.25,1.25,0,0,1,340.66,74.42ZM484,126.81h0l11.66-51.13h-6.78a1.25,1.25,0,0,1,0-2.5h20.35a1.25,1.25,0,0,1,1.22,1.5l-1.65,8A21.9,21.9,0,0,1,522.16,74a1.24,1.24,0,0,1,.29-.08l.56-.06h.26c2.63-.17,10.9-.11,16,6.42l.44.58.07.11a7.47,7.47,0,0,1,.85,5.73,7.34,7.34,0,0,1-7.13,5.53,7.62,7.62,0,0,1-6.53-3.7l0-.1a13.47,13.47,0,0,1-1-2.78A29.25,29.25,0,0,0,522,76.57c-7.36,1.51-13.9,8.53-15.53,16.94v.09l-6.78,32.62A14.62,14.62,0,0,1,485.36,138H258.67a1.25,1.25,0,0,1,0-2.5H485.36a12.12,12.12,0,0,0,11.89-9.77l10.4-50.06h-9.47l-11.78,51.7a1.25,1.25,0,1,1-2.44-.56ZM524.9,76.35a31.87,31.87,0,0,1,3.52,8.73,10.9,10.9,0,0,0,.81,2.22A5.05,5.05,0,0,0,536,89.07a4.8,4.8,0,0,0,2.23-3,5,5,0,0,0-.54-3.77l-.38-.5C533.71,77.21,528,76.42,524.9,76.35ZM433,101.07c2.78-14.38,16.11-26.15,29.83-26.42h.59c4.44-.52,8,.51,10,3,5,6.25-.89,19.4-13.49,29.94a54.28,54.28,0,0,1-13.27,8.31,15.81,15.81,0,0,0,2.87,7.76,4.84,4.84,0,0,0,3.12,1.88h.78c8.14,0,16.68-4.63,22.29-12.1a1.25,1.25,0,0,1,2,1.5C471.61,123,462.31,128,453.39,128H453a20.32,20.32,0,0,1-15.7-7.27C433.1,115.66,431.52,108.49,433,101.07ZM460.44,77.8c-5.35,2.57-11,12.43-13.21,23.81a47.72,47.72,0,0,0-.89,11.7,52.54,52.54,0,0,0,11.92-7.62c11.16-9.34,17.17-21.46,13.15-26.46-1.89-2.32-5.85-2.81-11-1.43Zm-25,23.81c-1.3,6.68.09,13.11,3.81,17.63a17.12,17.12,0,0,0,7.82,5.35c-3.3-4.72-4.17-13.57-2.25-23.45,1.88-9.69,6-18,10.59-22.62a31.5,31.5,0,0,0-20,23.09ZM788.35,73.82v-.09h.48A20.38,20.38,0,0,1,804.91,81c4.2,5.1,5.78,12.27,4.34,19.69-2.84,14.61-16.45,26.49-30.33,26.49h-.38a20.32,20.32,0,0,1-15.7-7.27c-4.2-5.09-5.78-12.27-4.34-19.69C761.31,85.86,774.64,74.09,788.35,73.82Zm6.25,3.33c3.4,4.68,4.33,13.62,2.38,23.63-1.91,9.85-6.08,18.27-10.82,22.84A31.45,31.45,0,0,0,806.8,100.3c1.3-6.68-.09-13.11-3.82-17.63A17.17,17.17,0,0,0,794.6,77.15Zm-21.83,23.5c-1.85,9.52-1,18.18,2.24,22.08a4.84,4.84,0,0,0,3.14,2l0-.09h.66c6-.12,13.16-11.27,15.72-24.46,1.85-9.52,1-18.18-2.24-22.08a4.7,4.7,0,0,0-3.61-1.91h-.26C782.4,76.42,775.32,87.52,772.77,100.65Zm-11.77.13c-1.3,6.69.09,13.11,3.82,17.63a17.12,17.12,0,0,0,7.82,5.35c-3.3-4.72-4.17-13.57-2.25-23.45,1.88-9.69,6-18,10.59-22.62A31.5,31.5,0,0,0,761,100.78Zm1.51-23.09-21.15.06-14.48,63.87a13.63,13.63,0,0,1-13.17,10.56l-6,.07-92.35-.08a1.25,1.25,0,0,1,0-2.5l92.34.08,6-.07a11.13,11.13,0,0,0,10.76-8.62L738.8,77.75h-9.63l-15.73,68.62a1.25,1.25,0,1,1-2.44-.56l15.6-68.06H695.06l-11.43,49.62a1.25,1.25,0,0,1-1.22,1H671.08a1.25,1.25,0,0,1-1.22-1.53L681,77.75H627.48L616,127.43c-2.86,9.6-6.55,16-11.65,20.08a30.25,30.25,0,0,1-15,6.62,28.59,28.59,0,0,1-3.76.25,28.93,28.93,0,0,1-15.69-4.64,1.25,1.25,0,0,1,1.36-2.1,26.35,26.35,0,0,0,17.76,4,27.75,27.75,0,0,0,13.74-6.08c4.69-3.8,8.12-9.77,10.81-18.78l11.3-49H616l-15.35,66a1.25,1.25,0,0,1-1.22,1,1.29,1.29,0,0,1-.28,0,1.25,1.25,0,0,1-.93-1.5L617,62.74C621.2,45.93,632.63,36,647.53,36a20.67,20.67,0,0,1,14.65,5.64,15.81,15.81,0,0,1,4.06,5.84l.25.68v.12a7.39,7.39,0,0,1-.82,5.69,7.28,7.28,0,0,1-4.57,3.35,7.4,7.4,0,0,1-1.74.21A7.64,7.64,0,0,1,652,51.77v-.11a13.25,13.25,0,0,1-.18-3,28.78,28.78,0,0,0-1.21-10,21.24,21.24,0,0,0-3.1-.23c-13.68,0-24.2,9.26-28.15,24.77l-2.79,12h8.91l5.72-24.82a1.25,1.25,0,1,1,2.44.56L628,75.25H681.6l8.86-38.93a1.25,1.25,0,0,1,1.22-1l11.56.06a1.25,1.25,0,0,1,1.21,1.53l-8.82,38.31h31.54l8.92-38.94a1.25,1.25,0,0,1,1.22-1h12.1a1.25,1.25,0,0,1,1.22,1.53l-8.7,38.38h20.58a1.25,1.25,0,0,1,0,2.5Zm-109-38.11a31.49,31.49,0,0,1,.88,9.33,10.74,10.74,0,0,0,.14,2.34,5.11,5.11,0,0,0,6.08,3.65,4.8,4.8,0,0,0,3-2.21,4.9,4.9,0,0,0,.56-3.76l-.22-.59a12.74,12.74,0,0,0-1.35-2.5h0a17.62,17.62,0,0,0-2-2.26A19.07,19.07,0,0,0,653.47,39.58Zm39,38.17h-8.9l-11,48.09h8.77Zm9.18-39.85h-9l-8.51,37.35H693Zm46.17-.06h-9.54L729.7,75.25h9.63ZM322.1,73.78l.27,0h.22A20.37,20.37,0,0,1,338.67,81c4.2,5.1,5.78,12.27,4.34,19.69-2.84,14.61-16.45,26.49-30.33,26.49h-.39a20.32,20.32,0,0,1-15.7-7.27c-4.2-5.1-5.78-12.27-4.34-19.69C295.06,85.82,308.39,74,322.1,73.78Zm6.29,3.38c3.36,4.7,4.28,13.6,2.34,23.57s-6.09,18.27-10.82,22.84a31.44,31.44,0,0,0,20.64-23.32c1.3-6.68-.09-13.11-3.81-17.63A17.17,17.17,0,0,0,328.39,77.16Zm-21.84,23.56c-1.85,9.52-1,18.18,2.24,22.08a4.84,4.84,0,0,0,3.12,1.88h.66c6-.12,13.16-11.27,15.72-24.46,1.85-9.52,1-18.18-2.24-22.08a4.7,4.7,0,0,0-3.62-1.83v-.05h-.26C316.18,76.49,309.1,87.59,306.55,100.72Zm-11.86,0c-1.3,6.68.09,13.11,3.81,17.63a17.13,17.13,0,0,0,7.84,5.4v-.05c-3.3-4.72-4.17-13.57-2.25-23.45,1.88-9.69,6-18,10.59-22.62A31.5,31.5,0,0,0,294.69,100.72Zm274.49,26.55v0h-.38a20.32,20.32,0,0,1-15.7-7.27c-4.2-5.09-5.78-12.27-4.34-19.69C551.56,85.82,564.89,74,578.6,73.78h.48a20.38,20.38,0,0,1,16.09,7.28c4.2,5.1,5.78,12.27,4.34,19.69C596.67,115.38,583.06,127.27,569.18,127.27Zm-6.34-3.52v-.08c-3.3-4.72-4.17-13.57-2.25-23.45,1.88-9.69,6-18,10.59-22.62a31.5,31.5,0,0,0-20,23.09c-1.3,6.69.09,13.11,3.82,17.63A17.12,17.12,0,0,0,562.84,123.75Zm21.94-23.45v-.08c1.85-9.52,1-18.18-2.24-22.08a4.7,4.7,0,0,0-3.61-1.91h-.26c-6,.23-13.08,11.33-15.63,24.46-1.85,9.52-1,18.18,2.24,22.08a4.84,4.84,0,0,0,3.12,1.88H569C575,124.64,582.22,113.49,584.78,100.3Zm12.26-.09c1.3-6.68-.09-13.11-3.82-17.63a17.17,17.17,0,0,0-8.39-5.52c3.4,4.68,4.33,13.62,2.38,23.63-1.87,9.83-6,18.13-10.66,22.78A31.45,31.45,0,0,0,597,100.21Zm380.16,0a1.25,1.25,0,0,1-.09.21v0a48.43,48.43,0,0,1-12.34,16.29c-8.72,7.61-19,11.56-28,11.56-6.84,0-12.94-2.28-17-7l-1.38-1.73-.06-.08c-3.4-5.07-4.55-11.63-3.24-18.48,2.8-14.66,16.13-26.6,29.85-26.87h.59c4.45-.53,8,.52,10,3,5,6.33-.9,19.67-13.48,30.36A54.1,54.1,0,0,1,928.67,116a15.78,15.78,0,0,0,2.87,7.75,4.68,4.68,0,0,0,3.67,1.91,1.22,1.22,0,0,1,.55.14c8.6.3,18.76-3.47,27.36-11a45.93,45.93,0,0,0,11.71-15.4,1.25,1.25,0,0,1,2.37.79Zm-47.91,1.3a48.8,48.8,0,0,0-.88,11.91,52.38,52.38,0,0,0,11.9-7.73c11.16-9.49,17.18-21.81,13.14-26.9-1.87-2.38-5.84-2.87-11-1.47C937.14,79.91,931.49,89.93,929.29,101.49Zm-.22,23.12c-3.27-4.73-4.14-13.62-2.23-23.59s6-18.33,10.64-23a31.83,31.83,0,0,0-20,23.48c-1.18,6.18-.17,12.07,2.83,16.58l1.31,1.64A17.22,17.22,0,0,0,929.07,124.61Zm32.47,25H777a1.25,1.25,0,0,0,0,2.5H961.54a1.25,1.25,0,0,0,0-2.5Zm-62.29-23.41v0l8.91-38.61a11,11,0,0,0-10.7-13.2h-2.34c-7,.26-15.18,4.53-20,11.17a10.7,10.7,0,0,0-10.39-11h-2.2c-7,0-14,4.17-18.28,10.3A10.88,10.88,0,0,0,841.8,78a11,11,0,0,0-8.72-3.89l-17.79.2a1.25,1.25,0,0,0-1.24,1.26h0a1.23,1.23,0,0,0,1.22,1.24h0l17.78-.2a8.55,8.55,0,0,1,6.77,3,8.91,8.91,0,0,1,1.67,7.51l-8.15,38.66h-9.71l10.09-44.9a1.25,1.25,0,1,0-2.44-.55l-10.43,46.42a1.25,1.25,0,0,0,1,1.49l.27,0h12.31a1.25,1.25,0,0,0,1.22-1l7-32.54C844.52,84.94,853.45,77,862.52,77H864a8.55,8.55,0,0,1,6.77,3,8.89,8.89,0,0,1,1.68,7.48l-9.22,38.25h-9.44L864,82.27a1.25,1.25,0,0,0-2.43-.57L851,126.7a1.25,1.25,0,0,0,1.22,1.54h12a1.57,1.57,0,0,0,1.38-1l8.17-32.59c2-10.11,12.89-17.51,21.43-17.82h.68l-12.78,54.48a1.25,1.25,0,0,0,2.43.57L898.37,77A8.47,8.47,0,0,1,904,80.1a8.37,8.37,0,0,1,1.73,7l-8.91,38.63a12.08,12.08,0,0,1-11.9,9.64H743.67a1.25,1.25,0,0,0,0,2.5H884.9A14.58,14.58,0,0,0,899.25,126.25Zm-728.78-5.42c-4.2-5.1-5.78-12.27-4.34-19.69C168.94,86.7,182.26,74.93,196,74.66h.59c4.44-.52,8,.51,10,3,5,6.25-.89,19.4-13.49,29.94a50.51,50.51,0,0,1-9.33,6.31,1.25,1.25,0,1,1-1.17-2.21,47.54,47.54,0,0,0,8.89-6c11.16-9.34,17.18-21.46,13.15-26.46-1.88-2.33-5.85-2.82-11-1.44-5.35,2.57-11,12.43-13.21,23.81-1.85,9.52-1,18.18,2.24,22.08a4.84,4.84,0,0,0,3.12,1.88h.78c8.14,0,16.69-4.63,22.29-12.1a1.25,1.25,0,0,1,2,1.5c-6.07,8.08-15.37,13.09-24.29,13.09h-.39A20.31,20.31,0,0,1,170.47,120.83Zm1.93-1.59a17.12,17.12,0,0,0,7.82,5.35c-3.3-4.72-4.17-13.57-2.25-23.45,1.88-9.69,6-18,10.59-22.62a31.5,31.5,0,0,0-20,23.09C167.28,108.29,168.67,114.72,172.4,119.24ZM93.74,37.68l-19.14,87c-2.86,9.61-6.56,16-11.65,20.1a30.23,30.23,0,0,1-15,6.61,26.55,26.55,0,0,1-3.49.23,29.69,29.69,0,0,1-11.55-2.41C29,147.8,23,144.61,20.39,137.83l-.28-.77v-.12a8.19,8.19,0,0,1,1-6.3,8.08,8.08,0,0,1,5-3.64,8.45,8.45,0,0,1,10,6.21v.11a14.8,14.8,0,0,1,.17,3.3,32.69,32.69,0,0,0,1.35,11.63,25.48,25.48,0,0,0,9.91.7,27.73,27.73,0,0,0,13.74-6.08c4.69-3.8,8.12-9.77,10.81-18.78l19-86.41H82.49L59.4,138.62a1.25,1.25,0,0,1-2.44-.56L80,37.68H51.54c-11.61,0-20.66,6.42-22.52,16a18,18,0,0,0,3.54,14.81,13.47,13.47,0,0,0,10.53,5.06,1.25,1.25,0,0,1,0,2.5,15.93,15.93,0,0,1-12.46-6,20.56,20.56,0,0,1-4.06-16.87c2.09-10.77,12.13-18,25-18h68.81a11,11,0,0,1,8.7,3.89,11.37,11.37,0,0,1,2.19,9.6l-7.62,34c4.3-5.49,10.67-9.08,17.27-9.08a15.25,15.25,0,0,1,12,5.55,18,18,0,0,1,3.37,15l-6.07,28.15a1.25,1.25,0,0,1-1.22,1h-.26a1.25,1.25,0,0,1-1-1.45v0l6.06-28.12a15.47,15.47,0,0,0-2.8-13A12.79,12.79,0,0,0,140.89,76c-9.11,0-17.78,7.76-19.74,17.67l-.06.15L113.63,127l-.12.29a1.21,1.21,0,0,1-.15.23l-.12.13a1.23,1.23,0,0,1-.24.16l-.13.07a1.23,1.23,0,0,1-.45.09H99a1.25,1.25,0,0,1-1.22-1.53L117.06,42.9a1.25,1.25,0,1,1,2.44.56l-18.93,82H111.4l17.4-77.3a8.9,8.9,0,0,0-1.67-7.49,8.55,8.55,0,0,0-6.77-3H93.74ZM34.84,147.23a35.39,35.39,0,0,1-1-10.79,12.26,12.26,0,0,0-.14-2.69,5.94,5.94,0,0,0-7-4.32A5.6,5.6,0,0,0,23.17,132a5.71,5.71,0,0,0-.68,4.33l.24.67C25.23,143.43,31.57,146.2,34.84,147.23ZM156.16,125.7h-8a9.11,9.11,0,0,1-7.21-3.18,9.55,9.55,0,0,1-1.8-8L146.78,81a1.25,1.25,0,1,0-2.44-.56L136.65,114A12,12,0,0,0,139,124.17a11.55,11.55,0,0,0,9.12,4.09h8.07a1.25,1.25,0,0,0,0-2.5ZM266.9,37.61l-24,104.66A14.06,14.06,0,0,1,229.43,153H157.66a1.25,1.25,0,0,1,0-2.5h71.75a11.53,11.53,0,0,0,11-8.76l23.87-104.1h-9.53L229.94,146.37a1.25,1.25,0,0,1-2.44-.56L252.24,37.63H226.81a1.25,1.25,0,0,1,0-2.5h26.74a1.23,1.23,0,0,1,.54,0h11.48a1.22,1.22,0,0,1,.59,0h18.4a20.47,20.47,0,0,1,16.18,7.22c3.94,4.78,5.39,11.15,4.07,17.94-2.41,12.44-13.65,22.75-26,24.43a8,8,0,0,1-1.41.18h-.08c-.65.05-1.31.08-2,.08H260.53a1.25,1.25,0,0,1,0-2.5h14.88a23.51,23.51,0,0,0,3-.21c5.74-1.27,12-11.25,14.09-22.76,1.52-8.44.51-16.21-2.57-19.78a4.92,4.92,0,0,0-4-1.91,1.22,1.22,0,0,1-.56-.13h-.82Zm25.9,1.78c2.86,4.48,3.71,12.13,2.2,20.55s-4.88,15.57-9,20.09c8.08-3.74,14.63-11.39,16.34-20.22,1.17-6-.09-11.68-3.55-15.87A16.75,16.75,0,0,0,292.8,39.39Zm-78.55,97.37a1.25,1.25,0,0,0-1.25-1.25H88.25a1.25,1.25,0,0,0,0,2.5H213A1.25,1.25,0,0,0,214.25,136.76ZM551.12,150.5H407.66l-.11,0H253.67a1.25,1.25,0,0,0,0,2.5H407.55l.09,0,.09,0H551.12a7.63,7.63,0,0,1,0,15.26H506.55a10.64,10.64,0,0,0-10.63,10.63v4a1.25,1.25,0,0,0,2.49,0v-4a8.14,8.14,0,0,1,8.14-8.14h44.58a10.12,10.12,0,0,0,0-20.24Z"/></svg>
