<?xml version="1.0" encoding="UTF-8"?>
<svg width="20px" height="20px" viewBox="0 0 20 20" version="1.1" xmlns="http://www.w3.org/2000/svg" xmlns:xlink="http://www.w3.org/1999/xlink">
    <!-- Generator: Sketch 42 (36781) - http://www.bohemiancoding.com/sketch -->
    <title>Fill 1</title>
    <desc>Created with Sketch.</desc>
    <defs></defs>
    <g id="Main" stroke="none" stroke-width="1" fill="none" fill-rule="evenodd">
        <g id="Product-Page-Updates---Bundle-1" transform="translate(-1136.000000, -607.000000)" fill="#00B2B0">
            <g id="CTA" transform="translate(859.000000, 585.000000)">
                <g id="Impact" transform="translate(277.000000, 21.000000)">
                    <path d="M9.796,2.73439575 C5.35074369,2.73439575 1.73452855,6.35061089 1.73452855,10.795 C1.73452855,15.2393891 5.35074369,18.8556042 9.796,18.8556042 C14.2403891,18.8556042 17.8566042,15.2393891 17.8566042,10.795 C17.8566042,6.35061089 14.2403891,2.73439575 9.796,2.73439575 L9.796,2.73439575 Z M9.796,20.59 C4.39422444,20.59 0.000132802124,16.1959084 0.000132802124,10.795 C0.000132802124,5.39322444 4.39422444,1 9.796,1 C15.1977756,1 19.591,5.39322444 19.591,10.795 C19.591,16.1959084 15.1977756,20.59 9.796,20.59 L9.796,20.59 Z M8.71286985,15.3876799 L8.71286985,13.8310598 C8.71286985,13.7417384 8.75883134,13.6975113 8.84815272,13.6975113 L10.5218446,13.6975113 C10.611166,13.6975113 10.6571275,13.7417384 10.6571275,13.8310598 L10.6571275,15.3876799 C10.6571275,15.4761341 10.611166,15.5203612 10.5218446,15.5203612 L8.84815272,15.5203612 C8.75883134,15.5203612 8.71286985,15.4761341 8.71286985,15.3876799 L8.71286985,15.3876799 Z M8.87590305,12.7834847 C8.78571448,12.7834847 8.73975299,12.7375232 8.73975299,12.6456003 L8.73975299,12.0593745 C8.73975299,11.6127676 8.87416866,11.2216614 9.1412656,10.8843214 L10.1133944,9.61474369 C10.466344,9.19588712 10.6441195,8.8368672 10.6441195,8.53594954 C10.6441195,8.23503187 10.5600013,7.99915405 10.3917649,7.82571448 C10.2243958,7.6531421 10.0023931,7.5690239 9.72575697,7.57335989 C9.16121116,7.57335989 8.81346481,7.8985591 8.68251793,8.5498247 C8.65563479,8.64001328 8.59666534,8.68163878 8.50647676,8.6720996 L7.00882603,8.45616733 C6.91863745,8.44749535 6.88048074,8.39112749 6.89348871,8.28706375 C6.99755246,7.56555511 7.30280611,6.99320452 7.80838247,6.57001195 C8.31916202,6.14508499 8.9790996,5.93348871 9.78992961,5.93348871 C10.5998924,5.93348871 11.268502,6.16936653 11.7974927,6.63938778 C12.3238818,7.11374502 12.5883772,7.68783001 12.5883772,8.35990837 C12.5883772,9.03198672 12.3403586,9.65983798 11.8443214,10.242595 L10.9094821,11.4722815 C10.7230345,11.6951514 10.6302444,11.9752563 10.6302444,12.3117291 L10.6302444,12.6456003 C10.6302444,12.7375232 10.5842829,12.7834847 10.4940943,12.7834847 L8.87590305,12.7834847 Z" id="Fill-1"></path>
                </g>
            </g>
        </g>
    </g>
</svg>
