<?xml version="1.0" encoding="UTF-8" standalone="no"?>
<svg width="12px" height="13px" viewBox="0 0 12 13" version="1.1" xmlns="http://www.w3.org/2000/svg" xmlns:xlink="http://www.w3.org/1999/xlink">
    <!-- Generator: sketchtool 41.2 (35397) - http://www.bohemiancoding.com/sketch -->
    <title>4B26EADA-11B0-4A34-9B22-47F788182527</title>
    <desc>Created with sketchtool.</desc>
    <defs></defs>
    <g id="Main" stroke="none" stroke-width="1" fill="none" fill-rule="evenodd">
        <g id="Nav-Main---Stoves-Active" transform="translate(-899.000000, -10.000000)" fill="#5D5D5D">
            <g id="Super-Nav">
                <g id="Search" transform="translate(899.000000, 10.000000)">
                    <g id="Search-Icon">
                        <path d="M7.27243675,8.06503482 C5.39830299,8.06503482 3.87378368,6.55107702 3.87378368,4.69043253 C3.87378368,2.82964182 5.39830299,1.31597646 7.27243675,1.31597646 C9.14657051,1.31597646 10.6712371,2.82964182 10.6712371,4.69043253 C10.6712371,6.55107702 9.14657051,8.06503482 7.27243675,8.06503482 M7.27243675,0 C4.66770597,0 2.54837084,2.10410013 2.54837084,4.69043253 C2.54837084,5.8506851 2.97574285,6.91297054 3.68115702,7.73267766 L0.191934074,11.2289347 C-0.0656378221,11.486866 -0.0637233369,11.9035919 0.196204848,12.15933 C0.325358966,12.2863949 0.494128202,12.3500004 0.662602901,12.3500004 C0.833139353,12.3500004 1.00382307,12.2849327 1.13327173,12.1550896 L4.67551118,8.60590114 C5.42127681,9.09515195 6.31372146,9.38101128 7.27243675,9.38101128 C9.87731479,9.38101128 11.9966499,7.27676492 11.9966499,4.69043253 C11.9966499,2.10410013 9.87731479,0 7.27243675,0"></path>
                    </g>
                </g>
            </g>
        </g>
    </g>
</svg>
