<svg xmlns="http://www.w3.org/2000/svg" viewBox="0 0 229.33 141.33"><title>shippingIcon</title><path d="M81.17,103a15,15,0,0,0-15,15,15.18,15.18,0,0,0,.52,3.92l2.41-.65a12.81,12.81,0,0,1-.43-3.27A12.48,12.48,0,1,1,71,125.17l-2,1.46A15,15,0,1,0,81.17,103Z" style="fill:#454444"/><path d="M174.65,103a15,15,0,0,0-14.53,18.76l2.42-.64a12.53,12.53,0,1,1,12.11,9.3,12.55,12.55,0,0,1-9.53-4.37l-1.9,1.62A15,15,0,1,0,174.65,103Z" style="fill:#454444"/><polygon points="46.64 44.39 59.99 44.39 59.99 41.89 44.14 41.89 44.14 55.14 46.64 55.14 46.64 44.39" style="fill:#454444"/><rect x="44.14" y="91.89" width="2.5" height="8.24" style="fill:#454444"/><polygon points="146.74 100.13 149.24 100.13 149.24 41.89 130.91 41.89 130.91 44.39 146.74 44.39 146.74 100.13" style="fill:#454444"/><path d="M155.6,56.88h36.13l3.15,8.32H180.81a1.44,1.44,0,0,0-1.43,1.45V84.87a1.44,1.44,0,0,0,1.43,1.45h22.05l4.26,11.26v2.55h2.5v-3L193.46,54.38H153.1v45.75h2.5Zm26.28,26.94V67.7h13.94l6.1,16.12Z" style="fill:#454444"/><polygon points="157.66 115.87 98.29 115.87 98.29 118.37 98.92 118.37 98.92 118.4 157.82 118.4 157.82 115.9 157.66 115.9 157.66 115.87" style="fill:#454444"/><polygon points="190.13 104.27 190.13 106.77 207.74 106.77 207.74 115.87 192.43 115.87 192.43 118.37 210.24 118.37 210.24 104.27 190.13 104.27" style="fill:#454444"/><rect x="97.39" y="104.27" width="61.5" height="2.5" style="fill:#454444"/><polygon points="42 118.36 63.52 118.4 63.52 115.9 44.5 115.87 44.5 106.77 65.49 106.77 65.49 104.27 42 104.27 42 118.36" style="fill:#454444"/><rect x="180.13" y="88.95" width="7.71" height="2.5" style="fill:#454444"/><rect x="14.66" y="58.18" width="38.38" height="2.5" style="fill:#454444"/><rect x="14.66" y="87.06" width="38.38" height="2.5" style="fill:#454444"/><rect x="24.55" y="72.71" width="28.49" height="2.5" style="fill:#454444"/><path d="M95.48,73.29A30.38,30.38,0,1,0,65.1,42.91,30.42,30.42,0,0,0,95.48,73.29Zm0-58.26A27.88,27.88,0,1,1,67.6,42.91,27.92,27.92,0,0,1,95.48,15Z" style="fill:#454444"/><polygon points="105.99 51 96.53 42.38 96.53 27.2 94.03 27.2 94.03 43.48 104.3 52.85 105.99 51" style="fill:#454444"/><rect x="71.49" y="42.04" width="3.11" height="2.5" style="fill:#454444"/><rect x="116.59" y="42.04" width="3.11" height="2.5" style="fill:#454444"/><rect x="94.19" y="64.29" width="2.5" height="3.11" style="fill:#454444"/><rect x="94.19" y="19.18" width="2.5" height="3.11" style="fill:#454444"/><rect x="78.1" y="57.99" width="3.11" height="2.5" transform="translate(-18.56 73.67) rotate(-45)" style="fill:#454444"/><rect x="109.99" y="26.09" width="3.11" height="2.5" transform="translate(13.34 86.89) rotate(-45.01)" style="fill:#454444"/><rect x="78.4" y="25.79" width="2.5" height="3.11" transform="translate(4 64.34) rotate(-45.01)" style="fill:#454444"/><rect x="110.29" y="57.68" width="2.5" height="3.11" transform="translate(-9.21 96.24) rotate(-45.01)" style="fill:#454444"/></svg>
