<?xml version="1.0" encoding="utf-8"?>
<!-- Generator: Adobe Illustrator 24.3.0, SVG Export Plug-In . SVG Version: 6.00 Build 0)  -->
<svg version="1.1" id="Layer_1" xmlns="http://www.w3.org/2000/svg" xmlns:xlink="http://www.w3.org/1999/xlink" x="0px" y="0px"
	 viewBox="0 0 16 13" style="enable-background:new 0 0 16 13;" xml:space="preserve">
<style type="text/css">
	.st0{fill:#008FA1;}
</style>
<path class="st0" d="M8.4,0.2C5,0.2,2.2,3,2.2,6.4s2.8,6.3,6.3,6.3s6.3-2.8,6.3-6.3C14.7,3,11.9,0.2,8.4,0.2z M8.4,11.7
	c-2.9,0-5.3-2.4-5.3-5.3s2.4-5.3,5.3-5.3s5.3,2.4,5.3,5.3l0,0C13.7,9.3,11.3,11.7,8.4,11.7z"/>
<path class="st0" d="M8.8,6.2V4.3c0-0.3-0.2-0.5-0.5-0.5l0,0c-0.2,0-0.5,0.2-0.5,0.4c0,0,0,0,0,0v2.1c0,0.1,0.1,0.3,0.1,0.3l1.9,1.7
	c0.2,0.2,0.5,0.2,0.6,0c0.2-0.2,0.2-0.5,0-0.7L8.8,6.2z"/>
<path class="st0" d="M4.5,6H3.9C3.6,6,3.4,6.2,3.4,6.5c0,0.3,0.2,0.5,0.5,0.5l0,0h0.6c0.3,0,0.5-0.2,0.5-0.5l0,0
	C4.9,6.2,4.7,6,4.5,6z"/>
<path class="st0" d="M13,6h-0.6c-0.3,0-0.5,0.2-0.5,0.5l0,0c0,0.2,0.2,0.5,0.4,0.5c0,0,0,0,0,0H13c0.3,0,0.5-0.2,0.5-0.5l0,0
	C13.5,6.2,13.3,6,13,6z"/>
<path class="st0" d="M8.4,10c-0.3,0-0.5,0.2-0.5,0.5l0,0v0.6c0,0.3,0.2,0.5,0.5,0.5l0,0c0.3,0,0.5-0.2,0.5-0.5v-0.6
	C8.9,10.2,8.7,10,8.4,10z"/>
<path class="st0" d="M8.4,3c0.3,0,0.5-0.2,0.5-0.5l0,0V1.9c0-0.3-0.2-0.5-0.5-0.5C8.2,1.5,8,1.7,8,1.9v0.6C8,2.7,8.1,3,8.4,3
	C8.4,3,8.4,3,8.4,3z"/>
</svg>
