<svg xmlns="http://www.w3.org/2000/svg" viewBox="0 0 2000 386.02"><defs><style>.a{fill:#58595b;}</style></defs><title>sun+clouds</title><path class="a" d="M1054.7,235.57A33.47,33.47,0,0,0,989.35,233a28.83,28.83,0,0,0-8.76-1.35,29.14,29.14,0,0,0-27.43,19.39,1.5,1.5,0,0,0,1.42,2h119.5a1.49,1.49,0,0,0,1.28-.72,1.51,1.51,0,0,0,.05-1.47A29.14,29.14,0,0,0,1054.7,235.57Zm-97.91,14.48a26.09,26.09,0,0,1,33.11-13.67,1.54,1.54,0,0,0,1.26-.09,1.52,1.52,0,0,0,.75-1,30.46,30.46,0,0,1,60,1.81,1.51,1.51,0,0,0,1.28,1.27,26.13,26.13,0,0,1,18.3,11.69Zm922.87-54.48a23.32,23.32,0,0,0-16.56-12.23,26.76,26.76,0,0,0-52.25-2,23.27,23.27,0,0,0-28.94,14.42,1.2,1.2,0,0,0,1.13,1.6h95.56a1.2,1.2,0,0,0,1.06-1.75Zm-94.85-.65A20.85,20.85,0,0,1,1811.29,184a1.2,1.2,0,0,0,1.6-.88,24.36,24.36,0,0,1,48,1.45,1.22,1.22,0,0,0,1,1,20.86,20.86,0,0,1,14.63,9.34ZM1343.91,54.24a43.11,43.11,0,0,0-78.13,6.06A33.07,33.07,0,0,0,1238,87.05a1.54,1.54,0,0,0,.32,1.24,1.52,1.52,0,0,0,1.16.54h135.93a1.5,1.5,0,0,0,1.5-1.51A33.34,33.34,0,0,0,1343.91,54.24ZM1241.35,85.83a30.5,30.5,0,0,1,25.71-22.68,1.48,1.48,0,0,0,1.24-1,40.12,40.12,0,0,1,73.4-5.69,1.5,1.5,0,0,0,1.36.8h.61a30.33,30.33,0,0,1,30.21,28.59ZM188,129.06a33.32,33.32,0,0,0-58.28.08,25.69,25.69,0,0,0-31,25.14v.36a1.16,1.16,0,0,0,1.16,1.14H212.35a1.13,1.13,0,0,0,.82-.34,1.15,1.15,0,0,0,.34-.82A25.75,25.75,0,0,0,188,129.06Zm-87,24.4a23.39,23.39,0,0,1,29-21.87,1.16,1.16,0,0,0,1.31-.59,31,31,0,0,1,54.94-.23,1.16,1.16,0,0,0,1,.62h.47a23.43,23.43,0,0,1,23.34,22.08Z"/><path class="a" d="M575.39,168.91V158.73a1.5,1.5,0,0,1,3,0v10.18a1.5,1.5,0,0,1-3,0Zm20.93,9.54a1.47,1.47,0,0,0,1.06-.44l7.21-7.2a1.5,1.5,0,0,0-2.12-2.12l-7.21,7.2a1.49,1.49,0,0,0,0,2.12A1.47,1.47,0,0,0,596.32,178.45Zm18.25,16.41h-10.2a1.5,1.5,0,0,0,0,3h10.2a1.5,1.5,0,0,0,0-3Zm-17.19,19.85a1.5,1.5,0,1,0-2.12,2.13l7.21,7.2a1.5,1.5,0,0,0,2.12,0,1.49,1.49,0,0,0,0-2.12Zm-20.49,7.6a1.5,1.5,0,0,0-1.5,1.5V234a1.5,1.5,0,0,0,3,0V223.81A1.5,1.5,0,0,0,576.89,222.31Zm-20.49-7.6-7.21,7.21a1.5,1.5,0,0,0,0,2.12,1.51,1.51,0,0,0,2.13,0l7.21-7.2a1.5,1.5,0,1,0-2.12-2.13Zm-5.49-18.35a1.5,1.5,0,0,0-1.5-1.5h-10.2a1.5,1.5,0,0,0,0,3h10.2A1.5,1.5,0,0,0,550.91,196.36ZM556.4,178a1.45,1.45,0,0,0,1.06.44,1.48,1.48,0,0,0,1.06-.44,1.51,1.51,0,0,0,0-2.12l-7.21-7.2a1.5,1.5,0,1,0-2.12,2.12ZM598,196.57a21.14,21.14,0,1,1-21.14-21.12A21.16,21.16,0,0,1,598,196.57Zm-3,0a18.14,18.14,0,1,0-18.14,18.12A18.15,18.15,0,0,0,595,196.57Z"/><path class="a" d="M591.34,230a1.51,1.51,0,0,1-1.29-.74l-2.55-4.3a1.5,1.5,0,0,1,2.59-1.53l2.54,4.3a1.51,1.51,0,0,1-.52,2.06A1.54,1.54,0,0,1,591.34,230Z"/><path class="a" d="M618.24,275.41a1.49,1.49,0,0,1-1.3-.74l-4.48-7.57a1.5,1.5,0,1,1,2.58-1.53l4.49,7.58a1.5,1.5,0,0,1-1.29,2.26Z"/><path class="a" d="M604.79,252.68a1.5,1.5,0,0,1-1.29-.73L599,244.37a1.5,1.5,0,0,1,2.59-1.53l4.48,7.58a1.5,1.5,0,0,1-1.29,2.26Z"/><path class="a" d="M629.75,294.86a1.5,1.5,0,0,1-1.3-.73l-2.54-4.31a1.5,1.5,0,0,1,2.58-1.52l2.55,4.3a1.5,1.5,0,0,1-.53,2A1.41,1.41,0,0,1,629.75,294.86Z"/><path class="a" d="M607.89,210.46a1.46,1.46,0,0,1-.72-.19l-4.39-2.39a1.5,1.5,0,0,1,1.44-2.63l4.39,2.39a1.5,1.5,0,0,1-.72,2.82Z"/><path class="a" d="M658,237.79a1.5,1.5,0,0,1-.71-.18l-8.35-4.56a1.5,1.5,0,1,1,1.44-2.63l8.34,4.56a1.5,1.5,0,0,1-.72,2.81Z"/><path class="a" d="M632.93,224.12a1.45,1.45,0,0,1-.72-.18l-8.34-4.55a1.5,1.5,0,0,1,1.43-2.64l8.35,4.56a1.5,1.5,0,0,1-.72,2.81Z"/><path class="a" d="M679.06,249.3a1.54,1.54,0,0,1-.72-.18l-4.39-2.4a1.5,1.5,0,1,1,1.44-2.63l4.39,2.39a1.51,1.51,0,0,1,.59,2A1.48,1.48,0,0,1,679.06,249.3Z"/></svg>
