<?xml version="1.0" encoding="UTF-8" standalone="no"?>
<svg width="14px" height="14px" viewBox="0 0 14 14" version="1.1" xmlns="http://www.w3.org/2000/svg" xmlns:xlink="http://www.w3.org/1999/xlink">
    <!-- Generator: sketchtool 41.2 (35397) - http://www.bohemiancoding.com/sketch -->
    <title>1406C36B-172C-45B7-9D0D-4CE873362FA0</title>
    <desc>Created with sketchtool.</desc>
    <defs></defs>
    <g id="Main" stroke="none" stroke-width="1" fill="none" fill-rule="evenodd">
        <g id="Nav-Main---Stoves-Active" transform="translate(-1111.000000, -10.000000)" fill="#5D5D5D">
            <g id="Super-Nav">
                <g id="Support" transform="translate(1111.333333, 10.000000)">
                    <g id="Support-Icon">
                        <path d="M6.79560159,1.20318725 C3.71183267,1.20318725 1.20318725,3.71183267 1.20318725,6.795 C1.20318725,9.87816733 3.71183267,12.3868127 6.79560159,12.3868127 C9.87876892,12.3868127 12.3874143,9.87816733 12.3874143,6.795 C12.3874143,3.71183267 9.87876892,1.20318725 6.79560159,1.20318725 L6.79560159,1.20318725 Z M6.79560159,13.59 C3.0482749,13.59 0,10.5417251 0,6.795 C0,3.04767331 3.0482749,0 6.79560159,0 C10.5429283,0 13.5906016,3.04767331 13.5906016,6.795 C13.5906016,10.5417251 10.5429283,13.59 6.79560159,13.59 L6.79560159,13.59 Z M6.04421116,9.98103984 L6.04421116,8.90117928 C6.04421116,8.83921514 6.07609562,8.80853386 6.13805976,8.80853386 L7.29913546,8.80853386 C7.3610996,8.80853386 7.39298406,8.83921514 7.39298406,8.90117928 L7.39298406,9.98103984 C7.39298406,10.0424024 7.3610996,10.0730837 7.29913546,10.0730837 L6.13805976,10.0730837 C6.07609562,10.0730837 6.04421116,10.0424024 6.04421116,9.98103984 L6.04421116,9.98103984 Z M6.15731076,8.17445418 C6.09474502,8.17445418 6.06286056,8.14256972 6.06286056,8.0788008 L6.06286056,7.67212351 C6.06286056,7.36230279 6.15610757,7.09098406 6.34139841,6.85696414 L7.01578486,5.97623108 C7.26063347,5.68566135 7.38396016,5.43660159 7.38396016,5.22784861 C7.38396016,5.01909562 7.32560558,4.85546215 7.20889641,4.73514343 C7.09278884,4.61542629 6.93878088,4.55707171 6.74687251,4.56007968 C6.35523506,4.56007968 6.11399602,4.78567729 6.02315538,5.2374741 C6.00450598,5.30003984 5.96359761,5.32891633 5.90103187,5.3222988 L4.86207968,5.17250199 C4.79951394,5.16648606 4.77304382,5.12738247 4.78206773,5.05519124 C4.85425896,4.55466534 5.06601992,4.15761355 5.416749,3.86403586 C5.77108765,3.56925498 6.2289004,3.42246614 6.79139044,3.42246614 C7.35327888,3.42246614 7.81710757,3.5860996 8.18407968,3.91216335 C8.54924701,4.24123506 8.73273307,4.63949004 8.73273307,5.1057251 C8.73273307,5.57196016 8.56067729,6.00751394 8.21656574,6.41178486 L7.56804781,7.26484462 C7.43870518,7.41945418 7.37433466,7.61376892 7.37433466,7.84718725 L7.37433466,8.0788008 C7.37433466,8.14256972 7.3424502,8.17445418 7.27988446,8.17445418 L6.15731076,8.17445418 Z" id="Fill-1"></path>
                    </g>
                </g>
            </g>
        </g>
    </g>
</svg>
