<svg width="10" height="10" viewBox="0 0 10 10" fill="none" xmlns="http://www.w3.org/2000/svg">
<path d="M5.06896 0.609131C2.81271 0.609131 0.988281 2.29913 0.988281 4.38913C0.988281 5.42913 1.44169 6.37913 2.18658 7.05913L2.93146 7.74913L5.06896 9.72913L7.50874 7.46913L7.99453 7.01913C8.70703 6.33913 9.14964 5.40913 9.14964 4.38913C9.14964 2.29913 7.32521 0.609131 5.06896 0.609131ZM5.06896 6.64913C3.71953 6.64913 2.62919 5.63913 2.62919 4.38913C2.62919 3.13913 3.71953 2.12913 5.06896 2.12913C6.4184 2.12913 7.50874 3.13913 7.50874 4.38913C7.50874 5.63913 6.4184 6.64913 5.06896 6.64913Z" fill="#008FA1"/>
</svg>
