<svg width="304" height="305" viewBox="0 0 304 305" fill="none" xmlns="http://www.w3.org/2000/svg">
<path d="M179.816 3.36153L182.902 3.79089C172.833 1.2749 162.486 -0.00568514 152.056 -0.005699C151.89 -0.00569195 151.724 0.00183166 151.566 0.00936706C151.551 0.00934968 151.544 0.00937197 151.529 0.00935459L151.529 152.174L152.59 152.174L152.59 28.9282L153.425 28.8981L167.61 253.138C167.761 253.115 167.904 253.1 168.054 253.077L168.664 253.002L154.283 25.8397L155.118 25.7568L185.197 249.718C185.272 249.695 185.348 249.673 185.423 249.65L186.22 249.424L155.811 23.0299L156.638 22.8868L203.867 243.051C204.01 242.983 204.153 242.923 204.296 242.855L204.853 242.607L157.218 20.5365L158.031 20.3256L222.906 232.49C223.094 232.369 223.275 232.241 223.463 232.121L223.824 231.872L158.527 18.3143L159.317 18.0356L241.208 217.5C241.358 217.356 241.516 217.213 241.659 217.063L242.021 216.701L159.769 16.3709L160.529 16.0168L257.38 198.004C257.493 197.839 257.606 197.673 257.718 197.5L258.05 197.002L161.018 14.6835L161.733 14.2541L269.864 174.449C269.864 174.441 269.872 174.434 269.872 174.419L270.331 173.251L162.313 13.2145L162.982 12.7099L277.292 147.978C277.322 147.79 277.36 147.602 277.39 147.413L277.518 146.607L163.712 11.934L164.322 11.3615L278.842 120.31C278.819 119.933 278.797 119.557 278.767 119.18L278.737 118.751L165.255 10.7814L165.797 10.1411L274.5 93.4024C274.372 92.9429 274.237 92.4834 274.101 92.0314L274.003 91.6924L167.001 9.74188L167.475 9.04888L264.943 68.8978C264.634 68.2877 264.326 67.6775 264.002 67.0749L168.988 8.72494L169.394 7.98671L251.42 47.9789C250.916 47.3311 250.396 46.6833 249.87 46.043L171.23 7.70045L171.561 6.93213L235.436 31.2408C234.623 30.5327 233.818 29.8472 233.035 29.1918L173.744 6.63079L174.007 5.8323L218.128 18.578C216.886 17.8172 215.644 17.0865 214.418 16.3934L176.565 5.47074L176.769 4.65719L200.571 9.63644C198.509 8.77768 196.44 7.97918 194.4 7.25601L179.681 4.18261L179.816 3.36153Z" fill="#F2F2F2"/>
<path d="M303.999 144.393C303.999 144.37 303.999 144.347 303.992 144.325L303.962 143.813L279.708 120.739C279.715 120.89 279.723 121.041 279.73 121.191L279.738 121.304L303.999 144.393Z" fill="#F2F2F2"/>
<path d="M25.9165 156.845C25.9466 156.679 25.9767 156.506 26.0068 156.34L1.81291 127.715C1.7828 127.88 1.75271 128.054 1.7226 128.219L25.9165 156.845Z" fill="#F2F2F2"/>
<path d="M208.315 10.8944L203.634 9.92267C204.199 10.1712 204.763 10.4273 205.32 10.6835L210.377 11.7381C209.707 11.4594 209.022 11.1806 208.315 10.8944Z" fill="#F2F2F2"/>
<path d="M278.082 148.46C278.052 148.626 278.022 148.792 277.991 148.965L302.185 177.59C302.215 177.424 302.246 177.251 302.276 177.085L278.082 148.46Z" fill="#F2F2F2"/>
<path d="M192.309 299.797L185.701 250.584C185.573 250.622 185.445 250.659 185.318 250.689L191.925 299.91C192 299.887 192.068 299.864 192.143 299.849L192.309 299.797Z" fill="#F2F2F2"/>
<path d="M204.41 243.857C204.289 243.91 204.161 243.97 204.041 244.023L214.298 291.857L214.667 291.691L204.41 243.857Z" fill="#F2F2F2"/>
<path d="M171.238 304.015L168.077 254.057C167.949 254.072 167.814 254.087 167.686 254.102L170.846 304.06C170.974 304.045 171.11 304.03 171.238 304.015Z" fill="#F2F2F2"/>
<path d="M0.0291654 161.477L24.2908 184.558C24.2832 184.37 24.2682 184.174 24.2607 183.986L-0.000944544 160.897C-0.000943425 160.935 0.00658983 160.973 0.00658959 161.01L0.0291654 161.477Z" fill="#F2F2F2"/>
<path d="M83.9669 286.516C83.6132 286.29 83.252 286.064 82.8983 285.838L82.7929 285.77L72.6338 282.84C73.0476 283.104 73.4691 283.36 73.8905 283.616L83.9669 286.516Z" fill="#F2F2F2"/>
<path d="M52.9701 268.46L67.0273 273.808C66.7865 273.59 66.5382 273.371 66.2974 273.153L66.2071 273.07L52.0746 267.691C52.2251 267.819 52.3756 267.955 52.5336 268.083L52.9701 268.46Z" fill="#F2F2F2"/>
<path d="M100.929 295.495C100.394 295.262 99.86 295.021 99.3257 294.78L99.2128 294.727L93.6291 293.559C94.2988 293.838 94.9836 294.117 95.691 294.403L100.929 295.495Z" fill="#F2F2F2"/>
<path d="M138.736 294.508L138.194 295.149L29.7692 212.106C29.7692 212.113 29.7692 212.121 29.7767 212.129L30.2583 213.816L136.997 295.563L136.523 296.256L39.4693 236.656C39.5747 236.859 39.68 237.07 39.7929 237.273L40.4401 238.494L135.018 296.572L134.612 297.311L53.1654 257.597C53.3385 257.808 53.504 258.027 53.6771 258.237L54.7457 259.548L132.776 297.589L132.445 298.358L69.4426 274.381C69.706 274.606 69.9694 274.832 70.2328 275.051L71.8658 276.429L130.262 298.652L129.999 299.45L87.0444 287.043C87.4507 287.284 87.8571 287.525 88.2635 287.759L90.807 289.243L127.455 299.812L127.252 300.625L105.15 296C105.843 296.279 106.527 296.542 107.205 296.798L107.114 297.1C107.95 297.416 108.785 297.725 109.613 298.019L124.332 301.092L124.197 301.876C132.934 303.842 141.814 304.881 150.716 304.979L150.716 276.369L150.588 276.377L136.388 52.0241C136.034 52.0693 135.688 52.1145 135.334 52.1597L149.715 279.458L148.88 279.541L118.779 55.4516C118.545 55.5194 118.304 55.5871 118.071 55.6549L117.755 55.7453L148.18 282.26L147.352 282.403L100.101 62.1257C99.7696 62.2764 99.446 62.4195 99.1149 62.5702L146.78 284.768L145.968 284.979L81.0617 72.7019C80.8059 72.8752 80.5575 73.0484 80.3017 73.2292L80.1512 73.3347L145.471 286.983L144.681 287.262L62.7526 87.7075L62.7225 87.7376C62.4592 87.9937 62.1958 88.2499 61.9399 88.506L144.222 288.927L143.462 289.281L46.5732 107.218C46.4303 107.429 46.2948 107.647 46.1518 107.866L45.911 108.235L142.972 290.614L142.258 291.043L34.1038 130.811C34.0887 130.841 34.0812 130.871 34.0661 130.909L33.6297 132.009L141.686 292.083L141.016 292.588L26.744 157.364C26.7064 157.553 26.6763 157.741 26.6462 157.929L26.5183 158.735L140.286 293.363L139.676 293.936L25.2992 185.116L25.397 186.667L138.736 294.508Z" fill="#F2F2F2"/>
<path d="M51.3065 257.032C51.141 256.821 50.9754 256.61 50.8174 256.399L50.7647 256.332L32.9071 247.624C33.0953 247.865 33.2834 248.106 33.4715 248.339L51.3065 257.032Z" fill="#F2F2F2"/>
<path d="M37.9567 236.076C37.9191 236 37.8814 235.925 37.8438 235.842L37.6256 235.405L16.7052 222.554C16.8181 222.78 16.9385 223.006 17.0589 223.232L37.9567 236.076Z" fill="#F2F2F2"/>
<path d="M237.453 278.9L223.486 233.228C223.373 233.304 223.26 233.386 223.147 233.462L237.114 279.141C237.167 279.104 237.227 279.066 237.28 279.028L237.453 278.9Z" fill="#F2F2F2"/>
<path d="M5.41758 193.824L28.5203 211.518C28.4676 211.315 28.4074 211.119 28.3547 210.916L28.3472 210.893L5.22945 193.191C5.22945 193.198 5.22943 193.206 5.23696 193.206L5.41758 193.824Z" fill="#F2F2F2"/>
<path d="M66.5454 26.3971L80.4597 71.8883L80.7984 71.6548L66.8841 26.1561C66.8314 26.1937 66.7712 26.2314 66.7185 26.2691L66.5454 26.3971Z" fill="#F2F2F2"/>
<path d="M286.947 82.0578L266.139 69.282C266.252 69.5079 266.365 69.7264 266.478 69.9524L287.3 82.7357C287.18 82.5098 287.067 82.2838 286.947 82.0578Z" fill="#F2F2F2"/>
<path d="M259.344 260.814L241.84 218.177L241.539 218.471L259.035 261.108C259.141 261.01 259.239 260.912 259.344 260.814Z" fill="#F2F2F2"/>
<path d="M10.4969 96.3778L33.3888 130.299C33.449 130.148 33.5093 130.005 33.5695 129.854L10.6699 95.9334C10.6549 95.971 10.6398 96.0087 10.6248 96.0464L10.4969 96.3778Z" fill="#F2F2F2"/>
<path d="M151.943 305.002L151.943 254.953C151.808 254.953 151.68 254.946 151.552 254.946L151.552 305.002C151.68 305.002 151.815 305.002 151.943 305.002Z" fill="#F2F2F2"/>
<path d="M270.527 56.9581L252.857 48.3405C253.038 48.574 253.219 48.8075 253.399 49.041L271.091 57.6662C270.903 57.4403 270.715 57.1992 270.527 56.9581Z" fill="#F2F2F2"/>
<path d="M251.428 37.1767L251.029 36.8302L237.212 31.5722C237.491 31.8133 237.769 32.0619 238.04 32.3105L251.917 37.591C251.751 37.4554 251.593 37.3198 251.428 37.1767Z" fill="#F2F2F2"/>
<path d="M114.73 300.595L114.67 300.58C114.692 300.588 114.708 300.588 114.73 300.595Z" fill="#F2F2F2"/>
<path d="M230.101 21.6891L220.43 18.8944C220.822 19.1505 221.206 19.3991 221.574 19.6326L231.365 22.4574C230.943 22.2013 230.529 21.9452 230.101 21.6891Z" fill="#F2F2F2"/>
<path d="M298.762 112.106L298.581 111.474L275.524 93.8166C275.584 94.0275 275.644 94.2384 275.697 94.4493L298.762 112.106Z" fill="#F2F2F2"/>
<path d="M293.494 208.919L270.602 174.999C270.542 175.149 270.482 175.293 270.422 175.443L293.321 209.364C293.336 209.326 293.351 209.289 293.366 209.251L293.494 208.919Z" fill="#F2F2F2"/>
<path d="M132.761 1.28238L135.906 50.9694C136.034 50.9544 136.17 50.9393 136.298 50.9167L133.152 1.22967C133.016 1.25226 132.889 1.26732 132.761 1.28238Z" fill="#F2F2F2"/>
<path d="M152.048 254.117L152.477 254.109L152.477 153.018L151.416 153.018L151.416 254.102C151.469 254.102 151.514 254.102 151.566 254.109C151.724 254.109 151.89 254.117 152.048 254.117Z" fill="#F2F2F2"/>
<path d="M278.639 237.296L258.057 198.622C257.974 198.75 257.891 198.871 257.809 198.991L278.398 237.673C278.413 237.65 278.428 237.627 278.443 237.605L278.639 237.296Z" fill="#F2F2F2"/>
<path d="M99.5438 61.2293C99.6642 61.1765 99.7921 61.1163 99.9125 61.0635L89.7007 13.448L89.3319 13.6137L99.5438 61.2293Z" fill="#F2F2F2"/>
<path d="M111.69 5.50087L118.267 54.4723L118.29 54.4648C118.41 54.4271 118.531 54.397 118.651 54.3593L112.074 5.38785C112.006 5.41047 111.939 5.42551 111.871 5.44811L111.69 5.50087Z" fill="#F2F2F2"/>
<path d="M44.6542 44.4836L62.1054 86.9918C62.143 86.9617 62.1731 86.924 62.2108 86.8939C62.2785 86.8336 62.3462 86.7658 62.4139 86.7056L44.9627 44.1974C44.9627 44.1974 44.9627 44.1974 44.9552 44.2049C44.8574 44.2878 44.7595 44.3857 44.6542 44.4836Z" fill="#F2F2F2"/>
<path d="M25.3522 68.0014L45.8962 106.608C45.979 106.48 46.0618 106.359 46.1446 106.231L25.593 67.6173C25.5779 67.6399 25.5629 67.6624 25.5478 67.685L25.3522 68.0014Z" fill="#F2F2F2"/>
</svg>
